<svg xmlns="http://www.w3.org/2000/svg" xmlns:xlink="http://www.w3.org/1999/xlink" viewBox="0 0 75.1 75.1"><defs><style>.cls-1{fill:none;}.cls-2{clip-path:url(#clip-path);}.cls-3{fill:#2f4157;}.cls-4{fill:#f5f6f6;}</style><clipPath id="clip-path" transform="translate(0 0)"><rect class="cls-1" width="75.1" height="75.1"/></clipPath></defs><title>Asset 3</title><g id="Layer_2" data-name="Layer 2"><g id="Layer_1-2" data-name="Layer 1"><g id="Artwork_2" data-name="Artwork 2"><g class="cls-2"><g class="cls-2"><path class="cls-3" d="M37.55,0A37.55,37.55,0,1,0,75.1,37.55,37.59,37.59,0,0,0,37.55,0" transform="translate(0 0)"/></g></g></g><g id="Artwork_6" data-name="Artwork 6"><rect class="cls-4" x="14.99" y="46.45" width="7.16" height="9.73"/><rect class="cls-4" x="48.83" y="30.5" width="7.16" height="25.67"/><rect class="cls-4" x="26.27" y="37.55" width="7.16" height="18.63"/><rect class="cls-4" x="37.55" y="42.2" width="7.16" height="13.97"/><path class="cls-4" d="M18.76,43.76A4,4,0,0,0,22,37.44l6.66-8.75a4,4,0,0,0,1.48.29,3.79,3.79,0,0,0,1.8-.46l5.68,5.18a4,4,0,1,0,6.35-.32l6.91-8.91a3.88,3.88,0,0,0,1.33.25,4,4,0,1,0-3.95-4A3.91,3.91,0,0,0,49,23.15l-7,9a4.1,4.1,0,0,0-1.21-.21,4,4,0,0,0-1.59.33L33.51,27a3.89,3.89,0,0,0,.55-2,4,4,0,0,0-7.93,0,4,4,0,0,0,.74,2.31L20.18,36.1a3.89,3.89,0,0,0-1.41-.27,4,4,0,0,0,0,7.93Zm24.18-7.87A2.08,2.08,0,0,1,40.87,38a2.06,2.06,0,1,1,2.07-2.06Zm7.17-15.14a2.07,2.07,0,1,1,2.06,2.07A2.07,2.07,0,0,1,50.11,20.75ZM28,25a2.07,2.07,0,1,1,2.06,2.07A2.07,2.07,0,0,1,28,25ZM18.77,37.73a2.07,2.07,0,1,1-2.06,2.06A2.07,2.07,0,0,1,18.77,37.73Z" transform="translate(0 0)"/></g></g></g></svg>