<svg xmlns="http://www.w3.org/2000/svg" xmlns:xlink="http://www.w3.org/1999/xlink" viewBox="0 0 75.1 75.1"><defs><style>.cls-1{fill:none;}.cls-2{clip-path:url(#clip-path);}.cls-3{fill:#2f4157;}.cls-4{clip-path:url(#clip-path-3);}.cls-5{fill:#f5f5f5;}</style><clipPath id="clip-path" transform="translate(0 0)"><rect class="cls-1" width="75.1" height="75.1"/></clipPath><clipPath id="clip-path-3" transform="translate(0 0)"><rect class="cls-1" x="23.29" y="13.94" width="28.52" height="47.22"/></clipPath></defs><title>Asset 1</title><g id="Layer_2" data-name="Layer 2"><g id="Layer_1-2" data-name="Layer 1"><g id="Artwork_2" data-name="Artwork 2"><g class="cls-2"><g class="cls-2"><path class="cls-3" d="M37.55,0A37.55,37.55,0,1,0,75.1,37.55,37.59,37.59,0,0,0,37.55,0" transform="translate(0 0)"/></g></g></g><g id="Artwork_1" data-name="Artwork 1"><g class="cls-4"><g class="cls-4"><path class="cls-5" d="M27.66,22.48a2.21,2.21,0,0,0,1.7-.82l15.7,1.7a2.2,2.2,0,1,0,.29-2.11l-15.63-1.7a2.19,2.19,0,1,0-2.06,2.93m-1-2.19Z" transform="translate(0 0)"/><path class="cls-5" d="M25.48,28.3a2.21,2.21,0,0,0,1.8-.95L47.64,29.3a2.18,2.18,0,1,0,.16-2.13L27.48,25.23a2.19,2.19,0,1,0-2,3.07m23.8.08Z" transform="translate(0 0)"/><path class="cls-5" d="M49.28,47a2.19,2.19,0,0,0-1.85,1l-19.95-1.9a2.18,2.18,0,1,0-.2,2.12l20,1.91a2.19,2.19,0,1,0,2-3.15m0,2.27Z" transform="translate(0 0)"/><path class="cls-5" d="M46.4,52.6a2.21,2.21,0,0,0-1.78.92l-16-1.71A2.19,2.19,0,1,0,28.46,54l15.92,1.69a2.19,2.19,0,1,0,2-3m-19.78.08Z" transform="translate(0 0)"/><path class="cls-5" d="M41.2,56.78a2.18,2.18,0,0,0-1.8.95l-6.14-.6A2.19,2.19,0,1,0,33,59.25l6.18.6a2.19,2.19,0,1,0,2-3.07M30.83,58Z" transform="translate(0 0)"/><path class="cls-5" d="M48.4,33.74a2.18,2.18,0,0,0-4-1.25L30.06,31.07a2.19,2.19,0,1,0-.21,2.12l14.36,1.42a2.18,2.18,0,0,0,4.19-.87" transform="translate(0 0)"/><path class="cls-5" d="M28.19,44a2.19,2.19,0,0,0,1.72-.85l14.44,1.4a2.19,2.19,0,1,0,.34-2.11L30.24,41a2.19,2.19,0,1,0-2,3" transform="translate(0 0)"/><path class="cls-5" d="M32.92,18.32a2.15,2.15,0,0,0,1.75-.89l6.65.7A2.19,2.19,0,1,0,41.54,16L35,15.31a2.19,2.19,0,1,0-2,3" transform="translate(0 0)"/><path class="cls-5" d="M42.64,36.1a2.17,2.17,0,0,0-1.78.92l-6.6-.73A2.2,2.2,0,1,0,34,38.41l6.65.73a2.19,2.19,0,1,0,2-3" transform="translate(0 0)"/></g></g></g></g></g></svg>