<svg id="Layer_1" data-name="Layer 1" xmlns="http://www.w3.org/2000/svg" viewBox="0 0 354.42 127.05"><defs><style>.cls-1{opacity:0.8;}.cls-2,.cls-3{fill:#475862;}.cls-2{opacity:0.3;}</style></defs><title>Artboard 1</title><g class="cls-1"><path class="cls-2" d="M348.81,94.39a1.75,1.75,0,0,0-.68-1.41l4.65-8a1.53,1.53,0,0,0,.37.08,1.08,1.08,0,0,0,.05-2.15,1,1,0,0,0-.36.06l-4.66-8.13a1.71,1.71,0,1,0-2.67-1.59l-9.41,0a1.09,1.09,0,0,0-1.43-.82l-4.89-8.53a1.26,1.26,0,0,0,.51-1,1.24,1.24,0,0,0-2.46-.22l-9.85,0a1.07,1.07,0,0,0-1-.95,1.12,1.12,0,0,0-.44.09l-4.65-8.12a1.72,1.72,0,0,0,.77-1.4,1.69,1.69,0,0,0-.74-1.44l4.65-8a1.43,1.43,0,0,0,.37.08,1.07,1.07,0,0,0,1.09-1l9.87,0a1.25,1.25,0,0,0,1.2,1.08,1.24,1.24,0,0,0,.77-2.23l4.95-8.49a.81.81,0,0,0,.31.06,1.06,1.06,0,0,0,1.08-.91l9.79,0a1.33,1.33,0,1,0,2.14-1.24L353,21.91a1,1,0,0,0,.35.07,1.07,1.07,0,1,0,.05-2.14,1,1,0,0,0-.36.06l-5-8.69a1,1,0,0,0,.45-.84,1.06,1.06,0,0,0-1.05-1.1,1.07,1.07,0,0,0-1.08.93l-9.81,0a1.33,1.33,0,1,0-2.11,1.24l-4.89,8.4a1,1,0,0,0-.39-.08,1.06,1.06,0,0,0-1.08.92l-10,0a1.07,1.07,0,0,0-1-.9,1.07,1.07,0,0,0-.68,1.92L311.46,30a1.31,1.31,0,0,0-1.88,1.07l-9.06,0a1.72,1.72,0,0,0-1.67-1.53,1.61,1.61,0,0,0-.72.15l-4.66-8.14a1.08,1.08,0,0,0,.39-.8,1.07,1.07,0,0,0-2.12-.22l-9.72,0a1.33,1.33,0,0,0-2.66.12,1.31,1.31,0,0,0,.53,1.08L275,30.1a.88.88,0,0,0-.33-.07,1.08,1.08,0,0,0-.05,2.15,1,1,0,0,0,.36-.06l5,8.7a1.06,1.06,0,0,0,.64,1.9,1.06,1.06,0,0,0,1.08-.92l9.73,0a1.32,1.32,0,0,0,1.82,1.06l4.85,8.46a1,1,0,0,0-.41.81,1.05,1.05,0,0,0,.43.88l-4.73,8.13a1.75,1.75,0,0,0-.69-.16,1.72,1.72,0,0,0-1.74,1.55l-9.09,0a1.32,1.32,0,0,0-1.29-1.15,1.22,1.22,0,0,0-.53.1l-4.69-8.2a1.31,1.31,0,0,0,.57-1.06,1.33,1.33,0,0,0-2.64-.22l-9.18,0a1.7,1.7,0,0,0-1.66-1.6,1.71,1.71,0,0,0-1,3.12l-4.72,8.12a1.12,1.12,0,0,0-.37-.09,1,1,0,0,0-1,.93l-10.07,0a1.14,1.14,0,1,0-1.82,1.07l-4.75,8.17a1.44,1.44,0,0,0-.58-.13,1.5,1.5,0,0,0-1.53,1.37l-9.14,0a1.33,1.33,0,0,0-1.29-1.26,1.42,1.42,0,0,0-.71.19l-4.85-8.46a1.05,1.05,0,0,0,.38-.79,1.07,1.07,0,0,0-1.05-1.09,1,1,0,0,0-1.07.87l-9.28,0a1.7,1.7,0,0,0-1.66-1.55,1.73,1.73,0,0,0-.81.19l-4.71-8.22a1.06,1.06,0,0,0,0-1.63l5.07-8.71a1,1,0,0,0,.36.07,1.06,1.06,0,0,0,1.08-.89l9.69,0a1.33,1.33,0,0,0,2.65-.18,1.33,1.33,0,0,0-.48-1l4.89-8.41A1.53,1.53,0,0,0,226,32a1.06,1.06,0,0,0,1.08-.92v-.28a1.07,1.07,0,0,0-1-.95,1.09,1.09,0,0,0-.4.07l-4.76-8.31a1.5,1.5,0,0,0,0-2.45l-.24-.15a1.61,1.61,0,0,0-.61-.15,1.51,1.51,0,0,0-1.53,1.4l-9.34,0a1.33,1.33,0,1,0-2.14,1.25l-4.59,7.89a1.77,1.77,0,0,0-.66-.15,1.71,1.71,0,0,0-1.73,1.49l-9,0a1.52,1.52,0,0,0-1.46-1.31,1.8,1.8,0,0,0-.57.1l-4.53-7.9a1.52,1.52,0,0,0,.67-1.21,1.51,1.51,0,0,0-3-.22l-9.43,0A1.32,1.32,0,0,0,171,19l-.25.14a1.33,1.33,0,0,0,0,2.2L166,29.5a1.24,1.24,0,0,0-.47-.1,1.33,1.33,0,0,0-1.35,1.2v.29a1.32,1.32,0,0,0,1.29,1.18,1.25,1.25,0,0,0,.51-.09l4.7,8.2a1.32,1.32,0,0,0-.52,1,1.33,1.33,0,0,0,2.65.23l9.7,0a1.14,1.14,0,0,0,1.1,1,1,1,0,0,0,.42-.07l4.76,8.31a1.49,1.49,0,0,0-.05,2.43l-4.63,8a1.39,1.39,0,0,0-.46-.09,1.32,1.32,0,0,0-1.35,1.22l-9.8,0a1.08,1.08,0,0,0-1-.94,1.16,1.16,0,0,0-.42.08l-4.85-8.47A1.33,1.33,0,1,0,164,51.62l-9.7,0a1.06,1.06,0,0,0-1-.91,1.09,1.09,0,0,0-1.1,1,1.13,1.13,0,0,0,.38.84l-5.07,8.7a.94.94,0,0,0-.3-.05,1.06,1.06,0,0,0-1.07.85l-9.65,0a1.51,1.51,0,0,0-3,.23,1.5,1.5,0,0,0,.55,1.19l-4.52,7.77a1.37,1.37,0,0,0-.58-.13,1.5,1.5,0,0,0-1.53,1.42l-9.55,0a1.14,1.14,0,0,0-1.1-.93,1.08,1.08,0,0,0-.4.06l-4.6-8A1.71,1.71,0,1,0,109.09,62l-8.92,0a1.5,1.5,0,1,0-2.44,1.38l-4.8,8.24a1,1,0,0,0-.4-.08,1.06,1.06,0,0,0-1.08.93l-9.66,0A1.51,1.51,0,0,0,80.33,71a1.49,1.49,0,0,0-.66.15l-4.54-7.87a1.51,1.51,0,1,0-2.33-1.41H63.2a1.06,1.06,0,0,0-1-.93,1.12,1.12,0,0,0-.48.1L57,53a1.66,1.66,0,0,0,.75-1.37A1.71,1.71,0,0,0,57,50.14L61.72,42a1.28,1.28,0,0,0,.34.07,1.08,1.08,0,1,0,0-2.15,1,1,0,0,0-.42.08l-4.95-8.58a1.14,1.14,0,1,0-1.81-1.05H45.41A1.49,1.49,0,0,0,44,29.13a1.51,1.51,0,0,0-1.54,1.47A1.48,1.48,0,0,0,43,31.82l-4.76,8.25a1.16,1.16,0,0,0-.37-.07,1.07,1.07,0,0,0,0,2.14,1,1,0,0,0,.42-.07L43,50.29a1.49,1.49,0,0,0-.62,1.17,1.53,1.53,0,0,0,.66,1.28l-4.58,7.94a1.34,1.34,0,0,0-.54-.12,1.5,1.5,0,0,0-1.52,1.35H27.17a1.51,1.51,0,0,0-1.46-1.36,1.66,1.66,0,0,0-.64.13l-4.68-8.1a1.31,1.31,0,0,0,.47-1,1.27,1.27,0,0,0-2.52-.19H8.58a1.07,1.07,0,0,0-1-.87,1.09,1.09,0,0,0-1.1,1,1.05,1.05,0,0,0,.39.84L2.06,60.73a1.51,1.51,0,1,0-.59,2.91,1.45,1.45,0,0,0,.63-.13L6.83,71.7a1.07,1.07,0,0,0,.67,1.89,1.07,1.07,0,0,0,1.07-.85h9.57a1.5,1.5,0,0,0,1.46,1.32,1.43,1.43,0,0,0,.65-.13L25,82.13a1.21,1.21,0,0,0-.47.93,1.22,1.22,0,0,0,2.43.16H36.3a1.5,1.5,0,1,0,2.4-1.36l4.69-8.12a1.36,1.36,0,0,0,.49.12,1.27,1.27,0,0,0,1.29-1.14h9.62A1.26,1.26,0,0,0,56,73.88a1.14,1.14,0,0,0,.55-.12l4.85,8.39A1,1,0,0,0,61,83a1.07,1.07,0,0,0,2.12.22H73a1.27,1.27,0,0,0,1.23,1.14,1.23,1.23,0,0,0,.55-.12l4.89,8.52a1.07,1.07,0,0,0-.44.84,1.06,1.06,0,0,0,.4.86l-4.87,8.37A1.25,1.25,0,0,0,73,103.93a1.27,1.27,0,0,0,1.24,1.3,1.35,1.35,0,0,0,.5-.09l4.68,8.17a1.47,1.47,0,0,0-.61,1.16A1.52,1.52,0,0,0,80.28,116a1.5,1.5,0,0,0,1.52-1.34l9.32,0a1.25,1.25,0,0,0,1.23,1.2,1.42,1.42,0,0,0,.55-.11l4.64,8.09A1.49,1.49,0,0,0,97,125a1.5,1.5,0,0,0,3,.23l9.59,0a1.06,1.06,0,0,0,1,.94,1.07,1.07,0,0,0,1.1-1,1.05,1.05,0,0,0-.45-.89l4.79-8.23a1.48,1.48,0,0,0,.66.18,1.51,1.51,0,0,0,1.54-1.44l9.32,0a1.27,1.27,0,0,0,1.23,1.19,1.5,1.5,0,0,0,.52-.1l4.71,8.22a1.24,1.24,0,0,0-.47,1,1.26,1.26,0,0,0,1.24,1.29,1.27,1.27,0,0,0,1.27-1l9.82,0a1.07,1.07,0,0,0,1,.85.92.92,0,0,0,.38-.06l.26-.13a1.08,1.08,0,0,0,.46-.85,1,1,0,0,0-.38-.84l4.82-8.28a1.82,1.82,0,0,0,.58.13,1.52,1.52,0,0,0,1.52-1.3v-.29a1.5,1.5,0,0,0-1.46-1.43,1.59,1.59,0,0,0-.69.16l-4.72-8.24a1.07,1.07,0,1,0-1.75-1l-10.08,0a1.06,1.06,0,0,0-1-.87,1.13,1.13,0,0,0-.32.05l-5-8.71a1.08,1.08,0,0,0,.44-.84,1.05,1.05,0,0,0-.42-.87l4.94-8.5a1.11,1.11,0,0,0,.41.08A1.14,1.14,0,0,0,136,83.35l10,0a1.09,1.09,0,0,0,1,.9,1.07,1.07,0,0,0,1.09-1,1.09,1.09,0,0,0-.41-.87l4.78-8.21a1.32,1.32,0,0,0,.53.11,1.5,1.5,0,0,0,1.53-1.36l9.44,0a1.34,1.34,0,0,0,1.3,1.26,1.47,1.47,0,0,0,.56-.11l4.78,8.34a1,1,0,0,0-.42.83,1.07,1.07,0,0,0,.45.9l-5,8.64a1,1,0,0,0-.33-.07,1.08,1.08,0,1,0,0,2.15,1,1,0,0,0,.35-.06l4.73,8.26a1.5,1.5,0,1,0,2.4,1.42l9.55,0a1.07,1.07,0,0,0,2.13-.11,1,1,0,0,0-.4-.85l4.91-8.44a1.26,1.26,0,0,0,.51.11,1.34,1.34,0,1,0,.06-2.67,1.47,1.47,0,0,0-.56.11l-4.63-8.08a1.5,1.5,0,0,0,0-2.5l4.78-8.21a1.17,1.17,0,0,0,.42.09,1.07,1.07,0,0,0,1.08-1l9.76,0a1.33,1.33,0,0,0,1.29,1.19,1.44,1.44,0,0,0,.51-.09l4.71,8.21a1.35,1.35,0,0,0-.48,1,1.33,1.33,0,0,0,2.65.25l9.27,0A1.51,1.51,0,0,0,219.81,85a1.59,1.59,0,0,0,.62-.12l4.77,8.33a1.06,1.06,0,0,0-.39.79,1.08,1.08,0,0,0,.4.85l-4.85,8.32a1.85,1.85,0,0,0-.53-.11,1.51,1.51,0,0,0-1.54,1.48,1.49,1.49,0,0,0,1.47,1.53,1.45,1.45,0,0,0,.63-.12l4.6,8a1.31,1.31,0,0,0-.49,1,1.33,1.33,0,0,0,2.65.23l9.44,0a1.33,1.33,0,0,0,1.29,1.18,1.4,1.4,0,0,0,.54-.1l4.89,8.54a1,1,0,0,0,.69,1.81,1,1,0,0,0,1.05-.89l9.67,0a1.34,1.34,0,0,0,2.65-.2,1.32,1.32,0,0,0-.5-1.06l4.91-8.44a1.07,1.07,0,0,0,1.51-.78l9.48,0a1.48,1.48,0,0,0,1.46,1.33,1.51,1.51,0,0,0,.63-.12l4.76,8.31a1.06,1.06,0,0,0-.44.83,1.07,1.07,0,0,0,2.13.21l9.77,0a1.34,1.34,0,0,0,1.29,1.12,1.32,1.32,0,0,0,1.36-1.3,1.31,1.31,0,0,0-.49-1.06l4.66-8a1.4,1.4,0,0,0,.65.17,1.51,1.51,0,1,0,.06-3,1.68,1.68,0,0,0-.67.15l-4.79-8.37a1.07,1.07,0,1,0-1.72-1l-10.05,0a1.07,1.07,0,0,0-1-1,1.09,1.09,0,0,0-.4.07l-4.83-8.43a1.33,1.33,0,0,0,.53-1A1.34,1.34,0,0,0,273,94l-9.07,0a1.71,1.71,0,1,0-2.69,1.53l-4.59,7.88a1.59,1.59,0,0,0-.5-.11,1.33,1.33,0,0,0-1.34,1.17l-9.78,0a1.07,1.07,0,0,0-1-.88,1.13,1.13,0,0,0-.36.06l-4.68-8.17a1.72,1.72,0,0,0,.76-1.39,1.69,1.69,0,0,0-.72-1.44l4.69-8.06a1,1,0,0,0,.35.07,1.06,1.06,0,0,0,1.08-.92l9.77,0a1.32,1.32,0,0,0,1.29,1.19,1.34,1.34,0,0,0,1.37-1.3,1.36,1.36,0,0,0-.55-1.11l4.6-7.91a1.65,1.65,0,0,0,.67.16A1.71,1.71,0,0,0,264,73.27l9.44,0a1.13,1.13,0,0,0,1.1,1,1.15,1.15,0,0,0,.37-.06l4.61,8.06a1.71,1.71,0,1,0,2.55,1.53l9.22,0A1.35,1.35,0,0,0,292.56,85a1.33,1.33,0,0,0,1.36-1.31,1.3,1.3,0,0,0-.52-1.08l4.54-7.81a1.54,1.54,0,0,0,.7.17,1.71,1.71,0,0,0,1.75-1.61l8.72,0A1.72,1.72,0,0,0,310.78,75a1.77,1.77,0,0,0,.73-.16l4.64,8.1a1.1,1.1,0,0,0-.4.81,1.07,1.07,0,0,0,1.05,1.09,1.09,1.09,0,0,0,1.08-.87l9.47,0a1.7,1.7,0,0,0,2.35,1.46l4.59,8a1,1,0,0,0-.38.79,1.07,1.07,0,0,0,2.11.29l9.38,0a1.71,1.71,0,0,0,3.41-.18ZM334.68,11.55a1.13,1.13,0,0,0,.51.12,1.34,1.34,0,0,0,1.36-1.21l9.8,0a1.07,1.07,0,0,0,1,.92,1,1,0,0,0,.39-.06l5,8.67a1.08,1.08,0,0,0-.48.87,1.06,1.06,0,0,0,.45.89l-4.86,8.34a1.44,1.44,0,0,0-.55-.14A1.33,1.33,0,0,0,346,31.22l-9.77,0a1.07,1.07,0,0,0-1-1,1.1,1.1,0,0,0-.37.06l-5-8.67a1.06,1.06,0,0,0,0-1.67ZM316.59,21.78a1.24,1.24,0,0,0,.38.09,1.08,1.08,0,0,0,1.09-1l10,0a1.07,1.07,0,0,0,1,.93,1.27,1.27,0,0,0,.44-.08l4.95,8.65a1.07,1.07,0,0,0,0,1.76l-4.93,8.47a1.13,1.13,0,0,0-.48-.11,1.23,1.23,0,0,0-1.25,1.11l-9.88,0a1.08,1.08,0,0,0-1-.86,1.27,1.27,0,0,0-.34,0l-4.9-8.54a1.32,1.32,0,0,0,0-2.11ZM292.75,40.32a1.34,1.34,0,0,0-1.35,1.23l-9.71,0a1.07,1.07,0,0,0-1-.93,1.13,1.13,0,0,0-.45.09l-5-8.68a1.06,1.06,0,0,0,0-1.76l4.88-8.39a1.2,1.2,0,0,0,.54.13A1.34,1.34,0,0,0,282,20.78l9.71,0a1.06,1.06,0,0,0,1,1,1,1,0,0,0,.46-.1l4.65,8.12a1.71,1.71,0,0,0-.07,2.82l-4.53,7.8A1.52,1.52,0,0,0,292.75,40.32Zm6,10.79a.94.94,0,0,0-.44.09l-4.84-8.45a1.32,1.32,0,0,0,0-2.15l4.55-7.8a1.8,1.8,0,0,0,.7.17,1.73,1.73,0,0,0,1.75-1.62l9.05,0a1.32,1.32,0,0,0,1.29,1.19,1.19,1.19,0,0,0,.57-.12L316.32,41a1.06,1.06,0,0,0,0,1.73l-4.65,8a1.75,1.75,0,0,0-.69-.16,1.71,1.71,0,0,0-1.74,1.59l-9.4,0A1.07,1.07,0,0,0,298.76,51.11ZM207.29,21.64a1.27,1.27,0,0,0,.55.13,1.33,1.33,0,0,0,1.36-1.24l9.33,0A1.52,1.52,0,0,0,220,21.9a1.59,1.59,0,0,0,.62-.12l4.76,8.32a1,1,0,0,0-.42.82,1.07,1.07,0,0,0,.42.88l-4.88,8.39a1.42,1.42,0,0,0-.58-.15,1.33,1.33,0,0,0-1.36,1.26l-9.67,0a1.06,1.06,0,0,0-1-1,1.08,1.08,0,0,0-.44.08l-4.62-8.06a1.7,1.7,0,0,0-.07-2.8ZM183.62,40.16a1.13,1.13,0,0,0-1.15,1l-9.69,0a1.34,1.34,0,0,0-1.3-1.25,1.39,1.39,0,0,0-.6.14l-4.68-8.18a1.34,1.34,0,0,0,0-2.21L171,21.47a1.23,1.23,0,0,0,.46.1,1.33,1.33,0,0,0,1.35-1.16l9.43,0a1.49,1.49,0,0,0,1.46,1.4,1.59,1.59,0,0,0,.62-.12l4.52,7.89a1.52,1.52,0,0,0-.71,1.25,1.49,1.49,0,0,0,.64,1.26L184,40.24A1.1,1.1,0,0,0,183.62,40.16Zm6,10.25a1.53,1.53,0,0,0-.64.13l-4.76-8.3a1.13,1.13,0,0,0,0-1.85L189,32.27a1.58,1.58,0,0,0,.57.13A1.51,1.51,0,0,0,191.11,31l8.95,0a1.7,1.7,0,0,0,1.67,1.65,1.6,1.6,0,0,0,.78-.18l4.62,8.07a1.07,1.07,0,0,0-.39.8,1.09,1.09,0,0,0,.44.88l-5.06,8.7a1,1,0,0,0-.43-.1,1.06,1.06,0,0,0-1.08.92l-9.51,0A1.5,1.5,0,0,0,189.64,50.41ZM98,63.46a1.31,1.31,0,0,0,.68.19,1.5,1.5,0,0,0,1.54-1.45l8.87,0a1.7,1.7,0,0,0,2.48,1.5l4.59,8a1.16,1.16,0,0,0-.52.92,1.18,1.18,0,0,0,.44.92l-4.74,8.13a1.31,1.31,0,0,0-.52-.11A1.5,1.5,0,0,0,109.26,83l-9.21,0a1.5,1.5,0,0,0-1.46-1.45,1.45,1.45,0,0,0-.69.15l-4.74-8.27a1.06,1.06,0,0,0,0-1.67Zm17.45,30.13a1.28,1.28,0,0,0,.52,1l-4.74,8.14a1.35,1.35,0,0,0-.5-.1,1.51,1.51,0,0,0-1.52,1.31l-9.58,0a1.07,1.07,0,0,0-1-.92,1,1,0,0,0-.43.09l-4.92-8.58a1.24,1.24,0,0,0,.51-1,1.26,1.26,0,0,0-.53-1l4.74-8.14a1.45,1.45,0,0,0,.59.13A1.5,1.5,0,0,0,100,83.22l9.22,0a1.49,1.49,0,0,0,1.46,1.37,1.47,1.47,0,0,0,.59-.1l4.63,8.08A1.29,1.29,0,0,0,115.42,93.59ZM43.93,50a1.38,1.38,0,0,0-.67.15l-4.75-8.22a1.08,1.08,0,0,0,.42-.83,1.05,1.05,0,0,0-.43-.88L43.25,32a1.56,1.56,0,0,0,.64.17,1.5,1.5,0,0,0,1.54-1.45h9.5a1.15,1.15,0,0,0,1.11,1,1.33,1.33,0,0,0,.45-.08l4.95,8.57a1.07,1.07,0,0,0,0,1.73L56.79,50a1.59,1.59,0,0,0-.69-.16,1.7,1.7,0,0,0-1.74,1.56h-9A1.51,1.51,0,0,0,43.93,50ZM19.67,71.05a1.5,1.5,0,0,0-1.53,1.4H8.59a1.08,1.08,0,0,0-1-1,.93.93,0,0,0-.47.1L2.35,63.38A1.51,1.51,0,0,0,3,62.16a1.5,1.5,0,0,0-.7-1.3l4.77-8.25a1,1,0,0,0,.42.09,1.07,1.07,0,0,0,1.09-1h9.74a1.26,1.26,0,0,0,1.23,1.14,1.13,1.13,0,0,0,.58-.13l4.68,8.09a1.5,1.5,0,0,0,0,2.47l-4.55,7.9A1.46,1.46,0,0,0,19.67,71.05ZM38.46,81.7a1.63,1.63,0,0,0-.63-.16,1.5,1.5,0,0,0-1.53,1.37H27a1.21,1.21,0,0,0-1.18-1,1.12,1.12,0,0,0-.54.11L20.5,73.79a1.5,1.5,0,0,0,0-2.44l4.56-7.91a1.47,1.47,0,0,0,.55.12,1.49,1.49,0,0,0,1.53-1.37h9.24a1.49,1.49,0,0,0,1.46,1.38,1.38,1.38,0,0,0,.61-.11L43,71.21l.2.35a1.25,1.25,0,0,0,0,2ZM56.07,71.35a1.25,1.25,0,0,0-1.27,1.08H45.16a1.25,1.25,0,0,0-1.22-1.12,1.32,1.32,0,0,0-.53.11l-4.68-8.1a1.5,1.5,0,0,0,0-2.51l4.57-7.93a1.57,1.57,0,0,0,.57.12,1.5,1.5,0,0,0,1.51-1.29h9A1.71,1.71,0,0,0,56,53.27a1.87,1.87,0,0,0,.75-.16l4.68,8.1a1.07,1.07,0,0,0-.38.79,1.05,1.05,0,0,0,.39.84l-5,8.59A1.22,1.22,0,0,0,56.07,71.35ZM74.29,81.79A1.26,1.26,0,0,0,73,82.9H63.14a1.06,1.06,0,0,0-1-1,.93.93,0,0,0-.44.08l-4.84-8.39a1.22,1.22,0,0,0,.49-1,1.25,1.25,0,0,0-.53-1.06L61.73,63a1,1,0,0,0,.39.08,1.06,1.06,0,0,0,1.08-.92h9.59a1.5,1.5,0,0,0,1.46,1.38,1.59,1.59,0,0,0,.62-.12l4.55,7.87a1.5,1.5,0,0,0,0,2.45L76.3,79.18l-1.57,2.7A1.33,1.33,0,0,0,74.29,81.79Zm6,10.74a.89.89,0,0,0-.4.07L75,84.06a1.26,1.26,0,0,0,0-2l4.7-8.13a1.58,1.58,0,0,0,.57.13,1.52,1.52,0,0,0,1.53-1.38l9.65,0a1.07,1.07,0,0,0,1.44.85l4.74,8.28a1.5,1.5,0,0,0,.05,2.41l-4.74,8.15a1.19,1.19,0,0,0-.46-.1,1.26,1.26,0,0,0-1.28,1.12l-9.86,0A1.07,1.07,0,0,0,80.32,92.53Zm12.09,20.83a1.26,1.26,0,0,0-1.27,1l-9.34,0A1.49,1.49,0,0,0,80.34,113a1.35,1.35,0,0,0-.69.16L75,105a1.26,1.26,0,0,0,0-2.06l4.86-8.36a.9.9,0,0,0,.4.09,1.06,1.06,0,0,0,1.09-1l9.84,0a1.24,1.24,0,0,0,1.77,1l4.91,8.58a1.07,1.07,0,0,0-.41.81,1.06,1.06,0,0,0,.37.83l-5,8.55A1.34,1.34,0,0,0,92.41,113.36ZM111,124.17a1,1,0,0,0-.35-.07,1.06,1.06,0,0,0-1.08.91L100,125a1.5,1.5,0,0,0-1.46-1.42,1.41,1.41,0,0,0-.71.17l-4.64-8.09a1.26,1.26,0,0,0,0-2l5-8.52a1,1,0,0,0,.43.1,1.07,1.07,0,0,0,1.08-.94l9.57,0a1.49,1.49,0,0,0,1.46,1.42,1.36,1.36,0,0,0,.61-.11l4.56,8a1.49,1.49,0,0,0,0,2.37Zm23.78-18.82a1.07,1.07,0,0,0,1.09-1l10,0a1.08,1.08,0,0,0,1,1,1.14,1.14,0,0,0,.49-.11l4.71,8.23a1.52,1.52,0,0,0-.6,1.17,1.5,1.5,0,0,0,.63,1.26l-4.81,8.26a1.17,1.17,0,0,0-.42-.09,1.08,1.08,0,0,0-1.09,1l-9.78,0a1.28,1.28,0,0,0-1.24-1.24,1.24,1.24,0,0,0-.58.14l-4.7-8.2a1.29,1.29,0,0,0,.53-1,1.27,1.27,0,0,0-.56-1.08l4.91-8.43A1.28,1.28,0,0,0,134.74,105.35Zm-5.92-10.59a1.1,1.1,0,0,0,.41-.07l5,8.68a1.06,1.06,0,0,0-.51.89,1.08,1.08,0,0,0,.44.89l-4.91,8.43a1.42,1.42,0,0,0-.41-.08,1.27,1.27,0,0,0-1.28,1.06l-9.35,0a1.48,1.48,0,0,0-1.45-1.29,1.4,1.4,0,0,0-.65.13l-4.56-7.94a1.57,1.57,0,0,0,.66-1.21,1.51,1.51,0,0,0-.72-1.31l4.73-8.13a1.53,1.53,0,0,0,.47.11,1.28,1.28,0,0,0,1.28-1.1l9.85,0A1.06,1.06,0,0,0,128.82,94.76Zm.43-2.06a1.24,1.24,0,0,0-.38-.09,1.07,1.07,0,0,0-1.08.93l-9.33,0H118a1.27,1.27,0,0,0-1.23-1.16,1.12,1.12,0,0,0-.54.11l-4.62-8.07a1.5,1.5,0,0,0,0-2.53l4.73-8.11a1,1,0,0,0,.42.09,1.14,1.14,0,0,0,1.17-1.07l9.54,0a1.51,1.51,0,0,0,1.46,1.31,1.42,1.42,0,0,0,.58-.1l4.76,8.32a1.14,1.14,0,0,0-.05,1.87Zm18.22-10.48a1,1,0,0,0-.39-.09,1.07,1.07,0,0,0-1.08,1l-10,0a1.14,1.14,0,0,0-1.1-.92,1.12,1.12,0,0,0-.36,0l-4.77-8.33a1.5,1.5,0,0,0,0-2.49l4.51-7.75a1.57,1.57,0,0,0,.68.19,1.5,1.5,0,0,0,1.54-1.48h0l9.61,0a1.07,1.07,0,0,0,1,1,1,1,0,0,0,.39-.07l4.7,8.2a1.49,1.49,0,0,0-.7,1.23,1.52,1.52,0,0,0,.68,1.3Zm17.89-10.7A1.32,1.32,0,0,0,164,72.64l-9.46,0a1.51,1.51,0,0,0-1.46-1.36,1.56,1.56,0,0,0-.57.1l-4.69-8.21a1.06,1.06,0,0,0-.06-1.75l5.05-8.67a1.05,1.05,0,0,0,.43.11,1.08,1.08,0,0,0,1.09-.95l9.69,0a1.33,1.33,0,0,0,1.29,1.18,1.22,1.22,0,0,0,.57-.12l4.86,8.47a1,1,0,0,0-.43.83,1.06,1.06,0,0,0,.41.87l-4.93,8.47A1.34,1.34,0,0,0,165.36,71.52Zm18.11,13.31a1.52,1.52,0,0,0,.6-.11l4.64,8.1a1.31,1.31,0,0,0-.56,1.05,1.33,1.33,0,0,0,.55,1.1l-4.91,8.43a1.07,1.07,0,0,0-1.49.84l-9.54,0a1.5,1.5,0,0,0-1.46-1.46,1.48,1.48,0,0,0-.7.17l-4.72-8.23a1.06,1.06,0,0,0,0-1.78l5-8.63a1.28,1.28,0,0,0,.34.06,1.07,1.07,0,0,0,1.07-.87l9.67,0A1.51,1.51,0,0,0,183.47,84.83Zm.64-2.88a1.36,1.36,0,0,0-.57-.13,1.49,1.49,0,0,0-1.53,1.4l-9.66,0a1.06,1.06,0,0,0-1-1,.85.85,0,0,0-.42.08l-4.78-8.35a1.33,1.33,0,0,0,0-2.18L171,63.29a1,1,0,0,0,.37.08,1.06,1.06,0,0,0,1.08-.92l9.81,0a1.35,1.35,0,0,0,1.29,1.16,1.45,1.45,0,0,0,.47-.08l4.88,8.52a1.06,1.06,0,0,0-.39.79,1.11,1.11,0,0,0,.39.85Zm17.64-10.38a1.32,1.32,0,0,0-1.35,1.2l-9.76,0a1.06,1.06,0,0,0-1-.9.93.93,0,0,0-.44.08l-4.86-8.49a1.35,1.35,0,0,0,.6-1.09,1.3,1.3,0,0,0-.59-1.13l4.62-7.94a1.41,1.41,0,0,0,.64.16A1.5,1.5,0,0,0,191.11,52l9.5,0a1,1,0,0,0,1.51.83l4.71,8.22a1.7,1.7,0,0,0,0,2.73l-4.58,7.86A1.24,1.24,0,0,0,201.75,71.57ZM219.87,82a1.51,1.51,0,0,0-1.52,1.38l-9.26,0a1.33,1.33,0,0,0-1.3-1.27,1.38,1.38,0,0,0-.64.16L202.46,74a1.31,1.31,0,0,0,.59-1.08,1.33,1.33,0,0,0-.58-1.13L207,64a1.8,1.8,0,0,0,.77.21,1.72,1.72,0,0,0,1.74-1.6l9.25,0a1.08,1.08,0,0,0,1,1,1.06,1.06,0,0,0,.48-.11L225.18,72a1.32,1.32,0,0,0-.43,1,1.31,1.31,0,0,0,.46,1l-4.76,8.16A1.76,1.76,0,0,0,219.87,82Zm60.43,23.8a1.07,1.07,0,0,0,1.07-.88l10.06,0a1.07,1.07,0,0,0,1,.94,1,1,0,0,0,.44-.09l4.8,8.37a1.52,1.52,0,0,0-.63,1.18,1.51,1.51,0,0,0,.59,1.22l-4.66,8a1.38,1.38,0,0,0-.57-.15,1.34,1.34,0,0,0-1.36,1.26l-9.75,0a1.07,1.07,0,0,0-1-1,1,1,0,0,0-.42.08l-4.75-8.31a1.55,1.55,0,0,0,.66-1.21,1.52,1.52,0,0,0-.61-1.24L280,105.7A1.14,1.14,0,0,0,280.3,105.76ZM261.47,95.68a1.8,1.8,0,0,0,.7.17,1.72,1.72,0,0,0,1.74-1.56l9.07,0a1.32,1.32,0,0,0,1.29,1.22,1.2,1.2,0,0,0,.6-.13l4.82,8.42a1.07,1.07,0,0,0,0,1.74l-4.79,8.24a1.61,1.61,0,0,0-.62-.15,1.51,1.51,0,0,0-1.53,1.4l-9.46,0a1.07,1.07,0,0,0-1-1,1.13,1.13,0,0,0-.51.12l-4.84-8.46a1.35,1.35,0,0,0,.53-1,1.36,1.36,0,0,0-.56-1.12Zm-17.54,10a1.07,1.07,0,0,0,1.09-1l9.76,0a1.32,1.32,0,0,0,1.3,1.21,1.29,1.29,0,0,0,.55-.11l4.86,8.48a1.08,1.08,0,0,0-.32.75,1.06,1.06,0,0,0,.37.83l-4.91,8.44a1.32,1.32,0,0,0-1.93,1.14l-9.65,0a1,1,0,0,0-1-.91.89.89,0,0,0-.49.12l-4.88-8.52a1.33,1.33,0,0,0,0-2.16l4.87-8.36A1.35,1.35,0,0,0,243.93,105.72Zm-6-10a1.82,1.82,0,0,0,.74-.16l4.68,8.16a1,1,0,0,0-.48.87,1.06,1.06,0,0,0,.41.87l-4.86,8.35a1.35,1.35,0,0,0-.5-.11,1.34,1.34,0,0,0-1.35,1.2l-9.43,0a1.33,1.33,0,0,0-1.3-1.24,1.25,1.25,0,0,0-.63.15l-4.59-8a1.48,1.48,0,0,0,.66-1.21,1.46,1.46,0,0,0-.69-1.29L225.44,95a1,1,0,0,0,.42.1,1.07,1.07,0,0,0,1.08-.91l9.35,0A1.71,1.71,0,0,0,238,95.75Zm.78-3.26a1.51,1.51,0,0,0-.7-.17,1.72,1.72,0,0,0-1.75,1.59l-9.33,0a1.09,1.09,0,0,0-1-.95,1.24,1.24,0,0,0-.47.1l-4.76-8.31a1.5,1.5,0,0,0,0-2.47l4.74-8.15a1.31,1.31,0,0,0,1.94-1l9.15,0A1.51,1.51,0,0,0,238,74.53a1.43,1.43,0,0,0,.62-.12l4.77,8.31a1.05,1.05,0,0,0,0,1.71Zm18-10.1a1.46,1.46,0,0,0-.51-.12,1.34,1.34,0,0,0-1.35,1.19l-9.76,0a1.07,1.07,0,0,0-1-.93.89.89,0,0,0-.4.07l-4.76-8.32a1.47,1.47,0,0,0,.64-1.19,1.52,1.52,0,0,0-.64-1.27l4.75-8.17a1,1,0,0,0,.42.09,1.13,1.13,0,0,0,1.15-1l10.09,0a1,1,0,0,0,.95.78.83.83,0,0,0,.32,0l4.7,8.2a1.7,1.7,0,0,0,0,2.81ZM274.57,72a1.14,1.14,0,0,0-1.15,1L264,73a1.71,1.71,0,0,0-1.67-1.63,1.63,1.63,0,0,0-.76.17l-4.69-8.19a1,1,0,0,0,.06-1.58l4.73-8.12a1.75,1.75,0,0,0,.69.16,1.71,1.71,0,0,0,1.74-1.54l9.17,0a1.31,1.31,0,0,0,1.29,1.24,1.24,1.24,0,0,0,.54-.1l4.69,8.19a1.35,1.35,0,0,0-.58,1.07,1.32,1.32,0,0,0,.53,1.09l-4.84,8.31A1.13,1.13,0,0,0,274.57,72Zm18.59,10.47a1.26,1.26,0,0,0-.54-.13,1.34,1.34,0,0,0-1.36,1.23l-9.23,0a1.72,1.72,0,0,0-1.66-1.47,1.49,1.49,0,0,0-.6.1l-4.62-8a1.15,1.15,0,0,0,.54-1,1.14,1.14,0,0,0-.52-1L280,63.93a1.47,1.47,0,0,0,.52.12,1.34,1.34,0,0,0,1.35-1.23l9.08,0a1.7,1.7,0,0,0,2.42,1.43l4.36,7.6a1.67,1.67,0,0,0-.75,1.37,1.7,1.7,0,0,0,.72,1.44Zm17.69-10.93a1.72,1.72,0,0,0-1.74,1.58l-8.73,0a1.71,1.71,0,0,0-1.66-1.54,1.8,1.8,0,0,0-.73.15l-4.35-7.6a1.71,1.71,0,0,0,0-2.81l4.74-8.13a1.11,1.11,0,0,0,.37.07,1.07,1.07,0,0,0,1.07-.88l9.42,0A1.71,1.71,0,0,0,310.87,54a1.58,1.58,0,0,0,.72-.15L316.26,62a1.07,1.07,0,0,0-.41.81,1.05,1.05,0,0,0,.4.85l-4.72,8.11A1.88,1.88,0,0,0,310.85,71.56Zm18.24,10.6a1.71,1.71,0,0,0-1.74,1.55l-9.46,0a1.07,1.07,0,0,0-1-1,1,1,0,0,0-.46.09l-4.63-8.08a1.71,1.71,0,0,0,0-2.84l4.72-8.1a1,1,0,0,0,.39.08,1.06,1.06,0,0,0,1.08-.91l9.84,0A1.24,1.24,0,0,0,329,64.12a1.25,1.25,0,0,0,.51-.1l4.88,8.53a1.08,1.08,0,0,0-.45.84,1,1,0,0,0,.41.86l-4.68,8A1.55,1.55,0,0,0,329.09,82.16Zm18,10.48a1.71,1.71,0,0,0-1.75,1.64l-9.33,0a1.08,1.08,0,0,0-1.05-1,1,1,0,0,0-.47.11l-4.57-8a1.71,1.71,0,0,0,0-2.91l4.66-8a1.06,1.06,0,0,0,.4.09,1.08,1.08,0,0,0,1.09-1l9.4,0a1.71,1.71,0,0,0,1.66,1.6,1.76,1.76,0,0,0,.76-.16l4.65,8.11a1.09,1.09,0,0,0-.48.87,1.11,1.11,0,0,0,.43.88l-4.64,8A1.62,1.62,0,0,0,347.13,92.64Z"/><path class="cls-3" d="M348.81,85.39a1.75,1.75,0,0,0-.68-1.41l4.65-8a1.53,1.53,0,0,0,.37.08,1.08,1.08,0,0,0,.05-2.15,1,1,0,0,0-.36.06l-4.66-8.13a1.71,1.71,0,1,0-2.67-1.59l-9.41,0a1.09,1.09,0,0,0-1.43-.82l-4.89-8.53a1.26,1.26,0,0,0,.51-1,1.24,1.24,0,0,0-2.46-.22l-9.85,0a1.07,1.07,0,0,0-1-.95,1.12,1.12,0,0,0-.44.09l-4.65-8.12a1.72,1.72,0,0,0,.77-1.4,1.69,1.69,0,0,0-.74-1.44l4.65-8a1.43,1.43,0,0,0,.37.08,1.07,1.07,0,0,0,1.09-1l9.87,0a1.25,1.25,0,0,0,1.2,1.08,1.24,1.24,0,0,0,.77-2.23l4.95-8.49a.81.81,0,0,0,.31.06,1.06,1.06,0,0,0,1.08-.91l9.79,0a1.33,1.33,0,1,0,2.14-1.24L353,12.91a1,1,0,0,0,.35.07,1.07,1.07,0,1,0,.05-2.14,1,1,0,0,0-.36.06l-5-8.69a1,1,0,0,0,.45-.84,1.06,1.06,0,0,0-1.05-1.1,1.07,1.07,0,0,0-1.08.93l-9.81,0a1.33,1.33,0,1,0-2.11,1.24l-4.89,8.4a1,1,0,0,0-.39-.08,1.06,1.06,0,0,0-1.08.92l-10,0a1.07,1.07,0,0,0-1-.9,1.07,1.07,0,0,0-.68,1.92L311.46,21a1.31,1.31,0,0,0-1.88,1.07l-9.06,0a1.72,1.72,0,0,0-1.67-1.53,1.61,1.61,0,0,0-.72.15l-4.66-8.14a1.08,1.08,0,0,0,.39-.8,1.07,1.07,0,0,0-2.12-.22l-9.72,0a1.33,1.33,0,0,0-2.66.12,1.31,1.31,0,0,0,.53,1.08L275,21.1a.88.88,0,0,0-.33-.07,1.08,1.08,0,0,0-.05,2.15,1,1,0,0,0,.36-.06l5,8.7a1.06,1.06,0,0,0,.64,1.9,1.06,1.06,0,0,0,1.08-.92l9.73,0a1.32,1.32,0,0,0,1.82,1.06l4.85,8.46a1,1,0,0,0-.41.81,1.05,1.05,0,0,0,.43.88l-4.73,8.13a1.75,1.75,0,0,0-.69-.16,1.72,1.72,0,0,0-1.74,1.55l-9.09,0a1.32,1.32,0,0,0-1.29-1.15,1.22,1.22,0,0,0-.53.1l-4.69-8.2a1.31,1.31,0,0,0,.57-1.06,1.33,1.33,0,0,0-2.64-.22l-9.18,0a1.7,1.7,0,0,0-1.66-1.6,1.71,1.71,0,0,0-1,3.12l-4.72,8.12a1.12,1.12,0,0,0-.37-.09,1,1,0,0,0-1,.93l-10.07,0a1.14,1.14,0,1,0-1.82,1.07l-4.75,8.17a1.44,1.44,0,0,0-.58-.13,1.5,1.5,0,0,0-1.53,1.37l-9.14,0a1.33,1.33,0,0,0-1.29-1.26,1.42,1.42,0,0,0-.71.19l-4.85-8.46a1.05,1.05,0,0,0,.38-.79,1.07,1.07,0,0,0-1.05-1.09,1,1,0,0,0-1.07.87l-9.28,0a1.7,1.7,0,0,0-1.66-1.55,1.73,1.73,0,0,0-.81.19l-4.71-8.22a1.06,1.06,0,0,0,0-1.63l5.07-8.71a1,1,0,0,0,.36.07,1.06,1.06,0,0,0,1.08-.89l9.69,0a1.33,1.33,0,0,0,2.65-.18,1.33,1.33,0,0,0-.48-1l4.89-8.41A1.53,1.53,0,0,0,226,23a1.06,1.06,0,0,0,1.08-.92v-.28a1.07,1.07,0,0,0-1-.95,1.09,1.09,0,0,0-.4.07l-4.76-8.31a1.5,1.5,0,0,0,0-2.45l-.24-.15a1.61,1.61,0,0,0-.61-.15,1.51,1.51,0,0,0-1.53,1.4l-9.34,0a1.33,1.33,0,1,0-2.14,1.25l-4.59,7.89a1.77,1.77,0,0,0-.66-.15,1.71,1.71,0,0,0-1.73,1.49l-9,0a1.52,1.52,0,0,0-1.46-1.31,1.8,1.8,0,0,0-.57.1l-4.53-7.9a1.52,1.52,0,0,0,.67-1.21,1.51,1.51,0,0,0-3-.22l-9.43,0A1.32,1.32,0,0,0,171,10l-.25.14a1.33,1.33,0,0,0,0,2.2L166,20.5a1.24,1.24,0,0,0-.47-.1,1.33,1.33,0,0,0-1.35,1.2v.29a1.32,1.32,0,0,0,1.29,1.18,1.25,1.25,0,0,0,.51-.09l4.7,8.2a1.32,1.32,0,0,0-.52,1,1.33,1.33,0,0,0,2.65.23l9.7,0a1.14,1.14,0,0,0,1.1,1,1,1,0,0,0,.42-.07l4.76,8.31a1.49,1.49,0,0,0-.05,2.43l-4.63,8a1.39,1.39,0,0,0-.46-.09,1.32,1.32,0,0,0-1.35,1.22l-9.8,0a1.08,1.08,0,0,0-1-.94,1.16,1.16,0,0,0-.42.08l-4.85-8.47A1.33,1.33,0,1,0,164,42.62l-9.7,0a1.06,1.06,0,0,0-1-.91,1.09,1.09,0,0,0-1.1,1,1.13,1.13,0,0,0,.38.84l-5.07,8.7a.94.94,0,0,0-.3-.05,1.06,1.06,0,0,0-1.07.85l-9.65,0a1.51,1.51,0,0,0-3,.23,1.5,1.5,0,0,0,.55,1.19l-4.52,7.77a1.37,1.37,0,0,0-.58-.13,1.5,1.5,0,0,0-1.53,1.42l-9.55,0a1.14,1.14,0,0,0-1.1-.93,1.08,1.08,0,0,0-.4.06l-4.6-8A1.71,1.71,0,1,0,109.09,53l-8.92,0a1.5,1.5,0,1,0-2.44,1.38l-4.8,8.24a1,1,0,0,0-.4-.08,1.06,1.06,0,0,0-1.08.93l-9.66,0A1.51,1.51,0,0,0,80.33,62a1.49,1.49,0,0,0-.66.15l-4.54-7.87a1.51,1.51,0,1,0-2.33-1.41H63.2a1.06,1.06,0,0,0-1-.93,1.12,1.12,0,0,0-.48.1L57,44a1.66,1.66,0,0,0,.75-1.37A1.71,1.71,0,0,0,57,41.14L61.72,33a1.28,1.28,0,0,0,.34.07,1.08,1.08,0,1,0,0-2.15,1,1,0,0,0-.42.08l-4.95-8.58a1.14,1.14,0,1,0-1.81-1.05H45.41A1.49,1.49,0,0,0,44,20.13a1.51,1.51,0,0,0-1.54,1.47A1.48,1.48,0,0,0,43,22.82l-4.76,8.25a1.16,1.16,0,0,0-.37-.07,1.07,1.07,0,0,0,0,2.14,1,1,0,0,0,.42-.07L43,41.29a1.49,1.49,0,0,0-.62,1.17,1.53,1.53,0,0,0,.66,1.28l-4.58,7.94a1.34,1.34,0,0,0-.54-.12,1.5,1.5,0,0,0-1.52,1.35H27.17a1.51,1.51,0,0,0-1.46-1.36,1.66,1.66,0,0,0-.64.13l-4.68-8.1a1.31,1.31,0,0,0,.47-1,1.27,1.27,0,0,0-2.52-.19H8.58a1.07,1.07,0,0,0-1-.87,1.09,1.09,0,0,0-1.1,1,1.05,1.05,0,0,0,.39.84L2.06,51.73a1.51,1.51,0,1,0-.59,2.91,1.45,1.45,0,0,0,.63-.13L6.83,62.7a1.07,1.07,0,0,0,.67,1.89,1.07,1.07,0,0,0,1.07-.85h9.57a1.5,1.5,0,0,0,1.46,1.32,1.43,1.43,0,0,0,.65-.13L25,73.13a1.21,1.21,0,0,0-.47.93,1.22,1.22,0,0,0,2.43.16H36.3a1.5,1.5,0,1,0,2.4-1.36l4.69-8.12a1.36,1.36,0,0,0,.49.12,1.27,1.27,0,0,0,1.29-1.14h9.62A1.26,1.26,0,0,0,56,64.88a1.14,1.14,0,0,0,.55-.12l4.85,8.39A1,1,0,0,0,61,74a1.07,1.07,0,0,0,2.12.22H73a1.27,1.27,0,0,0,1.23,1.14,1.23,1.23,0,0,0,.55-.12l4.89,8.52a1.07,1.07,0,0,0-.44.84,1.06,1.06,0,0,0,.4.86L74.76,93.8A1.25,1.25,0,0,0,73,94.93a1.27,1.27,0,0,0,1.24,1.3,1.35,1.35,0,0,0,.5-.09l4.68,8.17a1.47,1.47,0,0,0-.61,1.16A1.52,1.52,0,0,0,80.28,107a1.5,1.5,0,0,0,1.52-1.34l9.32,0a1.25,1.25,0,0,0,1.23,1.2,1.42,1.42,0,0,0,.55-.11l4.64,8.09A1.49,1.49,0,0,0,97,116a1.5,1.5,0,0,0,3,.23l9.59,0a1.06,1.06,0,0,0,1,.94,1.07,1.07,0,0,0,1.1-1,1.05,1.05,0,0,0-.45-.89l4.79-8.23a1.48,1.48,0,0,0,.66.18,1.51,1.51,0,0,0,1.54-1.44l9.32,0a1.27,1.27,0,0,0,1.23,1.19,1.5,1.5,0,0,0,.52-.1l4.71,8.22a1.24,1.24,0,0,0-.47,1,1.26,1.26,0,0,0,1.24,1.29,1.27,1.27,0,0,0,1.27-1l9.82,0a1.07,1.07,0,0,0,1,.85.92.92,0,0,0,.38-.06l.26-.13a1.08,1.08,0,0,0,.46-.85,1,1,0,0,0-.38-.84l4.82-8.28a1.82,1.82,0,0,0,.58.13,1.52,1.52,0,0,0,1.52-1.3v-.29a1.5,1.5,0,0,0-1.46-1.43,1.59,1.59,0,0,0-.69.16l-4.72-8.24a1.07,1.07,0,1,0-1.75-1l-10.08,0a1.06,1.06,0,0,0-1-.87,1.13,1.13,0,0,0-.32.05l-5-8.71a1.08,1.08,0,0,0,.44-.84,1.05,1.05,0,0,0-.42-.87l4.94-8.5a1.11,1.11,0,0,0,.41.08A1.14,1.14,0,0,0,136,74.35l10,0a1.09,1.09,0,0,0,1,.9,1.07,1.07,0,0,0,1.09-1,1.09,1.09,0,0,0-.41-.87l4.78-8.21a1.32,1.32,0,0,0,.53.11,1.5,1.5,0,0,0,1.53-1.36l9.44,0a1.34,1.34,0,0,0,1.3,1.26,1.47,1.47,0,0,0,.56-.11l4.78,8.34a1,1,0,0,0-.42.83,1.07,1.07,0,0,0,.45.9l-5,8.64a1,1,0,0,0-.33-.07,1.08,1.08,0,1,0,0,2.15,1,1,0,0,0,.35-.06l4.73,8.26a1.5,1.5,0,1,0,2.4,1.42l9.55,0a1.07,1.07,0,0,0,2.13-.11,1,1,0,0,0-.4-.85l4.91-8.44a1.26,1.26,0,0,0,.51.11,1.34,1.34,0,1,0,.06-2.67,1.47,1.47,0,0,0-.56.11l-4.63-8.08a1.5,1.5,0,0,0,0-2.5l4.78-8.21a1.17,1.17,0,0,0,.42.09,1.07,1.07,0,0,0,1.08-1l9.76,0a1.33,1.33,0,0,0,1.29,1.19,1.44,1.44,0,0,0,.51-.09l4.71,8.21a1.35,1.35,0,0,0-.48,1,1.33,1.33,0,0,0,2.65.25l9.27,0A1.51,1.51,0,0,0,219.81,76a1.59,1.59,0,0,0,.62-.12l4.77,8.33a1.06,1.06,0,0,0-.39.79,1.08,1.08,0,0,0,.4.85l-4.85,8.32a1.85,1.85,0,0,0-.53-.11,1.51,1.51,0,0,0-1.54,1.48,1.49,1.49,0,0,0,1.47,1.53,1.45,1.45,0,0,0,.63-.12l4.6,8a1.31,1.31,0,0,0-.49,1,1.33,1.33,0,0,0,2.65.23l9.44,0a1.33,1.33,0,0,0,1.29,1.18,1.4,1.4,0,0,0,.54-.1l4.89,8.54a1,1,0,0,0,.69,1.81,1,1,0,0,0,1.05-.89l9.67,0a1.34,1.34,0,0,0,2.65-.2,1.32,1.32,0,0,0-.5-1.06l4.91-8.44a1.07,1.07,0,0,0,1.51-.78l9.48,0a1.48,1.48,0,0,0,1.46,1.33,1.51,1.51,0,0,0,.63-.12l4.76,8.31a1.06,1.06,0,0,0-.44.83,1.07,1.07,0,0,0,2.13.21l9.77,0a1.34,1.34,0,0,0,1.29,1.12,1.32,1.32,0,0,0,1.36-1.3,1.31,1.31,0,0,0-.49-1.06l4.66-8a1.4,1.4,0,0,0,.65.17,1.51,1.51,0,1,0,.06-3,1.68,1.68,0,0,0-.67.15l-4.79-8.37a1.07,1.07,0,1,0-1.72-1l-10.05,0a1.07,1.07,0,0,0-1-1,1.09,1.09,0,0,0-.4.07l-4.83-8.43a1.33,1.33,0,0,0,.53-1A1.34,1.34,0,0,0,273,85l-9.07,0a1.71,1.71,0,1,0-2.69,1.53l-4.59,7.88a1.59,1.59,0,0,0-.5-.11,1.33,1.33,0,0,0-1.34,1.17l-9.78,0a1.07,1.07,0,0,0-1-.88,1.13,1.13,0,0,0-.36.06l-4.68-8.17a1.72,1.72,0,0,0,.76-1.39,1.69,1.69,0,0,0-.72-1.44l4.69-8.06a1,1,0,0,0,.35.07,1.06,1.06,0,0,0,1.08-.92l9.77,0a1.32,1.32,0,0,0,1.29,1.19,1.34,1.34,0,0,0,1.37-1.3,1.36,1.36,0,0,0-.55-1.11l4.6-7.91a1.65,1.65,0,0,0,.67.16A1.71,1.71,0,0,0,264,64.27l9.44,0a1.13,1.13,0,0,0,1.1,1,1.15,1.15,0,0,0,.37-.06l4.61,8.06a1.71,1.71,0,1,0,2.55,1.53l9.22,0A1.35,1.35,0,0,0,292.56,76a1.33,1.33,0,0,0,1.36-1.31,1.3,1.3,0,0,0-.52-1.08l4.54-7.81a1.54,1.54,0,0,0,.7.17,1.71,1.71,0,0,0,1.75-1.61l8.72,0A1.72,1.72,0,0,0,310.78,66a1.77,1.77,0,0,0,.73-.16l4.64,8.1a1.1,1.1,0,0,0-.4.81,1.07,1.07,0,0,0,1.05,1.09,1.09,1.09,0,0,0,1.08-.87l9.47,0a1.7,1.7,0,0,0,2.35,1.46l4.59,8a1,1,0,0,0-.38.79,1.07,1.07,0,0,0,2.11.29l9.38,0a1.71,1.71,0,0,0,3.41-.18ZM334.68,2.55a1.13,1.13,0,0,0,.51.12,1.34,1.34,0,0,0,1.36-1.21l9.8,0a1.07,1.07,0,0,0,1,.92,1,1,0,0,0,.39-.06l5,8.67a1.08,1.08,0,0,0-.48.87,1.06,1.06,0,0,0,.45.89l-4.86,8.34a1.44,1.44,0,0,0-.55-.14A1.33,1.33,0,0,0,346,22.22l-9.77,0a1.07,1.07,0,0,0-1-1,1.1,1.1,0,0,0-.37.06l-5-8.67a1.06,1.06,0,0,0,0-1.67ZM316.59,12.78a1.24,1.24,0,0,0,.38.09,1.08,1.08,0,0,0,1.09-1l10,0a1.07,1.07,0,0,0,1,.93,1.27,1.27,0,0,0,.44-.08l4.95,8.65a1.07,1.07,0,0,0,0,1.76l-4.93,8.47a1.13,1.13,0,0,0-.48-.11,1.23,1.23,0,0,0-1.25,1.11l-9.88,0a1.08,1.08,0,0,0-1-.86,1.27,1.27,0,0,0-.34,0l-4.9-8.54a1.32,1.32,0,0,0,0-2.11ZM292.75,31.32a1.34,1.34,0,0,0-1.35,1.23l-9.71,0a1.07,1.07,0,0,0-1-.93,1.13,1.13,0,0,0-.45.09l-5-8.68a1.06,1.06,0,0,0,0-1.76l4.88-8.39a1.2,1.2,0,0,0,.54.13A1.34,1.34,0,0,0,282,11.78l9.71,0a1.06,1.06,0,0,0,1,1,1,1,0,0,0,.46-.1l4.65,8.12a1.71,1.71,0,0,0-.07,2.82l-4.53,7.8A1.52,1.52,0,0,0,292.75,31.32Zm6,10.79a.94.94,0,0,0-.44.09l-4.84-8.45a1.32,1.32,0,0,0,0-2.15l4.55-7.8a1.8,1.8,0,0,0,.7.17,1.73,1.73,0,0,0,1.75-1.62l9.05,0a1.32,1.32,0,0,0,1.29,1.19,1.19,1.19,0,0,0,.57-.12L316.32,32a1.06,1.06,0,0,0,0,1.73l-4.65,8a1.75,1.75,0,0,0-.69-.16,1.71,1.71,0,0,0-1.74,1.59l-9.4,0A1.07,1.07,0,0,0,298.76,42.11ZM207.29,12.64a1.27,1.27,0,0,0,.55.13,1.33,1.33,0,0,0,1.36-1.24l9.33,0A1.52,1.52,0,0,0,220,12.9a1.59,1.59,0,0,0,.62-.12l4.76,8.32a1,1,0,0,0-.42.82,1.07,1.07,0,0,0,.42.88l-4.88,8.39a1.42,1.42,0,0,0-.58-.15,1.33,1.33,0,0,0-1.36,1.26l-9.67,0a1.06,1.06,0,0,0-1-1,1.08,1.08,0,0,0-.44.08l-4.62-8.06a1.7,1.7,0,0,0-.07-2.8ZM183.62,31.16a1.13,1.13,0,0,0-1.15,1l-9.69,0a1.34,1.34,0,0,0-1.3-1.25,1.39,1.39,0,0,0-.6.14l-4.68-8.18a1.34,1.34,0,0,0,0-2.21L171,12.47a1.23,1.23,0,0,0,.46.1,1.33,1.33,0,0,0,1.35-1.16l9.43,0a1.49,1.49,0,0,0,1.46,1.4,1.59,1.59,0,0,0,.62-.12l4.52,7.89a1.52,1.52,0,0,0-.71,1.25,1.49,1.49,0,0,0,.64,1.26L184,31.24A1.1,1.1,0,0,0,183.62,31.16Zm6,10.25a1.53,1.53,0,0,0-.64.13l-4.76-8.3a1.13,1.13,0,0,0,0-1.85L189,23.27a1.58,1.58,0,0,0,.57.13A1.51,1.51,0,0,0,191.11,22l8.95,0a1.7,1.7,0,0,0,1.67,1.65,1.6,1.6,0,0,0,.78-.18l4.62,8.07a1.07,1.07,0,0,0-.39.8,1.09,1.09,0,0,0,.44.88l-5.06,8.7a1,1,0,0,0-.43-.1,1.06,1.06,0,0,0-1.08.92l-9.51,0A1.5,1.5,0,0,0,189.64,41.41ZM98,54.46a1.31,1.31,0,0,0,.68.19,1.5,1.5,0,0,0,1.54-1.45l8.87,0a1.7,1.7,0,0,0,2.48,1.5l4.59,8a1.16,1.16,0,0,0-.52.92,1.18,1.18,0,0,0,.44.92l-4.74,8.13a1.31,1.31,0,0,0-.52-.11A1.5,1.5,0,0,0,109.26,74l-9.21,0a1.5,1.5,0,0,0-1.46-1.45,1.45,1.45,0,0,0-.69.15l-4.74-8.27a1.06,1.06,0,0,0,0-1.67Zm17.45,30.13a1.28,1.28,0,0,0,.52,1l-4.74,8.14a1.35,1.35,0,0,0-.5-.1A1.51,1.51,0,0,0,109.18,95L99.6,95a1.07,1.07,0,0,0-1-.92,1,1,0,0,0-.43.09l-4.92-8.58a1.24,1.24,0,0,0,.51-1,1.26,1.26,0,0,0-.53-1l4.74-8.14a1.45,1.45,0,0,0,.59.13A1.5,1.5,0,0,0,100,74.22l9.22,0a1.49,1.49,0,0,0,1.46,1.37,1.47,1.47,0,0,0,.59-.1l4.63,8.08A1.29,1.29,0,0,0,115.42,84.59ZM43.93,41a1.38,1.38,0,0,0-.67.15l-4.75-8.22a1.08,1.08,0,0,0,.42-.83,1.05,1.05,0,0,0-.43-.88L43.25,23a1.56,1.56,0,0,0,.64.17,1.5,1.5,0,0,0,1.54-1.45h9.5a1.15,1.15,0,0,0,1.11,1,1.33,1.33,0,0,0,.45-.08l4.95,8.57a1.07,1.07,0,0,0,0,1.73L56.79,41a1.59,1.59,0,0,0-.69-.16,1.7,1.7,0,0,0-1.74,1.56h-9A1.51,1.51,0,0,0,43.93,41ZM19.67,62.05a1.5,1.5,0,0,0-1.53,1.4H8.59a1.08,1.08,0,0,0-1-1,.93.93,0,0,0-.47.1L2.35,54.38A1.51,1.51,0,0,0,3,53.16a1.5,1.5,0,0,0-.7-1.3l4.77-8.25a1,1,0,0,0,.42.09,1.07,1.07,0,0,0,1.09-1h9.74a1.26,1.26,0,0,0,1.23,1.14,1.13,1.13,0,0,0,.58-.13l4.68,8.09a1.5,1.5,0,0,0,0,2.47l-4.55,7.9A1.46,1.46,0,0,0,19.67,62.05ZM38.46,72.7a1.63,1.63,0,0,0-.63-.16,1.5,1.5,0,0,0-1.53,1.37H27a1.21,1.21,0,0,0-1.18-1,1.12,1.12,0,0,0-.54.11L20.5,64.79a1.5,1.5,0,0,0,0-2.44l4.56-7.91a1.47,1.47,0,0,0,.55.12,1.49,1.49,0,0,0,1.53-1.37h9.24a1.49,1.49,0,0,0,1.46,1.38,1.38,1.38,0,0,0,.61-.11L43,62.21l.2.35a1.25,1.25,0,0,0,0,2ZM56.07,62.35a1.25,1.25,0,0,0-1.27,1.08H45.16a1.25,1.25,0,0,0-1.22-1.12,1.32,1.32,0,0,0-.53.11l-4.68-8.1a1.5,1.5,0,0,0,0-2.51l4.57-7.93a1.57,1.57,0,0,0,.57.12,1.5,1.5,0,0,0,1.51-1.29h9A1.71,1.71,0,0,0,56,44.27a1.87,1.87,0,0,0,.75-.16l4.68,8.1a1.07,1.07,0,0,0-.38.79,1.05,1.05,0,0,0,.39.84l-5,8.59A1.22,1.22,0,0,0,56.07,62.35ZM74.29,72.79A1.26,1.26,0,0,0,73,73.9H63.14a1.06,1.06,0,0,0-1-1,.93.93,0,0,0-.44.08l-4.84-8.39a1.22,1.22,0,0,0,.49-1,1.25,1.25,0,0,0-.53-1.06L61.73,54a1,1,0,0,0,.39.08,1.06,1.06,0,0,0,1.08-.92h9.59a1.5,1.5,0,0,0,1.46,1.38,1.59,1.59,0,0,0,.62-.12l4.55,7.87a1.5,1.5,0,0,0,0,2.45L76.3,70.18l-1.57,2.7A1.33,1.33,0,0,0,74.29,72.79Zm6,10.74a.89.89,0,0,0-.4.07L75,75.06a1.26,1.26,0,0,0,0-2l4.7-8.13a1.58,1.58,0,0,0,.57.13,1.52,1.52,0,0,0,1.53-1.38l9.65,0a1.07,1.07,0,0,0,1.44.85l4.74,8.28a1.5,1.5,0,0,0,.05,2.41l-4.74,8.15a1.19,1.19,0,0,0-.46-.1,1.26,1.26,0,0,0-1.28,1.12l-9.86,0A1.07,1.07,0,0,0,80.32,83.53Zm12.09,20.83a1.26,1.26,0,0,0-1.27,1l-9.34,0A1.49,1.49,0,0,0,80.34,104a1.35,1.35,0,0,0-.69.16L75,96a1.26,1.26,0,0,0,0-2.06l4.86-8.36a.9.9,0,0,0,.4.09,1.06,1.06,0,0,0,1.09-1l9.84,0a1.24,1.24,0,0,0,1.77,1l4.91,8.58a1.07,1.07,0,0,0-.41.81,1.06,1.06,0,0,0,.37.83l-5,8.55A1.34,1.34,0,0,0,92.41,104.36ZM111,115.17a1,1,0,0,0-.35-.07,1.06,1.06,0,0,0-1.08.91L100,116a1.5,1.5,0,0,0-1.46-1.42,1.41,1.41,0,0,0-.71.17l-4.64-8.09a1.26,1.26,0,0,0,0-2l5-8.52a1,1,0,0,0,.43.1,1.07,1.07,0,0,0,1.08-.94l9.57,0a1.49,1.49,0,0,0,1.46,1.42,1.36,1.36,0,0,0,.61-.11l4.56,8a1.49,1.49,0,0,0,0,2.37Zm23.78-18.82a1.07,1.07,0,0,0,1.09-1l10,0a1.08,1.08,0,0,0,1,1,1.14,1.14,0,0,0,.49-.11l4.71,8.23a1.52,1.52,0,0,0-.6,1.17,1.5,1.5,0,0,0,.63,1.26l-4.81,8.26a1.17,1.17,0,0,0-.42-.09,1.08,1.08,0,0,0-1.09,1l-9.78,0a1.28,1.28,0,0,0-1.24-1.24,1.24,1.24,0,0,0-.58.14l-4.7-8.2a1.29,1.29,0,0,0,.53-1,1.27,1.27,0,0,0-.56-1.08l4.91-8.43A1.28,1.28,0,0,0,134.74,96.35Zm-5.92-10.59a1.1,1.1,0,0,0,.41-.07l5,8.68a1.06,1.06,0,0,0-.51.89,1.08,1.08,0,0,0,.44.89l-4.91,8.43a1.42,1.42,0,0,0-.41-.08,1.27,1.27,0,0,0-1.28,1.06l-9.35,0a1.48,1.48,0,0,0-1.45-1.29,1.4,1.4,0,0,0-.65.13l-4.56-7.94a1.57,1.57,0,0,0,.66-1.21,1.51,1.51,0,0,0-.72-1.31l4.73-8.13a1.53,1.53,0,0,0,.47.11,1.28,1.28,0,0,0,1.28-1.1l9.85,0A1.06,1.06,0,0,0,128.82,85.76Zm.43-2.06a1.24,1.24,0,0,0-.38-.09,1.07,1.07,0,0,0-1.08.93l-9.33,0H118a1.27,1.27,0,0,0-1.23-1.16,1.12,1.12,0,0,0-.54.11l-4.62-8.07a1.5,1.5,0,0,0,0-2.53l4.73-8.11a1,1,0,0,0,.42.09,1.14,1.14,0,0,0,1.17-1.07l9.54,0a1.51,1.51,0,0,0,1.46,1.31,1.42,1.42,0,0,0,.58-.1l4.76,8.32a1.14,1.14,0,0,0-.05,1.87Zm18.22-10.48a1,1,0,0,0-.39-.09,1.07,1.07,0,0,0-1.08,1l-10,0a1.14,1.14,0,0,0-1.1-.92,1.12,1.12,0,0,0-.36,0l-4.77-8.33a1.5,1.5,0,0,0,0-2.49l4.51-7.75a1.57,1.57,0,0,0,.68.19,1.5,1.5,0,0,0,1.54-1.48h0l9.61,0a1.07,1.07,0,0,0,1,1,1,1,0,0,0,.39-.07l4.7,8.2a1.49,1.49,0,0,0-.7,1.23,1.52,1.52,0,0,0,.68,1.3Zm17.89-10.7A1.32,1.32,0,0,0,164,63.64l-9.46,0a1.51,1.51,0,0,0-1.46-1.36,1.56,1.56,0,0,0-.57.1l-4.69-8.21a1.06,1.06,0,0,0-.06-1.75l5.05-8.67a1.05,1.05,0,0,0,.43.11,1.08,1.08,0,0,0,1.09-.95l9.69,0a1.33,1.33,0,0,0,1.29,1.18,1.22,1.22,0,0,0,.57-.12l4.86,8.47a1,1,0,0,0-.43.83,1.06,1.06,0,0,0,.41.87l-4.93,8.47A1.34,1.34,0,0,0,165.36,62.52Zm18.11,13.31a1.52,1.52,0,0,0,.6-.11l4.64,8.1a1.31,1.31,0,0,0-.56,1.05,1.33,1.33,0,0,0,.55,1.1l-4.91,8.43a1.07,1.07,0,0,0-1.49.84l-9.54,0a1.5,1.5,0,0,0-1.46-1.46,1.48,1.48,0,0,0-.7.17l-4.72-8.23a1.06,1.06,0,0,0,0-1.78l5-8.63a1.28,1.28,0,0,0,.34.06,1.07,1.07,0,0,0,1.07-.87l9.67,0A1.51,1.51,0,0,0,183.47,75.83Zm.64-2.88a1.36,1.36,0,0,0-.57-.13,1.49,1.49,0,0,0-1.53,1.4l-9.66,0a1.06,1.06,0,0,0-1-1,.85.85,0,0,0-.42.08l-4.78-8.35a1.33,1.33,0,0,0,0-2.18L171,54.29a1,1,0,0,0,.37.08,1.06,1.06,0,0,0,1.08-.92l9.81,0a1.35,1.35,0,0,0,1.29,1.16,1.45,1.45,0,0,0,.47-.08l4.88,8.52a1.06,1.06,0,0,0-.39.79,1.11,1.11,0,0,0,.39.85Zm17.64-10.38a1.32,1.32,0,0,0-1.35,1.2l-9.76,0a1.06,1.06,0,0,0-1-.9.93.93,0,0,0-.44.08l-4.86-8.49a1.35,1.35,0,0,0,.6-1.09,1.3,1.3,0,0,0-.59-1.13l4.62-7.94a1.41,1.41,0,0,0,.64.16A1.5,1.5,0,0,0,191.11,43l9.5,0a1,1,0,0,0,1.51.83l4.71,8.22a1.7,1.7,0,0,0,0,2.73l-4.58,7.86A1.24,1.24,0,0,0,201.75,62.57ZM219.87,73a1.51,1.51,0,0,0-1.52,1.38l-9.26,0a1.33,1.33,0,0,0-1.3-1.27,1.38,1.38,0,0,0-.64.16L202.46,65a1.31,1.31,0,0,0,.59-1.08,1.33,1.33,0,0,0-.58-1.13L207,55a1.8,1.8,0,0,0,.77.21,1.72,1.72,0,0,0,1.74-1.6l9.25,0a1.08,1.08,0,0,0,1,1,1.06,1.06,0,0,0,.48-.11L225.18,63a1.32,1.32,0,0,0-.43.95,1.31,1.31,0,0,0,.46,1l-4.76,8.16A1.76,1.76,0,0,0,219.87,73Zm60.43,23.8a1.07,1.07,0,0,0,1.07-.88l10.06,0a1.07,1.07,0,0,0,1,.94,1,1,0,0,0,.44-.09l4.8,8.37a1.52,1.52,0,0,0-.63,1.18,1.51,1.51,0,0,0,.59,1.22l-4.66,8a1.38,1.38,0,0,0-.57-.15,1.34,1.34,0,0,0-1.36,1.26l-9.75,0a1.07,1.07,0,0,0-1-1,1,1,0,0,0-.42.08l-4.75-8.31a1.55,1.55,0,0,0,.66-1.21,1.52,1.52,0,0,0-.61-1.24L280,96.7A1.14,1.14,0,0,0,280.3,96.76ZM261.47,86.68a1.8,1.8,0,0,0,.7.17,1.72,1.72,0,0,0,1.74-1.56l9.07,0a1.32,1.32,0,0,0,1.29,1.22,1.2,1.2,0,0,0,.6-.13l4.82,8.42a1.07,1.07,0,0,0,0,1.74l-4.79,8.24a1.61,1.61,0,0,0-.62-.15,1.51,1.51,0,0,0-1.53,1.4l-9.46,0a1.07,1.07,0,0,0-1-1,1.13,1.13,0,0,0-.51.12l-4.84-8.46a1.35,1.35,0,0,0,.53-1,1.36,1.36,0,0,0-.56-1.12Zm-17.54,10a1.07,1.07,0,0,0,1.09-1l9.76,0a1.32,1.32,0,0,0,1.3,1.21,1.29,1.29,0,0,0,.55-.11l4.86,8.48a1.08,1.08,0,0,0-.32.75,1.06,1.06,0,0,0,.37.83l-4.91,8.44a1.32,1.32,0,0,0-1.93,1.14l-9.65,0a1,1,0,0,0-1-.91.89.89,0,0,0-.49.12l-4.88-8.52a1.33,1.33,0,0,0,0-2.16l4.87-8.36A1.35,1.35,0,0,0,243.93,96.72Zm-6-10a1.82,1.82,0,0,0,.74-.16l4.68,8.16a1,1,0,0,0-.48.87,1.06,1.06,0,0,0,.41.87l-4.86,8.35a1.35,1.35,0,0,0-.5-.11,1.34,1.34,0,0,0-1.35,1.2l-9.43,0a1.33,1.33,0,0,0-1.3-1.24,1.25,1.25,0,0,0-.63.15l-4.59-8a1.48,1.48,0,0,0,.66-1.21,1.46,1.46,0,0,0-.69-1.29L225.44,86a1,1,0,0,0,.42.1,1.07,1.07,0,0,0,1.08-.91l9.35,0A1.71,1.71,0,0,0,238,86.75Zm.78-3.26a1.51,1.51,0,0,0-.7-.17,1.72,1.72,0,0,0-1.75,1.59l-9.33,0a1.09,1.09,0,0,0-1-.95,1.24,1.24,0,0,0-.47.1l-4.76-8.31a1.5,1.5,0,0,0,0-2.47l4.74-8.15a1.31,1.31,0,0,0,1.94-1l9.15,0A1.51,1.51,0,0,0,238,65.53a1.43,1.43,0,0,0,.62-.12l4.77,8.31a1.05,1.05,0,0,0,0,1.71Zm18-10.1a1.46,1.46,0,0,0-.51-.12,1.34,1.34,0,0,0-1.35,1.19l-9.76,0a1.07,1.07,0,0,0-1-.93.89.89,0,0,0-.4.07l-4.76-8.32a1.47,1.47,0,0,0,.64-1.19,1.52,1.52,0,0,0-.64-1.27l4.75-8.17a1,1,0,0,0,.42.09,1.13,1.13,0,0,0,1.15-1l10.09,0a1,1,0,0,0,.95.78.83.83,0,0,0,.32,0l4.7,8.2a1.7,1.7,0,0,0,0,2.81ZM274.57,63a1.14,1.14,0,0,0-1.15,1L264,64a1.71,1.71,0,0,0-1.67-1.63,1.63,1.63,0,0,0-.76.17l-4.69-8.19a1,1,0,0,0,.06-1.58l4.73-8.12a1.75,1.75,0,0,0,.69.16,1.71,1.71,0,0,0,1.74-1.54l9.17,0a1.31,1.31,0,0,0,1.29,1.24,1.24,1.24,0,0,0,.54-.1l4.69,8.19a1.35,1.35,0,0,0-.58,1.07,1.32,1.32,0,0,0,.53,1.09l-4.84,8.31A1.13,1.13,0,0,0,274.57,63Zm18.59,10.47a1.26,1.26,0,0,0-.54-.13,1.34,1.34,0,0,0-1.36,1.23l-9.23,0a1.72,1.72,0,0,0-1.66-1.47,1.49,1.49,0,0,0-.6.1l-4.62-8a1.15,1.15,0,0,0,.54-1,1.14,1.14,0,0,0-.52-1L280,54.93a1.47,1.47,0,0,0,.52.12,1.34,1.34,0,0,0,1.35-1.23l9.08,0a1.7,1.7,0,0,0,2.42,1.43l4.36,7.6a1.67,1.67,0,0,0-.75,1.37,1.7,1.7,0,0,0,.72,1.44Zm17.69-10.93a1.72,1.72,0,0,0-1.74,1.58l-8.73,0a1.71,1.71,0,0,0-1.66-1.54,1.8,1.8,0,0,0-.73.15l-4.35-7.6a1.71,1.71,0,0,0,0-2.81l4.74-8.13a1.11,1.11,0,0,0,.37.07,1.07,1.07,0,0,0,1.07-.88l9.42,0A1.71,1.71,0,0,0,310.87,45a1.58,1.58,0,0,0,.72-.15L316.26,53a1.07,1.07,0,0,0-.41.81,1.05,1.05,0,0,0,.4.85l-4.72,8.11A1.88,1.88,0,0,0,310.85,62.56Zm18.24,10.6a1.71,1.71,0,0,0-1.74,1.55l-9.46,0a1.07,1.07,0,0,0-1-1,1,1,0,0,0-.46.09l-4.63-8.08a1.71,1.71,0,0,0,0-2.84l4.72-8.1a1,1,0,0,0,.39.08,1.06,1.06,0,0,0,1.08-.91l9.84,0A1.24,1.24,0,0,0,329,55.12a1.25,1.25,0,0,0,.51-.1l4.88,8.53a1.08,1.08,0,0,0-.45.84,1,1,0,0,0,.41.86l-4.68,8A1.55,1.55,0,0,0,329.09,73.16Zm18,10.48a1.71,1.71,0,0,0-1.75,1.64l-9.33,0a1.08,1.08,0,0,0-1.05-1,1,1,0,0,0-.47.11l-4.57-8a1.71,1.71,0,0,0,0-2.91l4.66-8a1.06,1.06,0,0,0,.4.09,1.08,1.08,0,0,0,1.09-1l9.4,0a1.71,1.71,0,0,0,1.66,1.6,1.76,1.76,0,0,0,.76-.16l4.65,8.11a1.09,1.09,0,0,0-.48.87,1.11,1.11,0,0,0,.43.88l-4.64,8A1.62,1.62,0,0,0,347.13,83.64Z"/></g></svg>