<svg xmlns="http://www.w3.org/2000/svg" xmlns:xlink="http://www.w3.org/1999/xlink" viewBox="0 0 75.1 75.1"><defs><style>.cls-1{fill:none;}.cls-2{clip-path:url(#clip-path);}.cls-3{fill:#2f4157;}.cls-4{clip-path:url(#clip-path-3);}.cls-5{fill:#f5f5f5;}</style><clipPath id="clip-path" transform="translate(0 0)"><rect class="cls-1" width="75.1" height="75.1"/></clipPath><clipPath id="clip-path-3" transform="translate(0 0)"><rect class="cls-1" x="18.7" y="10.9" width="32.24" height="48.94"/></clipPath></defs><title>Asset 2</title><g id="Layer_2" data-name="Layer 2"><g id="Layer_1-2" data-name="Layer 1"><g id="Artwork_2" data-name="Artwork 2"><g class="cls-2"><g class="cls-2"><path class="cls-3" d="M37.55,0A37.55,37.55,0,1,0,75.1,37.55,37.59,37.59,0,0,0,37.55,0" transform="translate(0 0)"/></g></g></g><g id="Artwork_4" data-name="Artwork 4"><g class="cls-4"><g class="cls-4"><path class="cls-5" d="M36.69,55.6a14.25,14.25,0,0,0,3.86-28l3.91-7.73L34.65,15,25.4,33.27a2.08,2.08,0,0,0,.92,2.78l.27.13-1.73,3.48,5.48,2.75,1.73-3.48.36.18a2.07,2.07,0,0,0,2.77-.91l2.86-5.66a8.92,8.92,0,1,1-7.88,14.88h2.31a3.18,3.18,0,0,0,3.18-3.18V44.1h-17v.14a3.18,3.18,0,0,0,3.18,3.18h1.91a14.32,14.32,0,0,0,12.9,8.18m-2.5-29.66a2.37,2.37,0,1,1-2.36,2.36,2.37,2.37,0,0,1,2.36-2.36" transform="translate(0 0)"/><path class="cls-5" d="M46.12,56.88H27.44a2,2,0,0,0-2,2v1H48.11v-1a2,2,0,0,0-2-2" transform="translate(0 0)"/><polygon class="cls-5" points="45.49 13.98 39.35 10.9 38.26 14.77 43.01 17.15 45.49 13.98"/></g></g></g></g></g></svg>