<svg id="_ÎÓÈ_1" data-name="—ÎÓÈ_1" xmlns="http://www.w3.org/2000/svg" xmlns:xlink="http://www.w3.org/1999/xlink" viewBox="0 0 234 60"><defs><style>.cls-1{fill:none;}.cls-2{clip-path:url(#clip-path);}.cls-3{fill:#fff;}.cls-4{opacity:0.4;}.cls-17,.cls-5{fill:#ccc;stroke:#ccc;stroke-miterlimit:10;}.cls-5{stroke-width:0.15px;}.cls-6{fill:#22b573;}.cls-7{fill:#fcee21;}.cls-8{fill:#fbb03b;}.cls-9{fill:#29abe2;}.cls-10{fill:#00a99d;}.cls-11{fill:#d4145a;}.cls-12{fill:#999;}.cls-13{fill:#ed1c24;}.cls-14{fill:#f7931e;}.cls-15{fill:#93278f;}.cls-16{fill:#0071bc;}.cls-17{stroke-width:0.07px;}.cls-18{fill:#f15a24;}.cls-19{fill:#54bce8;}.cls-20{fill:#00e2ff;}</style><clipPath id="clip-path"><rect class="cls-1" width="234" height="60"/></clipPath></defs><g class="cls-2"><rect class="cls-3" width="234" height="60"/><g class="cls-4"><path class="cls-5" d="M272.6,65.67l8.82-39.84.09-.13-.14.07-34-4.88v-.07l-.06,0h0L216.24,1.71l0-.13,0,.14L186.05,29.44l-30.8,17.8-32-24.68v-.22l-.07.07,0,0-.18-.13.13.18-25,22h0l-.07,0v.13l-19.27,17L58,38.78l0,0L28.22,42.34l-7.16-14h0l0,0L21,28.22l-.09,0-.09.08-.08.11L-3.73,42.17l-.11.08-11.26,27-.22.14.05.07.1-.06v0l-.1.25.19-.21,20.6-1.69L8,88.6v0l16.31,1.63,1,28v.09L47.16,99.37l15.78,12.85,0,0L98.47,73.72l.17-.08,26.28,15.71h0l27.25-12.61,10.54,35.18.05-.16,31.63-42.2,28.19,9.37,0,0,.13.25,0-.26,21.17,7,.08.12.28.27L244,86l28.4-20.23.08.27,0-.28h.2Zm-27.17-6.46,0,0,.82-15.59,26.06,21.92-26.83-6.32Zm-36.89-8.66L188.9,49.33l14.63-16.66,23,4.15Zm-27.86-1.72,5.48-19.29,17.27,3.12L188.78,49.33Zm8,.58L176.59,63.2l4.06-14.28Zm37.87-12.66h0l-3.64-12.37L247.18,21ZM247.3,21l-1.18,22.48L226.7,36.79ZM246.11,43.6l-.8,15.34L226.68,36.88Zm.11-.06,1.17-22.26.09,0L257,38.11ZM222.9,24.29,216.28,1.84l30.93,19.05Zm-.09,0-13.68,1.91L216.2,1.9Zm0,.1,3.63,12.33L203.6,32.59l5.49-6.24h0v0ZM203.5,32.58l-17.11-3.09L209,26.33ZM180.58,48.82,155.4,47.26l30.66-17.72Zm0,.09-4.11,14.47-.06.07,0,0-.14,0L155.39,47.35ZM176.48,63.6l2.25.76-2.84,1.31Zm0-.09,0-.1,12.29-14,19.56,1.21L178.87,64.29Zm32.07-12.84,11.48,11.49h0l2.54,16.51-14.08-27.9Zm.15,0,35.62,8.39-24.17,3.07Zm-.05-.11,17.9-13.69L245.21,59l-.6.08Zm36.63,8.47v.16l-.43-.1ZM257,38.19,272.3,65.47l-26-21.87Zm.09,0,24.18-12.22L264.88,52Zm0-.08-9.57-17,0-.05,33.78,4.86ZM209,26.22l-22.81,3.19L216.11,1.89ZM176,63.34,145.26,53.12l10-5.77ZM155.17,47.29,145.22,53,123.33,22.77Zm-10,5.8v0l-20.87,9.17-1.05-39.53ZM123.08,22.57l0,.05,1,39.64-26-17.66Zm.94,39.7L98.38,62l-.29-17.29ZM98,44.74,98.29,62,78.9,61.73l-.07,0ZM63,112.07c-.32-.7-2.31-5-4.31-9.39-3.59-7.79-4.26-9.21-4.4-9.47l.05,0h-.07l18.3-8ZM37.66,91.5,23.54,66.29,54.17,93.13v0Zm16.43,1.73-6.94,6L37.76,91.6ZM39.82,65h0L64.4,80,54.22,93Zm7-15.33,8.5,14L39.85,64.85l-.06,0,0,0-3.81-7.42ZM35.89,57.29,28.31,42.51l18.44,7.06Zm42.77,4.48L64.46,79.93,40,64.94l38.66-3.17Zm-39.06,3L31,60.86l4.83-3.43Zm.06.13h0L23.58,66.19l0,0,7.38-5.25Zm.05.1L54.05,92.89,23.68,66.28ZM64.48,80.05,72.55,85,54.37,93Zm.06-.07L78.71,61.86,72.6,84.92Zm-9.16-16.4,0,0L47,49.64l31.48,12ZM28.32,42.42l29.47-3.55L46.84,49.5Zm-.15,0,7.64,14.89-4.88,3.47L12.2,52.37l15.94-9.92Zm2.67,18.42-7.35,5.23L23.4,66h0L9.63,54l2.47-1.54Zm-21.28-7L3.39,48.5,12,52.38ZM9.47,54,4.36,57.14l-1-8.54Zm.07.06L23.39,66.16v0l0,0L5.59,67.67,4.37,57.24Zm28,37.47L24.36,90.18l-.87-23.79ZM78.82,61.82h0L98.49,73.55h0l-.06.06L72.69,84.93Zm.24,0,19.23.23.19,11.39Zm-.44-.16L46.93,49.54l11-10.67ZM21,28.43l7.15,13.93-16,10L3.41,48.41Zm-.22.11L3.32,48.36h0l-.07,0v0l-6.94-6.08ZM-3.78,42.34l7,6.14L-15,69.16Zm7,6.24,1,8.61L-14.67,69ZM-15,69.36l.12-.14L4.28,57.29,5.5,67.67Zm20.6-1.6,17.71-1.45L8,88.47ZM8.08,88.55,23.4,66.34l.87,23.83Zm16.28,1.72,13.23,1.32L25.37,118Zm1.1,27.78,12.2-26.41,9.42,7.67ZM54.19,93.27c.49,1,7.81,16.91,8.66,18.76L47.23,99.31ZM63.09,112l9.57-26.94h0l25.6-11.25ZM98.58,73.49l-.2-11.44,25.69.31L98.64,73.53Zm26.3,15.72L98.75,73.59l25.42-11.17Zm-.62-26.83,0,0h0l20.74-9.11L125,89.16Zm.8,26.82,20.09-35.93,7,23.38Zm20.18-36,31,10.31.11.08,0,0-.61,2.14L152.25,76.61Zm17.5,58.36L152.28,76.71l23.46-10.86Zm.11-.07,13-45.71,3-1.4,15.44,5.13Zm31.53-42.06L179,64.34l29.41-13.61h0l0,0v0Zm.09,0,14-18.61,14.11,27.94Zm28.22,9.38-2.56-16.62h0l23.62,23.63Zm21.2,7L220.26,62.23l24.33-3.09.7.16Zm.1,0,1.39-26.54,7.67,20.08,0,0Zm9.14-6.51-7.64-20,26.86,6.33Zm11.8-27.24,16.35-26.07-8.76,39.53v0l0,0Z"/><path class="cls-6" d="M222,23.44a1.32,1.32,0,1,1,0,1.87A1.31,1.31,0,0,1,222,23.44Z"/><path class="cls-7" d="M185.05,28.43a1.5,1.5,0,1,1,0,2.12A1.5,1.5,0,0,1,185.05,28.43Z"/><path class="cls-7" d="M144.09,52.1a1.53,1.53,0,0,1,.83-.44,1.46,1.46,0,0,1,1.11.26,1.53,1.53,0,0,1,.62,1,1.49,1.49,0,0,1-.41,1.3,1.46,1.46,0,0,1-.82.43,1.47,1.47,0,0,1-1.12-.25,1.53,1.53,0,0,1-.62-1A1.47,1.47,0,0,1,144.09,52.1Z"/><path class="cls-6" d="M154.48,46.53a1.13,1.13,0,0,1,.59-.31,1.07,1.07,0,0,1,1,1.8,1.08,1.08,0,0,1-1.39.13,1.12,1.12,0,0,1-.44-.7A1,1,0,0,1,154.48,46.53Z"/><path class="cls-6" d="M20.19,27.58a1.15,1.15,0,0,1,.61-.33,1.11,1.11,0,0,1,1.27.91,1.11,1.11,0,0,1-.91,1.28,1.09,1.09,0,0,1-.82-.19,1.11,1.11,0,0,1-.45-.72A1.08,1.08,0,0,1,20.19,27.58Z"/><path class="cls-8" d="M27.43,41.62a1.07,1.07,0,0,1,.6-.32,1.11,1.11,0,1,1,.37,2.18,1,1,0,0,1-.82-.19,1.09,1.09,0,0,1-.45-.71A1.11,1.11,0,0,1,27.43,41.62Z"/><path class="cls-9" d="M2.46,47.68a1.07,1.07,0,0,1,.61-.32,1.1,1.1,0,0,1,1,1.86,1.07,1.07,0,0,1-.61.32,1.13,1.13,0,0,1-.82-.19,1.11,1.11,0,0,1-.45-.72A1.08,1.08,0,0,1,2.46,47.68Z"/><path class="cls-10" d="M57.13,38a1.13,1.13,0,0,1,.61-.32,1.1,1.1,0,0,1,1.27.9,1.05,1.05,0,0,1-.3,1,1.07,1.07,0,0,1-.6.32,1.1,1.1,0,0,1-.83-.19A1.1,1.1,0,0,1,57.13,38Z"/><path class="cls-11" d="M46.18,48.92a.87.87,0,0,1,.5-.26.9.9,0,0,1,1,.74.89.89,0,0,1-.25.79.89.89,0,0,1-1.18.11.91.91,0,0,1-.12-1.38Z"/><path class="cls-12" d="M35.21,56.71a.85.85,0,0,1,.5-.27.92.92,0,0,1,1,.75.89.89,0,0,1-.25.79.84.84,0,0,1-.5.26.9.9,0,0,1-1-.75A.87.87,0,0,1,35.21,56.71Z"/><path class="cls-10" d="M106.56,35.52a1.16,1.16,0,0,1,1.66,1.63,1.1,1.1,0,0,1-.64.33,1.16,1.16,0,0,1-1-2Z"/><path class="cls-8" d="M97.18,43.81a1.23,1.23,0,0,1,.67-.36,1.24,1.24,0,0,1,.9.21,1.21,1.21,0,0,1,.17,1.84,1.15,1.15,0,0,1-.67.35,1.23,1.23,0,0,1-.91-.21,1.21,1.21,0,0,1-.16-1.83Z"/><path class="cls-13" d="M122.85,42.41a1.15,1.15,0,0,1,.67-.35,1.2,1.2,0,0,1,.9.21,1.27,1.27,0,0,1,.5.79,1.24,1.24,0,0,1-.33,1,1.32,1.32,0,0,1-.67.35,1.23,1.23,0,0,1-.91-.21,1.21,1.21,0,0,1-.49-.79A1.2,1.2,0,0,1,122.85,42.41Z"/><path class="cls-9" d="M122.29,21.6a1.23,1.23,0,0,1,.67-.36,1.21,1.21,0,0,1,.9.21,1.23,1.23,0,0,1,.5.79,1.2,1.2,0,0,1-.34,1.05,1.15,1.15,0,0,1-.66.35,1.19,1.19,0,0,1-.91-.21,1.21,1.21,0,0,1-.49-.79A1.19,1.19,0,0,1,122.29,21.6Z"/><path class="cls-14" d="M207.87,49.92a.92.92,0,0,1,.53-.28,1,1,0,0,1,.72.17.92.92,0,0,1,.4.63,1,1,0,0,1-.8,1.11,1,1,0,0,1-1.11-.79A.94.94,0,0,1,207.87,49.92Z"/><path class="cls-15" d="M188.11,48.74a.89.89,0,0,1,.53-.28,1,1,0,0,1,.72.16,1,1,0,0,1,.39.64.95.95,0,0,1-.79,1.11,1,1,0,0,1-1.12-.79A.94.94,0,0,1,188.11,48.74Z"/><path class="cls-7" d="M225.72,36a1.11,1.11,0,0,1,1.46-.13,1.11,1.11,0,0,1,.46.73,1.11,1.11,0,0,1-.93,1.29,1.11,1.11,0,0,1-1.29-.92A1.13,1.13,0,0,1,225.72,36Z"/><path class="cls-13" d="M208.36,25.63a.9.9,0,0,1,.53-.27.94.94,0,0,1,.73.16,1,1,0,0,1,.13,1.47,1.08,1.08,0,0,1-.54.28,1,1,0,0,1-.85-1.64Z"/><path class="cls-16" d="M202.86,31.94a.9.9,0,0,1,.53-.27.94.94,0,0,1,.73.16,1,1,0,0,1,.13,1.47,1,1,0,0,1-.54.28,1,1,0,0,1-1.11-.79A1,1,0,0,1,202.86,31.94Z"/><path class="cls-15" d="M215.41,1A1.08,1.08,0,0,1,216,.66a1.13,1.13,0,0,1,.82.18,1.08,1.08,0,0,1,.44.72,1.11,1.11,0,0,1-.29.95,1.24,1.24,0,0,1-.61.32,1.11,1.11,0,0,1-1-1.86Z"/></g><path class="cls-17" d="M253.89-5.49h0l-7-14.08,0-.25-7.9,13.48-7-.42-17.76-7-.2-.32,4.06,26.06L207.54,31.41l-28.9,12.05,0,0,0,0h0v0L158.19,72.18,150,73.49,138,45l.14-.17-.18,0-.06-.14-.06.17L123,48.72l-4.64-5.22L110.77,26l.09-.37L95.3,46.88,74.09,53.22,45.14,41.3l0,0,0,0h0l0,0L17.14,52.08h0l0,0h0v0L2.43,78.57l-22.72,22.26-9.45-7.27.39,0-.61-.24-6.89-30.65,0-.12L-63.45,80.67-74.7,74l.79-7v-.07L-94.63,62l-.16-27.95,14.66-22,.08-.11-24.7-2.7L-96.63-10l.22-.12-28-2.33,3.07,15.82-6,3.3,0-.3-.21.39-.05,0,0,0-16.56,31.51-21.4,2.79.32-.24-.61.27-26.54-16.81-.1-.06-6,31.57-12.7,3.2-4.41-5.53,0-.06L-233.6,64.6v0l-.18.13-17.39-7.22h0l-17.29,2,26,11.73h0l.72,15.73-.08.23,12.69-9.11,6.17,3.18-4.93,34.86.18-.2,21-9.31-2.67-11.7,0,0,0,0,6.74-25,17.5-13.54,17.86.4-1.53,17.21L-153.79,57h0l0,0,30.23-18,8,2.12-.54,31-.19.09.19,0v.15l.12-.13,15.11,2.48,2.12,6.66-.19,19.1-.22.3,22.85-13.16,22,2.8L-32.69,113v0h.11l29.86,1.44,0,0,0,0h0v0l24-18.18.11.1,0-.17.34-.26-.35.11-3-31.33,10.91-9.55,21,5.09-.39.12.66,0L69.33,85.62l.07.1,17-27.29,13,1.59,2.13,6.74,0,.07,20.93-4,13.62,13v0h.06l16.49,4.23.05.1,0,0L174.8,100l.12.44,2.4-36,18.43-11.23-.18.35.44-.49,31.07,4.61.12,0-7.29-31.3,10.32-8.07,6.34,3.29L248.55,4l18.84-.45h0l15-8.86Zm.19.17,27.71.19-14.4,8.52Zm-.38-.15-5.83-.35-1-13.31Zm-7-13.8,1,13.44-8.59-.5ZM233.16,16.05l15-11.72-11.6,17Zm-.09-.14-3.64-5.74L239-6.17l8.69.51.71,9.56Zm-13.2,10.21-1.63-14L225.79,16Zm-1.61-14.2,6.5-8.78,4.47,7-3.35,5.7Zm11.07-1.59L232.94,16l-2.73,2.13L226,16Zm0-.32-4.46-7L232-6.59l6.86.41ZM231.8-6.64l-7,9.49L214.34-13.57ZM224.67,3l-6.48,8.75-3.91-25.1Zm-6.58,9.23,1.64,14.1-11.95,5Zm1.42,14.37L196.38,52.41l11.27-20.87ZM178.22,44.27,166.47,70.86l-8.05,1.29ZM158.28,72.34l7.88-1.27L153,79.73Zm-.23,0-5.33,7.5-2.63-6.22Zm-5.59,7.31L147,74.14l2.92-.47ZM146.86,74,133,59.91h0l4.92-14.73,12,28.35ZM133,60.16,146.66,74,136.22,75.7Zm-29.87.15,1.48-6.63,18.34-4.77,5.78,6.51-6.25,7.25ZM122,62.78,101.7,66.63l1.37-6.16ZM95.31,47.13l2.57,8.12-11.33,3Zm.15-.11,10.8-1.61-1.82,8.13L98,55.21Zm9,6.71-1.47,6.56-3.43-.42-1.42-4.5Zm24.41,1.81,3.9,4.39-10,2.68Zm4,4.24-3.88-4.36,8.72-10.12Zm4.82-14.7-8.81,10.21-5.71-6.43Zm-33,8.42,1.81-8.11,11.8-1.76,4.56,5.14Zm13.52-10-11.68,1.74,4.24-19Zm-7.63-17.14L106.3,45.24l-10.77,1.6ZM95.12,47.11,86.31,58.24l-12-4.92ZM86,58.28l-34.61,1.9,22.73-6.79ZM17.09,52.44,18.28,64.7,2.8,78.24ZM2.38,78.85l-3.52,24.29-11.49,3.57-7.52-5.78ZM-30.15,93.3-63.27,80.75-37,62.88ZM-120.38,7.68-105,9.36-115.3,33.75Zm4.83,25.66L-127.38,6.91l6.83.75Zm13.65,11.57L-94.85,62l-10.37-1.62Zm0-.4-13.23-10.45L-95,25.29-95,34Zm-10.57-2.77-2.86-.75.11-6.52Zm-2.64-7.45,12.86,10.16-10-2.66ZM-102,44.69l-3.33,15.52L-112.24,42Zm7,17.43-8.44,4-1.78-5.59Zm.27.06,16.73,10-4,5.46-18.71-3.07-2.65-8.3Zm.51.1L-74.13,67-77.89,72Zm16.37,10,3,1.78-.53,4.69-6.44-1.06Zm2.42,6.63-1,8.54-10.53-2.91,5-6.7Zm.17,0,11.54,1.89L-76.2,87.38Zm44.53,14.35-23.53-3L-63.13,81ZM-63.87,80.62l-11.37-1.87.52-4.62Zm-13.87-8.49,3.63-4.92-.74,6.65ZM-94.8,61.66l-7-17L-95,34.31ZM-80.34,12-94.79,33.76l0-8.6V25l-20.33,8.85,10.35-24.51ZM-104.92,9.2l-15.49-1.69-.79-4.06L-96.87-9.88Zm-19.34-21.47L-97-10-121.23,3.28Zm2.91,15.81.77,4-6.66-.73Zm-6.12,3.58,12,26.85-16.11,2.7Zm-.19.16-4.08,29.41-12.21,1.6ZM-144,38.47l12.13-1.59-21.61,19.64Zm-9.79,18.27L-165.7,41.3l21.45-2.8Zm-38.53-32.2L-166,41.22l-32.3,14.55ZM-213.61,66.9l5.38-3.86,5.36,6.71-9.5,5.39Zm4,27.75-13.15-13.42,10.27-5.82ZM-233.7,64.87l18.91-4.76,1,6.72-15.39,11-7.74-4Zm-3.37,8.94-5.21-2.69,8.35-6.1Zm22.25-13.87-18.44,4.65,17.51-10.89Zm.19.13,3.36-.85,2.94,3.69-5.3,3.81Zm11.85,9.53-5.31-6.66,9.5-6.82Zm36.32-28-18.76,14.52-12.85-.29Zm-32.38,14.49-9.36,6.72-2.9-3.63Zm-15.81,3.81-.91-6,4.17,5.22ZM-242.4,71-251,57.73l17,7.09Zm-8.84-13.36L-242.61,71l-25.25-11.4Zm8.92,13.65,5.19,2.68-4.49,12.57Zm.8,15.45L-237,74.05l7.65,3.94ZM-229,78l15.25-11,1.23,8.22-10.38,5.89Zm6.16,3.42,13.24,13.5-18.06,20.69Zm-4.64,34.23,17.93-20.54,0,.22v-.07l2.58,11.28Zm18-21.14-2.87-19.16,9.47-5.37Zm6.89-24.93L-198.38,56l12.95.29ZM-185,56.12l19-14.7-1.35,15.09Zm16.33,17.28,1.49-16.72L-154,57Zm1.5-16.88,1.34-15.06L-154,56.81Zm14-.12,21.52-19.54,7.88,2.08Zm29.6-17.58-7.71-2,15.51-2.6Zm.23.06,7.91-4.69-.12,6.75Zm8,2.28,2.93.77,7,18.52h0l-10.47,11.47Zm10,19.46,1.78,5.56-12.07,5.71Zm-10.36,11.49,12.19-5.77,2.62,8.2Zm33.58,5.68-4.94,6.68-11.5-3.18-2.09-6.54Zm-16.42,3.68,11.38,3.14-11.57,15.64Zm0,18.77L-87,84.66l10.49,2.9ZM-76,87.48l12.56-6.61,8.95,9.36Zm43.37,25.35L-54.07,90.45l23.94,3.06ZM-30,93.59l9.56,7.35-12.08,11.85Zm9.7,7.46,7.44,5.72-19.47,6.06ZM-32.13,113l19.47-6,9.7,7.46Zm29.37,1.35-9.71-7.46,11.3-3.52Zm.17,0,1.6-11,22-6.84ZM-1,103.09l3.52-24.3,18.7,17.38ZM21.31,96,2.62,78.62,18.3,64.9ZM18.43,64.56,17.24,52.28l11.92,2.89ZM29.32,55,17.43,52.15,44.66,41.61ZM45,41.51l5.5,18.68-21-5.1Zm.17,0L73.84,53.29,50.71,60.2ZM69.39,85.42l-18.58-25,35.37-2Zm17.39-27.1,11.15-2.91,1.4,4.44Zm16.12,2.13-1.33,6-2-6.38Zm19.75,2.35,10.14-2.72L136,75.55Zm13.91,13,10.24-1.64,5.63,5.71Zm16.28,4.23,13.64-9,8.23,28.68Zm22,19.46L166.62,71l10.53-6.41Zm2.34-35.16-10.45,6.37L178.52,44Zm1.55-20.67L195.81,53,177.34,64.25Zm.12-.12,28.58-11.92L195.94,52.88Zm17.31,9.37,23.63-26.38,7.21,31Zm24-26.89,5.83-9.93,4.13,2.14ZM233,16.15l3.27,5.16-5.92-3.09Zm14.85-21.8,5.86.35-5.17,9Zm6,.41,13.22,8.65-18.47.44Z"/><path class="cls-14" d="M216.78,12.6a1.5,1.5,0,1,1,2,.7A1.5,1.5,0,0,1,216.78,12.6Z"/><path class="cls-10" d="M194.79,53.56a1.31,1.31,0,1,1,1.75.61A1.31,1.31,0,0,1,194.79,53.56Z"/><path class="cls-15" d="M226,58.11a1.17,1.17,0,0,1,2.11-1,1.17,1.17,0,0,1-.56,1.56A1.16,1.16,0,0,1,226,58.11Z"/><path class="cls-16" d="M206.55,32a1.17,1.17,0,1,1,1.56.56A1.17,1.17,0,0,1,206.55,32Z"/><path class="cls-9" d="M224,3.36a.84.84,0,1,1,1.11.39A.83.83,0,0,1,224,3.36Z"/><path class="cls-13" d="M228.62,10.51a.84.84,0,1,1,1.11.4A.84.84,0,0,1,228.62,10.51Z"/><path class="cls-9" d="M219.07,26.73a.83.83,0,1,1,1.5-.71.83.83,0,1,1-1.5.71Z"/><path class="cls-18" d="M177.74,44a1,1,0,1,1,1.32.47A1,1,0,0,1,177.74,44Z"/><path class="cls-13" d="M94.1,46.51a1.32,1.32,0,1,1,.81,1.69A1.33,1.33,0,0,1,94.1,46.51Z"/><path class="cls-6" d="M49.24,59.8a1.5,1.5,0,1,1,.92,1.92A1.49,1.49,0,0,1,49.24,59.8Z"/><path class="cls-16" d="M121.84,48.42a1.17,1.17,0,1,1,.71,1.49A1.17,1.17,0,0,1,121.84,48.42Z"/><path class="cls-19" d="M103.42,53.23a1.16,1.16,0,1,1,2.19.77,1.16,1.16,0,1,1-2.19-.77Z"/><path class="cls-11" d="M136.77,44.54a1.16,1.16,0,1,1,.71,1.49A1.16,1.16,0,0,1,136.77,44.54Z"/><path class="cls-12" d="M117.17,43.15a1.17,1.17,0,1,1,.71,1.49A1.17,1.17,0,0,1,117.17,43.15Z"/><path class="cls-13" d="M16.05,51.78a1.17,1.17,0,0,1,2.2.77,1.18,1.18,0,0,1-1.49.72A1.16,1.16,0,0,1,16.05,51.78Z"/><path class="cls-7" d="M132.12,59.69a.83.83,0,1,1,1.57.55.84.84,0,0,1-1.07.51A.82.82,0,0,1,132.12,59.69Z"/><path class="cls-16" d="M109.9,25.68a.83.83,0,0,1,1.06-.51.83.83,0,0,1-.55,1.57A.84.84,0,0,1,109.9,25.68Z"/><path class="cls-8" d="M105.62,45a.83.83,0,1,1,.51,1.06A.83.83,0,0,1,105.62,45Z"/><path class="cls-20" d="M128.06,55.11a.84.84,0,0,1,1.06-.51.85.85,0,0,1,.51,1.07.83.83,0,0,1-1.07.5A.82.82,0,0,1,128.06,55.11Z"/><path class="cls-10" d="M85.55,58.07a.83.83,0,1,1,.51,1.06A.83.83,0,0,1,85.55,58.07Z"/><path class="cls-15" d="M44.28,41.09a.84.84,0,1,1,.51,1.06A.84.84,0,0,1,44.28,41.09Z"/><path class="cls-9" d="M73.32,53a.83.83,0,1,1,.51,1.06A.84.84,0,0,1,73.32,53Z"/><path class="cls-14" d="M57.5,46.52A.83.83,0,0,1,58.56,46a.84.84,0,0,1,.51,1.06.83.83,0,1,1-1.57-.55Z"/><path class="cls-11" d="M47.46,51.91a.84.84,0,0,1,1.58.55.84.84,0,0,1-1.58-.55Z"/><path class="cls-19" d="M28.59,54.8a.82.82,0,0,1,1.06-.51.83.83,0,1,1-.56,1.57A.82.82,0,0,1,28.59,54.8Z"/></g></svg>