<?xml version="1.0" encoding="UTF-8" standalone="no"?>
<!-- Created with Inkscape (http://www.inkscape.org/) -->

<svg
   width="192.74097mm"
   height="49.247101mm"
   viewBox="0 0 192.74097 49.247101"
   version="1.1"
   id="svg5"
   inkscape:version="1.1 (c4e8f9e, 2021-05-24)"
   sodipodi:docname="transfer_cred-jupyter_logo.svg"
   xmlns:inkscape="http://www.inkscape.org/namespaces/inkscape"
   xmlns:sodipodi="http://sodipodi.sourceforge.net/DTD/sodipodi-0.dtd"
   xmlns:xlink="http://www.w3.org/1999/xlink"
   xmlns="http://www.w3.org/2000/svg"
   xmlns:svg="http://www.w3.org/2000/svg"
   xmlns:figma="http://www.figma.com/figma/ns">
  <sodipodi:namedview
     id="namedview7"
     pagecolor="#ffffff"
     bordercolor="#666666"
     borderopacity="1.0"
     inkscape:pageshadow="2"
     inkscape:pageopacity="0.0"
     inkscape:pagecheckerboard="0"
     inkscape:document-units="mm"
     showgrid="false"
     units="mm"
     inkscape:zoom="0.51045875"
     inkscape:cx="244.87777"
     inkscape:cy="541.66963"
     inkscape:window-width="1529"
     inkscape:window-height="1003"
     inkscape:window-x="0"
     inkscape:window-y="23"
     inkscape:window-maximized="0"
     inkscape:current-layer="layer1"
     height="100mm" />
  <defs
     id="defs2">
    <marker
       style="overflow:visible"
       id="Arrow2Lstart"
       refX="0"
       refY="0"
       orient="auto"
       inkscape:stockid="Arrow2Lstart"
       inkscape:isstock="true">
      <path
         transform="matrix(1.1,0,0,1.1,1.1,0)"
         d="M 8.7185878,4.0337352 -2.2072895,0.01601326 8.7185884,-4.0017078 c -1.7454984,2.3720609 -1.7354408,5.6174519 -6e-7,8.035443 z"
         style="fill:context-stroke;fill-rule:evenodd;stroke-width:0.625;stroke-linejoin:round"
         id="path2532" />
    </marker>
    <marker
       style="overflow:visible"
       id="Arrow2Lend"
       refX="0"
       refY="0"
       orient="auto"
       inkscape:stockid="Arrow2Lend"
       inkscape:isstock="true">
      <path
         transform="matrix(-1.1,0,0,-1.1,-1.1,0)"
         d="M 8.7185878,4.0337352 -2.2072895,0.01601326 8.7185884,-4.0017078 c -1.7454984,2.3720609 -1.7354408,5.6174519 -6e-7,8.035443 z"
         style="fill:context-stroke;fill-rule:evenodd;stroke-width:0.625;stroke-linejoin:round"
         id="path2535" />
    </marker>
    <marker
       style="overflow:visible"
       id="TriangleInL"
       refX="0"
       refY="0"
       orient="auto"
       inkscape:stockid="TriangleInL"
       inkscape:isstock="true">
      <path
         transform="scale(-0.8)"
         style="fill:context-stroke;fill-rule:evenodd;stroke:context-stroke;stroke-width:1pt"
         d="M 5.77,0 -2.88,5 V -5 Z"
         id="path2647" />
    </marker>
    <marker
       style="overflow:visible"
       id="Arrow1Lstart"
       refX="0"
       refY="0"
       orient="auto"
       inkscape:stockid="Arrow1Lstart"
       inkscape:isstock="true">
      <path
         transform="matrix(0.8,0,0,0.8,10,0)"
         style="fill:context-stroke;fill-rule:evenodd;stroke:context-stroke;stroke-width:1pt"
         d="M 0,0 5,-5 -12.5,0 5,5 Z"
         id="path2514" />
    </marker>
    <marker
       style="overflow:visible"
       id="Arrow1Lend"
       refX="0"
       refY="0"
       orient="auto"
       inkscape:stockid="Arrow1Lend"
       inkscape:isstock="true">
      <path
         transform="matrix(-0.8,0,0,-0.8,-10,0)"
         style="fill:context-stroke;fill-rule:evenodd;stroke:context-stroke;stroke-width:1pt"
         d="M 0,0 5,-5 -12.5,0 5,5 Z"
         id="path2517" />
    </marker>
    <symbol
       id="u"
       overflow="visible">
      <path
         d="m 18.766,-1.125 c -0.96875,0.5 -1.9805,0.875 -3.0312,1.125 -1.043,0.25781 -2.1367,0.39062 -3.2812,0.39062 -3.3984,0 -6.0898,-0.94531 -8.0781,-2.8438 -1.9922,-1.9062 -2.9844,-4.4844 -2.9844,-7.7344 0,-3.2578 0.99219,-5.8359 2.9844,-7.7344 1.9883,-1.9062 4.6797,-2.8594 8.0781,-2.8594 1.1445,0 2.2383,0.13281 3.2812,0.39062 1.0508,0.25 2.0625,0.625 3.0312,1.125 v 4.2188 c -0.98047,-0.65625 -1.9453,-1.1406 -2.8906,-1.4531 -0.94922,-0.3125 -1.9492,-0.46875 -3,-0.46875 -1.875,0 -3.3516,0.60547 -4.4219,1.8125 -1.0742,1.1992 -1.6094,2.8555 -1.6094,4.9688 0,2.1055 0.53516,3.7617 1.6094,4.9688 1.0703,1.1992 2.5469,1.7969 4.4219,1.7969 1.0508,0 2.0508,-0.14844 3,-0.45312 0.94531,-0.3125 1.9102,-0.80078 2.8906,-1.4688 z"
         id="path824" />
    </symbol>
    <symbol
       id="c"
       overflow="visible">
      <path
         d="m 13.734,-11.141 c -0.4375,-0.19531 -0.87109,-0.34375 -1.2969,-0.4375 -0.41797,-0.10156 -0.83984,-0.15625 -1.2656,-0.15625 -1.2617,0 -2.2305,0.40625 -2.9062,1.2188 -0.67969,0.80469 -1.0156,1.9531 -1.0156,3.4531 v 7.0625 H 2.3591 v -15.312 h 4.8906 v 2.5156 c 0.625,-1 1.3438,-1.7266 2.1562,-2.1875 0.82031,-0.46875 1.8008,-0.70312 2.9375,-0.70312 0.16406,0 0.34375,0.01172 0.53125,0.03125 0.19531,0.01172 0.47656,0.03906 0.84375,0.07813 z"
         id="path827" />
    </symbol>
    <symbol
       id="a"
       overflow="visible">
      <path
         d="m 17.641,-7.7031 v 1.4062 H 6.188 c 0.125,1.1484 0.53906,2.0078 1.25,2.5781 0.70703,0.57422 1.7031,0.85938 2.9844,0.85938 1.0312,0 2.082,-0.14844 3.1562,-0.45312 1.082,-0.3125 2.1914,-0.77344 3.3281,-1.3906 v 3.7656 c -1.1562,0.4375 -2.3125,0.76562 -3.4688,0.98438 -1.1562,0.22656 -2.3125,0.34375 -3.4688,0.34375 -2.7734,0 -4.9297,-0.70312 -6.4688,-2.1094 -1.5312,-1.4062 -2.2969,-3.3789 -2.2969,-5.9219 0,-2.5 0.75391,-4.4609 2.2656,-5.8906 1.5078,-1.4375 3.582,-2.1562 6.2188,-2.1562 2.4062,0 4.332,0.73047 5.7812,2.1875 1.4453,1.4492 2.1719,3.3828 2.1719,5.7969 z m -5.0312,-1.625 c 0,-0.92578 -0.27344,-1.6719 -0.8125,-2.2344 -0.54297,-0.57031 -1.25,-0.85938 -2.125,-0.85938 -0.94922,0 -1.7188,0.26562 -2.3125,0.79688 -0.5937,0.53126 -0.96484,1.2969 -1.1094,2.2969 z"
         id="path830" />
    </symbol>
    <symbol
       id="f"
       overflow="visible">
      <path
         d="m 9.2188,-6.8906 c -1.0234,0 -1.793,0.17188 -2.3125,0.51562 -0.51172,0.34375 -0.76562,0.85547 -0.76562,1.5312 0,0.625 0.20703,1.1172 0.625,1.4688 0.41406,0.34375 0.98828,0.51562 1.7188,0.51562 0.92578,0 1.7031,-0.32812 2.3281,-0.98438 0.63281,-0.66406 0.95312,-1.4922 0.95312,-2.4844 v -0.5625 z m 7.4688,-1.8438 V 0 h -4.9219 v -2.2656 c -0.65625,0.92969 -1.3984,1.6055 -2.2188,2.0312 -0.82422,0.41406 -1.8242,0.625 -3,0.625 -1.5859,0 -2.8711,-0.45703 -3.8594,-1.375 -0.99219,-0.92578 -1.4844,-2.1289 -1.4844,-3.6094 0,-1.7891 0.61328,-3.1016 1.8438,-3.9375 1.2383,-0.84375 3.1797,-1.2656 5.8281,-1.2656 h 2.8906 v -0.39062 c 0,-0.76953 -0.30859,-1.332 -0.92188,-1.6875 -0.61719,-0.36328 -1.5703,-0.54688 -2.8594,-0.54688 -1.0547,0 -2.0312,0.10547 -2.9375,0.3125 -0.89844,0.21094 -1.7305,0.52344 -2.5,0.9375 v -3.7344 c 1.0391,-0.25 2.0859,-0.44141 3.1406,-0.57812 1.0625,-0.13281 2.125,-0.20312 3.1875,-0.20312 2.7578,0 4.75,0.54688 5.9688,1.6406 1.2266,1.0859 1.8438,2.8555 1.8438,5.3125 z"
         id="path833" />
    </symbol>
    <symbol
       id="b"
       overflow="visible">
      <path
         d="m 7.7031,-19.656 v 4.3438 H 12.75 v 3.5 H 7.7031 v 6.5 c 0,0.71094 0.14062,1.1875 0.42188,1.4375 0.28126,0.25 0.83594,0.375 1.6719,0.375 h 2.5156 v 3.5 h -4.1875 c -1.9375,0 -3.3125,-0.39844 -4.125,-1.2031 -0.80469,-0.8125 -1.2031,-2.1797 -1.2031,-4.1094 v -6.5 h -2.4219 v -3.5 h 2.4219 v -4.3438 z"
         id="path836" />
    </symbol>
    <symbol
       id="l"
       overflow="visible">
      <path
         d="m 12.766,-13.078 v -8.2031 h 4.9219 V -1e-4 H 12.766 v -2.2188 c -0.66797,0.90625 -1.4062,1.5703 -2.2188,1.9844 -0.8126,0.4141 -1.7578,0.625 -2.8281,0.625 -1.8867,0 -3.4336,-0.75 -4.6406,-2.25 -1.2109,-1.5 -1.8125,-3.4258 -1.8125,-5.7812 0,-2.3633 0.60156,-4.2969 1.8125,-5.7969 1.207,-1.5 2.7539,-2.25 4.6406,-2.25 1.0625,0 2,0.21484 2.8125,0.64062 0.82031,0.42969 1.5664,1.0859 2.2344,1.9688 z m -3.2188,9.9219 c 1.0391,0 1.8359,-0.37891 2.3906,-1.1406 0.55078,-0.76953 0.82812,-1.8828 0.82812,-3.3438 0,-1.457 -0.27734,-2.5664 -0.82812,-3.3281 -0.55469,-0.76953 -1.3516,-1.1562 -2.3906,-1.1562 -1.043,0 -1.8398,0.38672 -2.3906,1.1562 -0.55469,0.76172 -0.82812,1.8711 -0.82812,3.3281 0,1.4609 0.27344,2.5742 0.82812,3.3438 0.55078,0.76172 1.3477,1.1406 2.3906,1.1406 z"
         id="path839" />
    </symbol>
    <symbol
       id="k"
       overflow="visible">
      <path
         d="m 10.5,-3.1562 c 1.0508,0 1.8516,-0.37891 2.4062,-1.1406 0.55078,-0.76953 0.82812,-1.8828 0.82812,-3.3438 0,-1.457 -0.27734,-2.5664 -0.82812,-3.3281 -0.55469,-0.76953 -1.3555,-1.1562 -2.4062,-1.1562 -1.0547,0 -1.8594,0.38672 -2.4219,1.1562 -0.55469,0.77344 -0.82812,1.8828 -0.82812,3.3281 0,1.4492 0.27344,2.5586 0.82812,3.3281 0.5625,0.77344 1.3672,1.1562 2.4219,1.1562 z m -3.25,-9.9219 c 0.67578,-0.88281 1.4219,-1.5391 2.2344,-1.9688 0.82031,-0.42578 1.7656,-0.64062 2.8281,-0.64062 1.8945,0 3.4453,0.75 4.6562,2.25 1.207,1.5 1.8125,3.4336 1.8125,5.7969 0,2.3555 -0.60547,4.2812 -1.8125,5.7812 -1.2109,1.5 -2.7617,2.25 -4.6562,2.25 -1.0625,0 -2.0078,-0.21094 -2.8281,-0.625 C 8.6719,-0.6602 7.9258,-1.32032 7.25,-2.21882 V -2e-5 H 2.3594 v -21.281 H 7.25 Z"
         id="path842" />
    </symbol>
    <symbol
       id="e"
       overflow="visible">
      <path
         d="m 0.34375,-15.312 h 4.8906 l 4.125,10.391 3.5,-10.391 h 4.8906 l -6.4375,16.766 c -0.64844,1.6953 -1.4023,2.8828 -2.2656,3.5625 -0.86719,0.6875 -2,1.0312 -3.4062,1.0312 H 2.79685 V 2.8289 h 1.5312 c 0.83203,0 1.4375,-0.13672 1.8125,-0.40625 C 6.52336,2.16093 6.82024,1.69218 7.03117,1.01645 L 7.17179,0.59457 Z"
         id="path845" />
    </symbol>
    <symbol
       id="j"
       overflow="visible">
      <path
         d="m 16.781,-19.766 v 4.3125 c -1.125,-0.5 -2.2266,-0.875 -3.2969,-1.125 -1.0625,-0.25781 -2.0703,-0.39062 -3.0156,-0.39062 -1.25,0 -2.1797,0.17969 -2.7812,0.53125 -0.60547,0.34375 -0.90625,0.88281 -0.90625,1.6094 0,0.54297 0.20312,0.96875 0.60938,1.2812 0.40625,0.30469 1.1406,0.5625 2.2031,0.78125 l 2.25,0.45312 c 2.2695,0.44922 3.8789,1.1406 4.8281,2.0781 0.95703,0.92969 1.4375,2.2461 1.4375,3.9531 0,2.25 -0.66797,3.9297 -2,5.0312 -1.3359,1.0938 -3.3711,1.6406 -6.1094,1.6406 -1.3047,0 -2.6055,-0.125 -3.9062,-0.375 -1.3047,-0.23828 -2.6055,-0.59766 -3.9062,-1.0781 v -4.4531 c 1.3008,0.69922 2.5625,1.2266 3.7812,1.5781 1.2188,0.34375 2.3906,0.51562 3.5156,0.51562 1.1562,0 2.0352,-0.1875 2.6406,-0.5625 0.61328,-0.38281 0.92188,-0.9375 0.92188,-1.6562 0,-0.63281 -0.21094,-1.125 -0.625,-1.4688 -0.41797,-0.34375 -1.2461,-0.65625 -2.4844,-0.9375 l -2.0312,-0.4375 c -2.043,-0.4375 -3.5391,-1.1328 -4.4844,-2.0938 -0.9375,-0.95703 -1.4062,-2.25 -1.4062,-3.875 0,-2.0312 0.65625,-3.5938 1.9688,-4.6875 1.31255,-1.0937 3.1953,-1.6406 5.6562,-1.6406 1.125,0 2.2734,0.08594 3.4531,0.25 1.1875,0.16797 2.4141,0.42188 3.6875,0.76562 z"
         id="path848" />
    </symbol>
    <symbol
       id="t"
       overflow="visible">
      <path
         d="m 12.766,-2.5938 c -0.66797,0.88672 -1.4062,1.543 -2.2188,1.9688 C 9.7347,-0.20703 8.7894,0 7.7191,0 5.8519,0 4.3129,-0.73438 3.0941,-2.2031 1.8753,-3.6797 1.266,-5.5547 1.266,-7.8281 c 0,-2.2891 0.60938,-4.1641 1.8281,-5.625 1.2188,-1.4688 2.7578,-2.2031 4.625,-2.2031 1.0703,0 2.0156,0.21484 2.8281,0.64062 0.8125,0.41797 1.5508,1.0742 2.2188,1.9688 v -2.2656 h 4.9219 v 13.766 c 0,2.457 -0.77734,4.3359 -2.3281,5.6406 -1.5547,1.3008 -3.8086,1.9531 -6.7656,1.9531 -0.94922,0 -1.8711,-0.074219 -2.7656,-0.21875 C 4.93016,5.68013 4.0317,5.45748 3.1255,5.15669 v -3.8125 c 0.86328,0.48828 1.7031,0.85156 2.5156,1.0938 0.82031,0.23828 1.6484,0.35938 2.4844,0.35938 1.6016,0 2.7734,-0.35156 3.5156,-1.0469 0.75,-0.69922 1.125,-1.7969 1.125,-3.2969 z M 9.5472,-12.125 c -1.0117,0 -1.8047,0.375 -2.375,1.125 -0.5625,0.74219 -0.84375,1.7969 -0.84375,3.1719 0,1.3984 0.26953,2.4609 0.8125,3.1875 0.55078,0.71875 1.3516,1.0781 2.4062,1.0781 1.0195,0 1.8125,-0.36719 2.375,-1.1094 0.5625,-0.75 0.84375,-1.8008 0.84375,-3.1562 0,-1.375 -0.28125,-2.4297 -0.84375,-3.1719 -0.5625,-0.75 -1.3555,-1.125 -2.375,-1.125 z"
         id="path851" />
    </symbol>
    <symbol
       id="i"
       overflow="visible">
      <path
         d="m 2.5781,-20.406 h 8.7344 c 2.5938,0 4.582,0.57812 5.9688,1.7344 1.3945,1.1484 2.0938,2.7891 2.0938,4.9219 0,2.1367 -0.69922,3.7812 -2.0938,4.9375 -1.3867,1.1562 -3.375,1.7344 -5.9688,1.7344 H 7.8281 V 3e-4 h -5.25 z m 5.25,3.8125 v 5.7031 H 10.75 c 1.0195,0 1.8047,-0.25 2.3594,-0.75 0.5625,-0.5 0.84375,-1.2031 0.84375,-2.1094 0,-0.91406 -0.28125,-1.6172 -0.84375,-2.1094 -0.55469,-0.48828 -1.3398,-0.73438 -2.3594,-0.73438 z"
         id="path854" />
    </symbol>
    <symbol
       id="h"
       overflow="visible">
      <path
         d="m 2.1875,-5.9688 v -9.3438 h 4.9219 v 1.5312 c 0,0.83594 -0.00781,1.875 -0.015625,3.125 -0.011719,1.25 -0.015625,2.0859 -0.015625,2.5 0,1.2422 0.03125,2.1328 0.09375,2.6719 0.070313,0.54297 0.17969,0.93359 0.32812,1.1719 0.20703,0.32422 0.47266,0.57422 0.79688,0.75 0.32031,0.16797 0.69141,0.25 1.1094,0.25 1.0195,0 1.8203,-0.39062 2.4062,-1.1719 0.58203,-0.78125 0.875,-1.8672 0.875,-3.2656 v -7.5625 h 4.8906 V -6e-4 H 12.6875 V -2.2194 C 11.94531,-1.32096 11.1641,-0.6608 10.3437,-0.235 9.51948,0.17906 8.6093,0.39 7.6093,0.39 5.8476,0.39 4.5038,-0.14906 3.5781,-1.235 2.64841,-2.317 2.1875,-3.8952 2.1875,-5.9694 Z"
         id="path857" />
    </symbol>
    <symbol
       id="s"
       overflow="visible">
      <path
         d="M 2.3594,-15.312 H 7.25 V 0 H 2.3594 Z m 0,-5.9688 H 7.25 v 4 H 2.3594 Z"
         id="path860" />
    </symbol>
    <symbol
       id="g"
       overflow="visible">
      <path
         d="M 17.75,-9.3281 V 0 h -4.9219 v -7.1406 c 0,-1.3203 -0.03125,-2.2344 -0.09375,-2.7344 -0.0625,-0.5 -0.16797,-0.86719 -0.3125,-1.1094 -0.1875,-0.3125 -0.44922,-0.55469 -0.78125,-0.73438 -0.32422,-0.17578 -0.69531,-0.26562 -1.1094,-0.26562 -1.0234,0 -1.8242,0.39844 -2.4062,1.1875 -0.58594,0.78125 -0.875,1.8711 -0.875,3.2656 V -1e-4 H 2.3594 v -15.312 H 7.25 v 2.2344 c 0.73828,-0.88281 1.5195,-1.5391 2.3438,-1.9688 0.83203,-0.42578 1.75,-0.64062 2.75,-0.64062 1.7695,0 3.1133,0.54688 4.0312,1.6406 0.91406,1.0859 1.375,2.6562 1.375,4.7188 z"
         id="path863" />
    </symbol>
    <symbol
       id="r"
       overflow="visible">
      <path
         d="m 12.422,-21.281 v 3.2188 H 9.7189 c -0.6875,0 -1.1719,0.125 -1.4531,0.375 -0.27344,0.25 -0.40625,0.6875 -0.40625,1.3125 v 1.0625 h 4.1875 v 3.5 H 7.85955 V -2e-4 h -4.8906 v -11.812 h -2.4375 v -3.5 h 2.4375 v -1.0625 c 0,-1.6641 0.46094,-2.8984 1.3906,-3.7031 0.92578,-0.80078 2.3672,-1.2031 4.3281,-1.2031 z"
         id="path866" />
    </symbol>
    <symbol
       id="d"
       overflow="visible">
      <path
         d="m 9.6406,-12.188 c -1.0859,0 -1.9141,0.39062 -2.4844,1.1719 -0.57422,0.78125 -0.85938,1.9062 -0.85938,3.375 0,1.4688 0.28516,2.5938 0.85938,3.375 0.57031,0.77344 1.3984,1.1562 2.4844,1.1562 1.0625,0 1.875,-0.38281 2.4375,-1.1562 0.57031,-0.78125 0.85938,-1.9062 0.85938,-3.375 0,-1.4688 -0.28906,-2.5938 -0.85938,-3.375 -0.5625,-0.78125 -1.375,-1.1719 -2.4375,-1.1719 z m 0,-3.5 c 2.6328,0 4.6914,0.71484 6.1719,2.1406 1.4766,1.418 2.2188,3.3867 2.2188,5.9062 0,2.5117 -0.74219,4.4805 -2.2188,5.9062 C 14.332,-0.317 12.2734,0.39 9.6406,0.39 6.9922,0.39 4.9258,-0.31703 3.4375,-1.735 1.9453,-3.1608 1.2031,-5.1295 1.2031,-7.6412 c 0,-2.5195 0.74219,-4.4883 2.2344,-5.9062 1.4883,-1.4258 3.5547,-2.1406 6.2031,-2.1406 z"
         id="path869" />
    </symbol>
    <symbol
       id="q"
       overflow="visible">
      <path
         d="m 16.547,-12.766 c 0.61328,-0.94531 1.3477,-1.6719 2.2031,-2.1719 0.85156,-0.5 1.7891,-0.75 2.8125,-0.75 1.7578,0 3.0977,0.54688 4.0156,1.6406 0.92578,1.0859 1.3906,2.6562 1.3906,4.7188 V -4e-4 h -4.9219 v -7.9844 -0.35938 c 0.0078,-0.13281 0.01563,-0.32031 0.01563,-0.5625 0,-1.082 -0.16406,-1.8633 -0.48438,-2.3438 -0.3125,-0.48828 -0.82422,-0.73438 -1.5312,-0.73438 -0.92969,0 -1.6484,0.38672 -2.1562,1.1562 -0.51172,0.76172 -0.77344,1.8672 -0.78125,3.3125 v 7.5156 h -4.9219 v -7.9844 c 0,-1.6953 -0.14844,-2.7852 -0.4375,-3.2656 -0.29297,-0.48828 -0.8125,-0.73438 -1.5625,-0.73438 -0.9375,0 -1.6641,0.38672 -2.1719,1.1562 -0.51172,0.76172 -0.76562,1.8594 -0.76562,3.2969 v 7.5312 h -4.9219 v -15.312 h 4.9219 v 2.2344 c 0.60156,-0.86328 1.2891,-1.5156 2.0625,-1.9531 0.78125,-0.4375 1.6406,-0.65625 2.5781,-0.65625 1.0625,0 2,0.25781 2.8125,0.76562 0.8125,0.51172 1.4258,1.2305 1.8438,2.1562 z"
         id="path872" />
    </symbol>
    <symbol
       id="p"
       overflow="visible">
      <path
         d="M 17.75,-9.3281 V 0 h -4.9219 v -7.1094 c 0,-1.3438 -0.03125,-2.2656 -0.09375,-2.7656 -0.0625,-0.5 -0.16797,-0.86719 -0.3125,-1.1094 -0.1875,-0.3125 -0.44922,-0.55469 -0.78125,-0.73438 -0.32422,-0.17578 -0.69531,-0.26562 -1.1094,-0.26562 -1.0234,0 -1.8242,0.39844 -2.4062,1.1875 -0.58594,0.78125 -0.875,1.8711 -0.875,3.2656 V -1e-4 H 2.3594 v -21.281 H 7.25 v 8.2031 c 0.73828,-0.88281 1.5195,-1.5391 2.3438,-1.9688 0.83203,-0.42578 1.75,-0.64062 2.75,-0.64062 1.7695,0 3.1133,0.54688 4.0312,1.6406 0.91406,1.0859 1.375,2.6562 1.375,4.7188 z"
         id="path875" />
    </symbol>
    <symbol
       id="o"
       overflow="visible">
      <path
         d="m 2.5781,-20.406 h 5.875 l 7.4219,14 v -14 h 4.9844 V 0 h -5.875 L 7.5625,-14 V 0 H 2.5781 Z"
         id="path878" />
    </symbol>
    <symbol
       id="n"
       overflow="visible">
      <path
         d="M 2.3594,-15.312 H 7.25 v 15.031 c 0,2.0508 -0.49609,3.6172 -1.4844,4.7031 -0.98047,1.082 -2.4062,1.625 -4.2812,1.625 H -0.9375 V 2.8283 h 0.85938 c 0.92578,0 1.5625,-0.21094 1.9062,-0.625 0.35156,-0.41797 0.53125,-1.2461 0.53125,-2.4844 z m 0,-5.9688 H 7.25 v 4 H 2.3594 Z"
         id="path881" />
    </symbol>
    <symbol
       id="m"
       overflow="visible">
      <path
         d="m 14.719,-14.828 v 3.9844 c -0.65625,-0.45703 -1.3242,-0.79688 -2,-1.0156 -0.66797,-0.21875 -1.3594,-0.32812 -2.0781,-0.32812 -1.3672,0 -2.4336,0.40234 -3.2031,1.2031 -0.76172,0.79297 -1.1406,1.9062 -1.1406,3.3438 0,1.4297 0.37891,2.543 1.1406,3.3438 0.76953,0.79297 1.8359,1.1875 3.2031,1.1875 0.75781,0 1.4844,-0.10938 2.1719,-0.32812 0.6875,-0.22656 1.3203,-0.56641 1.9062,-1.0156 v 4 c -0.76172,0.28125 -1.5391,0.48828 -2.3281,0.625 -0.78125,0.14453 -1.5742,0.21875 -2.375,0.21875 -2.7617,0 -4.9219,-0.70703 -6.4844,-2.125 -1.5547,-1.4141 -2.3281,-3.3828 -2.3281,-5.9062 0,-2.5312 0.77344,-4.5039 2.3281,-5.9219 1.5625,-1.4141 3.7227,-2.125 6.4844,-2.125 0.80078,0 1.5938,0.07422 2.375,0.21875 0.78125,0.13672 1.5547,0.35156 2.3281,0.64062 z"
         id="path884" />
    </symbol>
    <clipPath
       clipPathUnits="userSpaceOnUse"
       id="clipPath1985">
      <rect
         style="opacity:0;fill:#52adc8;fill-opacity:1;stroke:#aa0000;stroke-width:1.93323"
         id="rect1987"
         width="563.79584"
         height="430.94101"
         x="64.752792"
         y="74.800636" />
    </clipPath>
    <path
       id="path0_fill"
       d="m 1.74498,5.47533 c 0,1.55802 -0.12464,2.06549 -0.44515,2.43941 C 0.943119,8.23595 0.480024,8.41358 0,8.41331 L 0.124642,9.3036 C 0.86884,9.31366 1.59095,9.05078 2.15452,8.56466 2.45775,8.19487 2.6834,7.76781 2.818,7.30893 2.95261,6.85005 2.99341,6.36876 2.93798,5.89377 V 0 h -1.193 v 5.43972 z" />
    <path
       id="path1_fill"
       d="m 5.50204,4.76309 c 0,0.66772 0,1.26422 0.05341,1.78059 H 4.496 L 4.42478,5.48423 C 4.20318,5.85909 3.88627,6.16858 3.50628,6.38125 3.12628,6.59392 2.69675,6.70219 2.26135,6.69503 1.22861,6.69503 0,6.13415 0,3.84608 V 0.0445149 H 1.193 V 3.6057 c 0,1.23752 0.38283,2.06549 1.46009,2.06549 C 2.87472,5.67358 3.09459,5.63168 3.29982,5.54796 3.50505,5.46424 3.69149,5.34039 3.84822,5.18366 4.00494,5.02694 4.1288,4.84049 4.21252,4.63527 4.29623,4.43004 4.33813,4.21016 4.33575,3.98853 V 0 h 1.19299 v 4.72748 z" />
    <path
       id="path2_fill"
       d="m 0.0534178,2.27264 c 0,-0.82798 0,-1.504604 -0.0534178,-2.118909 H 1.06836 L 1.12177,1.2666 C 1.3598,0.864535 1.70247,0.534594 2.11325,0.311954 2.52404,0.0893145 2.98754,-0.0176786 3.45435,0.00238095 c 1.58473,0 2.77773,1.32653905 2.77773,3.30299905 0,2.33258 -1.43338,3.48997 -2.9825,3.48997 C 2.85309,6.81304 2.45874,6.7281 2.10469,6.54874 1.75064,6.36937 1.44888,6.10166 1.22861,5.77151 v 0 3.56118 H 0.0534178 V 2.29935 Z M 1.22861,4.00872 c 0.00323,0.16154 0.02111,0.32245 0.05342,0.48076 0.10101,0.39531 0.33096,0.74565 0.65345,0.99558 0.3225,0.24994 0.71913,0.3852 1.12714,0.38438 1.25532,0 1.99427,-1.02384 1.99427,-2.51064 0,-1.29983 -0.69443,-2.412704 -1.94975,-2.412704 C 2.61036,0.986777 2.14548,1.20726 1.79965,1.5662 1.45382,1.92514 1.25079,2.3979 1.22861,2.89585 Z" />
    <path
       id="path3_fill"
       d="M 1.31764,0.0178059 2.75102,3.85499 C 2.90237,4.28233 3.06262,4.7987 3.16946,5.18153 3.2941,4.7898 3.42764,4.29123 3.5879,3.82828 L 4.88773,0.0178059 H 6.14305 L 4.36246,4.64735 C 3.47216,6.87309 2.92908,8.02158 2.11,8.71601 1.69745,9.09283 1.19448,9.35658 0.649917,9.48166 L 0.356119,8.48453 C 0.736886,8.35942 1.09038,8.16304 1.39777,7.90584 1.8321,7.55188 2.17678,7.10044 2.4038,6.5882 2.45239,6.49949 2.48551,6.40314 2.50173,6.3033 2.49161,6.19586 2.46457,6.0907 2.42161,5.9917 L 0,0 h 1.29983 z" />
    <path
       id="path4_fill"
       d="M 2.19013,0 V 1.86962 H 3.8995 v 0.8903 H 2.19013 v 3.50777 c 0,0.80127 0.23148,1.26422 0.8903,1.26422 C 3.31442,7.53574 3.54789,7.5088 3.77486,7.45179 L 3.82828,8.34208 C 3.48794,8.45999 3.12881,8.51431 2.76882,8.50234 2.53042,8.51726 2.29161,8.48043 2.06878,8.39437 1.84595,8.30831 1.64438,8.17506 1.47789,8.00377 1.11525,7.51873 0.949826,6.91431 1.01494,6.31221 V 2.75102 H 0 V 1.86072 H 1.03274 V 0.275992 Z" />
    <path
       id="path5_fill"
       d="M 1.17716,3.57899 C 1.153,3.88093 1.19468,4.18451 1.29933,4.46876 1.40398,4.75301 1.5691,5.01114 1.78329,5.22532 1.99747,5.43951 2.2556,5.60463 2.53985,5.70928 2.8241,5.81393 3.12768,5.85561 3.42962,5.83145 4.04033,5.84511 4.64706,5.72983 5.21021,5.49313 l 0.20477,0.8903 C 4.72393,6.66809 3.98085,6.80458 3.23375,6.78406 2.79821,6.81388 2.36138,6.74914 1.95322,6.59427 1.54505,6.43941 1.17522,6.19809 0.869071,5.88688 0.562928,5.57566 0.327723,5.2019 0.179591,4.79125 0.0314584,4.38059 -0.0260962,3.94276 0.0108748,3.50777 0.0108748,1.54912 1.17716,0 3.0824,0 c 2.13671,0 2.67089,1.86962 2.67089,3.06262 0.01142,0.18382 0.01142,0.36817 0,0.55199 H 1.15046 Z M 4.66713,2.6887 C 4.70149,2.45067 4.68443,2.20805 4.61709,1.97718 4.54976,1.74631 4.43372,1.53255 4.2768,1.35031 4.11987,1.16808 3.92571,1.0216 3.70739,0.920744 3.48907,0.81989 3.25166,0.767006 3.01118,0.765656 2.52201,0.801064 2.06371,1.01788 1.72609,1.37362 1.38847,1.72935 1.19588,2.19835 1.18607,2.6887 Z" />
    <path
       id="path6_fill"
       d="m 0.0534178,2.19228 c 0,-0.76565 0,-1.424474 -0.0534178,-2.029876 H 1.06836 V 1.43553 H 1.12177 C 1.23391,1.04259 1.4656,0.694314 1.78468,0.439049 2.10376,0.183783 2.4944,0.034196 2.90237,0.0110538 c 0.11229,-0.01473839 0.22602,-0.01473839 0.33831,0 V 1.12393 C 3.10462,1.10817 2.9672,1.10817 2.83114,1.12393 2.427,1.13958 2.04237,1.30182 1.7491,1.58035 1.45583,1.85887 1.27398,2.23462 1.23751,2.63743 1.20422,2.8196 1.18635,3.00425 1.1841,3.18941 V 6.65267 H 0.00890297 V 2.20118 Z" />
    <path
       id="path7_fill"
       d="M 6.03059,2.83565 C 6.06715,3.43376 5.92485,4.02921 5.6218,4.54615 5.31875,5.0631 4.86869,5.47813 4.32893,5.73839 3.78917,5.99864 3.18416,6.09233 2.59097,6.00753 1.99778,5.92272 1.44326,5.66326 0.998048,5.26219 0.552837,4.86113 0.23709,4.33661 0.0910307,3.75546 -0.0550287,3.17431 -0.0247891,2.56283 0.177897,1.99893 0.380583,1.43503 0.746541,0.944221 1.22915,0.589037 1.71176,0.233853 2.28918,0.0303686 2.88784,0.00450543 3.28035,-0.0170932 3.67326,0.0391144 4.04396,0.169896 4.41467,0.300677 4.75587,0.503453 5.04794,0.766561 5.34,1.02967 5.57718,1.34792 5.74582,1.70301 5.91446,2.0581 6.01124,2.44303 6.03059,2.83565 Z" />
    <path
       id="path8_fill"
       d="M 18.6962,7.12238 C 10.6836,7.12238 3.64131,4.24672 0,0 1.41284,3.82041 3.96215,7.1163 7.30479,9.44404 10.6474,11.7718 14.623,13.0196 18.6962,13.0196 c 4.0733,0 8.0488,-1.2478 11.3915,-3.57556 C 33.4303,7.1163 35.9796,3.82041 37.3925,0 33.7601,4.24672 26.7445,7.12238 18.6962,7.12238 Z" />
    <path
       id="path9_fill"
       d="m 18.6962,5.89725 c 8.0127,0 15.055,2.87566 18.6963,7.12235 C 35.9796,9.19922 33.4303,5.90333 30.0877,3.57559 26.745,1.24785 22.7695,0 18.6962,0 14.623,0 10.6474,1.24785 7.30479,3.57559 3.96215,5.90333 1.41284,9.19922 0,13.0196 3.64131,8.76401 10.648,5.89725 18.6962,5.89725 Z" />
    <path
       id="path10_fill"
       d="M 7.59576,3.56656 C 7.64276,4.31992 7.46442,5.07022 7.08347,5.72186 6.70251,6.3735 6.13619,6.89698 5.45666,7.22561 4.77713,7.55424 4.01515,7.67314 3.26781,7.56716 2.52046,7.46117 1.82158,7.13511 1.26021,6.63051 0.698839,6.12591 0.300394,5.46561 0.115637,4.73375 -0.0691191,4.00188 -0.0318219,3.23159 0.222777,2.52099 0.477376,1.8104 0.93775,1.19169 1.54524,0.743685 2.15274,0.295678 2.87985,0.0386595 3.63394,0.00537589 4.12793,-0.0210471 4.62229,0.0501173 5.08878,0.214803 5.55526,0.37949 5.98473,0.63447 6.35264,0.965179 6.72055,1.29589 7.01971,1.69584 7.233,2.1422 7.4463,2.58855 7.56957,3.07256 7.59576,3.56656 Z" />
    <path
       id="path11_fill"
       d="M 2.25061,4.37943 C 1.81886,4.39135 1.39322,4.27535 1.02722,4.04602 0.661224,3.81668 0.371206,3.48424 0.193641,3.09052 0.0160762,2.69679 -0.0411078,2.25935 0.0292804,1.83321 0.0996686,1.40707 0.294486,1.01125 0.589233,0.695542 0.883981,0.37983 1.2655,0.158316 1.68581,0.0588577 2.10611,-0.0406005 2.54644,-0.0135622 2.95143,0.136572 3.35641,0.286707 3.70796,0.553234 3.96186,0.902636 4.21577,1.25204 4.3607,1.66872 4.37842,2.10027 4.39529,2.6838 4.18131,3.25044 3.78293,3.67715 3.38455,4.10387 2.83392,4.35623 2.25061,4.37943 Z" />
    <symbol
       id="v"
       overflow="visible">
      <path
         d="m 18.766,-1.125 c -0.96875,0.5 -1.9805,0.875 -3.0312,1.125 -1.043,0.25781 -2.1367,0.39062 -3.2812,0.39062 -3.3984,0 -6.0898,-0.94531 -8.0781,-2.8438 -1.9922,-1.9062 -2.9844,-4.4844 -2.9844,-7.7344 0,-3.2578 0.99219,-5.8359 2.9844,-7.7344 1.9883,-1.9062 4.6797,-2.8594 8.0781,-2.8594 1.1445,0 2.2383,0.13281 3.2812,0.39062 1.0508,0.25 2.0625,0.625 3.0312,1.125 v 4.2188 c -0.98047,-0.65625 -1.9453,-1.1406 -2.8906,-1.4531 -0.94922,-0.3125 -1.9492,-0.46875 -3,-0.46875 -1.875,0 -3.3516,0.60547 -4.4219,1.8125 -1.0742,1.1992 -1.6094,2.8555 -1.6094,4.9688 0,2.1055 0.53516,3.7617 1.6094,4.9688 1.0703,1.1992 2.5469,1.7969 4.4219,1.7969 1.0508,0 2.0508,-0.14844 3,-0.45312 0.94531,-0.3125 1.9102,-0.80078 2.8906,-1.4688 z"
         id="path1228" />
    </symbol>
    <symbol
       id="a-8"
       overflow="visible">
      <path
         d="m 13.734,-11.141 c -0.4375,-0.19531 -0.87109,-0.34375 -1.2969,-0.4375 -0.41797,-0.10156 -0.83984,-0.15625 -1.2656,-0.15625 -1.2617,0 -2.2305,0.40625 -2.9062,1.2188 -0.67969,0.80469 -1.0156,1.9531 -1.0156,3.4531 v 7.0625 H 2.3591 v -15.312 h 4.8906 v 2.5156 c 0.625,-1 1.3438,-1.7266 2.1562,-2.1875 0.82031,-0.46875 1.8008,-0.70312 2.9375,-0.70312 0.16406,0 0.34375,0.01172 0.53125,0.03125 0.19531,0.01172 0.47656,0.03906 0.84375,0.07813 z"
         id="path1231" />
    </symbol>
    <symbol
       id="d-0"
       overflow="visible">
      <path
         d="m 17.641,-7.7031 v 1.4062 H 6.188 c 0.125,1.1484 0.53906,2.0078 1.25,2.5781 0.70703,0.57422 1.7031,0.85938 2.9844,0.85938 1.0312,0 2.082,-0.14844 3.1562,-0.45312 1.082,-0.3125 2.1914,-0.77344 3.3281,-1.3906 v 3.7656 c -1.1562,0.4375 -2.3125,0.76562 -3.4688,0.98438 -1.1562,0.22656 -2.3125,0.34375 -3.4688,0.34375 -2.7734,0 -4.9297,-0.70312 -6.4688,-2.1094 -1.5312,-1.4062 -2.2969,-3.3789 -2.2969,-5.9219 0,-2.5 0.75391,-4.4609 2.2656,-5.8906 1.5078,-1.4375 3.582,-2.1562 6.2188,-2.1562 2.4062,0 4.332,0.73047 5.7812,2.1875 1.4453,1.4492 2.1719,3.3828 2.1719,5.7969 z m -5.0312,-1.625 c 0,-0.92578 -0.27344,-1.6719 -0.8125,-2.2344 -0.54297,-0.57031 -1.25,-0.85938 -2.125,-0.85938 -0.94922,0 -1.7188,0.26562 -2.3125,0.79688 -0.5937,0.53126 -0.96484,1.2969 -1.1094,2.2969 z"
         id="path1234" />
    </symbol>
    <symbol
       id="f-2"
       overflow="visible">
      <path
         d="m 9.2188,-6.8906 c -1.0234,0 -1.793,0.17188 -2.3125,0.51562 -0.51172,0.34375 -0.76562,0.85547 -0.76562,1.5312 0,0.625 0.20703,1.1172 0.625,1.4688 0.41406,0.34375 0.98828,0.51562 1.7188,0.51562 0.92578,0 1.7031,-0.32812 2.3281,-0.98438 0.63281,-0.66406 0.95312,-1.4922 0.95312,-2.4844 v -0.5625 z m 7.4688,-1.8438 V 0 h -4.9219 v -2.2656 c -0.65625,0.92969 -1.3984,1.6055 -2.2188,2.0312 -0.82422,0.41406 -1.8242,0.625 -3,0.625 -1.5859,0 -2.8711,-0.45703 -3.8594,-1.375 -0.99219,-0.92578 -1.4844,-2.1289 -1.4844,-3.6094 0,-1.7891 0.61328,-3.1016 1.8438,-3.9375 1.2383,-0.84375 3.1797,-1.2656 5.8281,-1.2656 h 2.8906 v -0.39062 c 0,-0.76953 -0.30859,-1.332 -0.92188,-1.6875 -0.61719,-0.36328 -1.5703,-0.54688 -2.8594,-0.54688 -1.0547,0 -2.0312,0.10547 -2.9375,0.3125 -0.89844,0.21094 -1.7305,0.52344 -2.5,0.9375 v -3.7344 c 1.0391,-0.25 2.0859,-0.44141 3.1406,-0.57812 1.0625,-0.13281 2.125,-0.20312 3.1875,-0.20312 2.7578,0 4.75,0.54688 5.9688,1.6406 1.2266,1.0859 1.8438,2.8555 1.8438,5.3125 z"
         id="path1237" />
    </symbol>
    <symbol
       id="c-4"
       overflow="visible">
      <path
         d="m 7.7031,-19.656 v 4.3438 H 12.75 v 3.5 H 7.7031 v 6.5 c 0,0.71094 0.14062,1.1875 0.42188,1.4375 0.28126,0.25 0.83594,0.375 1.6719,0.375 h 2.5156 v 3.5 h -4.1875 c -1.9375,0 -3.3125,-0.39844 -4.125,-1.2031 -0.80469,-0.8125 -1.2031,-2.1797 -1.2031,-4.1094 v -6.5 h -2.4219 v -3.5 h 2.4219 v -4.3438 z"
         id="path1240" />
    </symbol>
    <symbol
       id="l-8"
       overflow="visible">
      <path
         d="m 12.766,-13.078 v -8.2031 h 4.9219 V -1e-4 H 12.766 v -2.2188 c -0.66797,0.90625 -1.4062,1.5703 -2.2188,1.9844 -0.8126,0.4141 -1.7578,0.625 -2.8281,0.625 -1.8867,0 -3.4336,-0.75 -4.6406,-2.25 -1.2109,-1.5 -1.8125,-3.4258 -1.8125,-5.7812 0,-2.3633 0.60156,-4.2969 1.8125,-5.7969 1.207,-1.5 2.7539,-2.25 4.6406,-2.25 1.0625,0 2,0.21484 2.8125,0.64062 0.82031,0.42969 1.5664,1.0859 2.2344,1.9688 z m -3.2188,9.9219 c 1.0391,0 1.8359,-0.37891 2.3906,-1.1406 0.55078,-0.76953 0.82812,-1.8828 0.82812,-3.3438 0,-1.457 -0.27734,-2.5664 -0.82812,-3.3281 -0.55469,-0.76953 -1.3516,-1.1562 -2.3906,-1.1562 -1.043,0 -1.8398,0.38672 -2.3906,1.1562 -0.55469,0.76172 -0.82812,1.8711 -0.82812,3.3281 0,1.4609 0.27344,2.5742 0.82812,3.3438 0.55078,0.76172 1.3477,1.1406 2.3906,1.1406 z"
         id="path1243" />
    </symbol>
    <symbol
       id="k-3"
       overflow="visible">
      <path
         d="m 10.5,-3.1562 c 1.0508,0 1.8516,-0.37891 2.4062,-1.1406 0.55078,-0.76953 0.82812,-1.8828 0.82812,-3.3438 0,-1.457 -0.27734,-2.5664 -0.82812,-3.3281 -0.55469,-0.76953 -1.3555,-1.1562 -2.4062,-1.1562 -1.0547,0 -1.8594,0.38672 -2.4219,1.1562 -0.55469,0.77344 -0.82812,1.8828 -0.82812,3.3281 0,1.4492 0.27344,2.5586 0.82812,3.3281 0.5625,0.77344 1.3672,1.1562 2.4219,1.1562 z m -3.25,-9.9219 c 0.67578,-0.88281 1.4219,-1.5391 2.2344,-1.9688 0.82031,-0.42578 1.7656,-0.64062 2.8281,-0.64062 1.8945,0 3.4453,0.75 4.6562,2.25 1.207,1.5 1.8125,3.4336 1.8125,5.7969 0,2.3555 -0.60547,4.2812 -1.8125,5.7812 -1.2109,1.5 -2.7617,2.25 -4.6562,2.25 -1.0625,0 -2.0078,-0.21094 -2.8281,-0.625 C 8.6719,-0.6602 7.9258,-1.32032 7.25,-2.21882 V -2e-5 H 2.3594 v -21.281 H 7.25 Z"
         id="path1246" />
    </symbol>
    <symbol
       id="j-9"
       overflow="visible">
      <path
         d="m 0.34375,-15.312 h 4.8906 l 4.125,10.391 3.5,-10.391 h 4.8906 l -6.4375,16.766 c -0.64844,1.6953 -1.4023,2.8828 -2.2656,3.5625 -0.86719,0.6875 -2,1.0312 -3.4062,1.0312 H 2.79685 V 2.8289 h 1.5312 c 0.83203,0 1.4375,-0.13672 1.8125,-0.40625 C 6.52336,2.16093 6.82024,1.69218 7.03117,1.01645 L 7.17179,0.59457 Z"
         id="path1249" />
    </symbol>
    <symbol
       id="e-0"
       overflow="visible">
      <path
         d="m 2.5781,-20.406 h 8.7344 c 2.5938,0 4.582,0.57812 5.9688,1.7344 1.3945,1.1484 2.0938,2.7891 2.0938,4.9219 0,2.1367 -0.69922,3.7812 -2.0938,4.9375 -1.3867,1.1562 -3.375,1.7344 -5.9688,1.7344 H 7.8281 V 3e-4 h -5.25 z m 5.25,3.8125 v 5.7031 H 10.75 c 1.0195,0 1.8047,-0.25 2.3594,-0.75 0.5625,-0.5 0.84375,-1.2031 0.84375,-2.1094 0,-0.91406 -0.28125,-1.6172 -0.84375,-2.1094 -0.55469,-0.48828 -1.3398,-0.73438 -2.3594,-0.73438 z"
         id="path1252" />
    </symbol>
    <symbol
       id="i-5"
       overflow="visible">
      <path
         d="M 2.3594,-15.312 H 7.25 V 0 H 2.3594 Z m 0,-5.9688 H 7.25 v 4 H 2.3594 Z"
         id="path1255" />
    </symbol>
    <symbol
       id="h-2"
       overflow="visible">
      <path
         d="m 14.719,-14.828 v 3.9844 c -0.65625,-0.45703 -1.3242,-0.79688 -2,-1.0156 -0.66797,-0.21875 -1.3594,-0.32812 -2.0781,-0.32812 -1.3672,0 -2.4336,0.40234 -3.2031,1.2031 -0.76172,0.79297 -1.1406,1.9062 -1.1406,3.3438 0,1.4297 0.37891,2.543 1.1406,3.3438 0.76953,0.79297 1.8359,1.1875 3.2031,1.1875 0.75781,0 1.4844,-0.10938 2.1719,-0.32812 0.6875,-0.22656 1.3203,-0.56641 1.9062,-1.0156 v 4 c -0.76172,0.28125 -1.5391,0.48828 -2.3281,0.625 -0.78125,0.14453 -1.5742,0.21875 -2.375,0.21875 -2.7617,0 -4.9219,-0.70703 -6.4844,-2.125 -1.5547,-1.4141 -2.3281,-3.3828 -2.3281,-5.9062 0,-2.5312 0.77344,-4.5039 2.3281,-5.9219 1.5625,-1.4141 3.7227,-2.125 6.4844,-2.125 0.80078,0 1.5938,0.07422 2.375,0.21875 0.78125,0.13672 1.5547,0.35156 2.3281,0.64062 z"
         id="path1258" />
    </symbol>
    <symbol
       id="u-2"
       overflow="visible">
      <path
         d="M 2.3594,-21.281 H 7.25 v 11.594 l 5.625,-5.625 h 5.6875 L 11.0937,-8.2808 19.1562,4e-4 H 13.2187 L 7.2499,-6.3902 V 4e-4 H 2.3593 Z"
         id="path1261" />
    </symbol>
    <symbol
       id="t-7"
       overflow="visible">
      <path
         d="m 2.5781,-20.406 h 6.6875 l 4.6562,10.922 4.6719,-10.922 h 6.6875 V 0 H 20.2968 V -14.938 L 15.5937,-3.922 H 12.2656 L 7.5625,-14.938 V 0 H 2.5781 Z"
         id="path1264" />
    </symbol>
    <symbol
       id="b-3"
       overflow="visible">
      <path
         d="m 9.6406,-12.188 c -1.0859,0 -1.9141,0.39062 -2.4844,1.1719 -0.57422,0.78125 -0.85938,1.9062 -0.85938,3.375 0,1.4688 0.28516,2.5938 0.85938,3.375 0.57031,0.77344 1.3984,1.1562 2.4844,1.1562 1.0625,0 1.875,-0.38281 2.4375,-1.1562 0.57031,-0.78125 0.85938,-1.9062 0.85938,-3.375 0,-1.4688 -0.28906,-2.5938 -0.85938,-3.375 -0.5625,-0.78125 -1.375,-1.1719 -2.4375,-1.1719 z m 0,-3.5 c 2.6328,0 4.6914,0.71484 6.1719,2.1406 1.4766,1.418 2.2188,3.3867 2.2188,5.9062 0,2.5117 -0.74219,4.4805 -2.2188,5.9062 C 14.332,-0.317 12.2734,0.39 9.6406,0.39 6.9922,0.39 4.9258,-0.31703 3.4375,-1.735 1.9453,-3.1608 1.2031,-5.1295 1.2031,-7.6412 c 0,-2.5195 0.74219,-4.4883 2.2344,-5.9062 1.4883,-1.4258 3.5547,-2.1406 6.2031,-2.1406 z"
         id="path1267" />
    </symbol>
    <symbol
       id="s-7"
       overflow="visible">
      <path
         d="m 14.312,-14.828 v 3.7188 c -1.043,-0.4375 -2.0547,-0.76562 -3.0312,-0.98438 -0.98047,-0.21875 -1.9023,-0.32812 -2.7656,-0.32812 -0.92969,0 -1.6211,0.11719 -2.0781,0.34375 -0.44922,0.23047 -0.67188,0.58984 -0.67188,1.0781 0,0.38672 0.17188,0.68359 0.51562,0.89062 0.34375,0.21094 0.95703,0.36719 1.8438,0.46875 l 0.85938,0.125 c 2.5078,0.32422 4.1953,0.85156 5.0625,1.5781 0.86328,0.73047 1.2969,1.8711 1.2969,3.4219 0,1.6367 -0.60547,2.8672 -1.8125,3.6875 -1.1992,0.8125 -2.9922,1.2188 -5.375,1.2188 -1.0234,0 -2.0742,-0.078125 -3.1562,-0.23438 -1.0742,-0.15625 -2.1797,-0.39453 -3.3125,-0.71875 v -3.7188 c 0.96875,0.48047 1.9609,0.83984 2.9844,1.0781 1.0312,0.23047 2.0781,0.34375 3.1406,0.34375 0.95703,0 1.6758,-0.12891 2.1562,-0.39062 0.47656,-0.26953 0.71875,-0.66406 0.71875,-1.1875 0,-0.4375 -0.16797,-0.75781 -0.5,-0.96875 -0.33594,-0.21875 -0.99609,-0.38281 -1.9844,-0.5 L 7.34339,-6.01551 c -2.1797,-0.26953 -3.7031,-0.77344 -4.5781,-1.5156 -0.875,-0.73828 -1.3125,-1.8594 -1.3125,-3.3594 0,-1.625 0.55078,-2.8281 1.6562,-3.6094 1.1133,-0.78906 2.8203,-1.1875 5.125,-1.1875 0.89453,0 1.8359,0.07422 2.8281,0.21875 1,0.13672 2.082,0.35156 3.25,0.64062 z"
         id="path1270" />
    </symbol>
    <symbol
       id="g-9"
       overflow="visible">
      <path
         d="M 17.75,-9.3281 V 0 h -4.9219 v -7.1406 c 0,-1.3203 -0.03125,-2.2344 -0.09375,-2.7344 -0.0625,-0.5 -0.16797,-0.86719 -0.3125,-1.1094 -0.1875,-0.3125 -0.44922,-0.55469 -0.78125,-0.73438 -0.32422,-0.17578 -0.69531,-0.26562 -1.1094,-0.26562 -1.0234,0 -1.8242,0.39844 -2.4062,1.1875 -0.58594,0.78125 -0.875,1.8711 -0.875,3.2656 V -1e-4 H 2.3594 v -15.312 H 7.25 v 2.2344 c 0.73828,-0.88281 1.5195,-1.5391 2.3438,-1.9688 0.83203,-0.42578 1.75,-0.64062 2.75,-0.64062 1.7695,0 3.1133,0.54688 4.0312,1.6406 0.91406,1.0859 1.375,2.6562 1.375,4.7188 z"
         id="path1273" />
    </symbol>
    <symbol
       id="r-0"
       overflow="visible">
      <path
         d="m 12.422,-21.281 v 3.2188 H 9.7189 c -0.6875,0 -1.1719,0.125 -1.4531,0.375 -0.27344,0.25 -0.40625,0.6875 -0.40625,1.3125 v 1.0625 h 4.1875 v 3.5 H 7.85955 V -2e-4 h -4.8906 v -11.812 h -2.4375 v -3.5 h 2.4375 v -1.0625 c 0,-1.6641 0.46094,-2.8984 1.3906,-3.7031 0.92578,-0.80078 2.3672,-1.2031 4.3281,-1.2031 z"
         id="path1276" />
    </symbol>
    <symbol
       id="q-2"
       overflow="visible">
      <path
         d="m 16.547,-12.766 c 0.61328,-0.94531 1.3477,-1.6719 2.2031,-2.1719 0.85156,-0.5 1.7891,-0.75 2.8125,-0.75 1.7578,0 3.0977,0.54688 4.0156,1.6406 0.92578,1.0859 1.3906,2.6562 1.3906,4.7188 V -4e-4 h -4.9219 v -7.9844 -0.35938 c 0.0078,-0.13281 0.01563,-0.32031 0.01563,-0.5625 0,-1.082 -0.16406,-1.8633 -0.48438,-2.3438 -0.3125,-0.48828 -0.82422,-0.73438 -1.5312,-0.73438 -0.92969,0 -1.6484,0.38672 -2.1562,1.1562 -0.51172,0.76172 -0.77344,1.8672 -0.78125,3.3125 v 7.5156 h -4.9219 v -7.9844 c 0,-1.6953 -0.14844,-2.7852 -0.4375,-3.2656 -0.29297,-0.48828 -0.8125,-0.73438 -1.5625,-0.73438 -0.9375,0 -1.6641,0.38672 -2.1719,1.1562 -0.51172,0.76172 -0.76562,1.8594 -0.76562,3.2969 v 7.5312 h -4.9219 v -15.312 h 4.9219 v 2.2344 c 0.60156,-0.86328 1.2891,-1.5156 2.0625,-1.9531 0.78125,-0.4375 1.6406,-0.65625 2.5781,-0.65625 1.0625,0 2,0.25781 2.8125,0.76562 0.8125,0.51172 1.4258,1.2305 1.8438,2.1562 z"
         id="path1279" />
    </symbol>
    <symbol
       id="p-3"
       overflow="visible">
      <path
         d="M 17.75,-9.3281 V 0 h -4.9219 v -7.1094 c 0,-1.3438 -0.03125,-2.2656 -0.09375,-2.7656 -0.0625,-0.5 -0.16797,-0.86719 -0.3125,-1.1094 -0.1875,-0.3125 -0.44922,-0.55469 -0.78125,-0.73438 -0.32422,-0.17578 -0.69531,-0.26562 -1.1094,-0.26562 -1.0234,0 -1.8242,0.39844 -2.4062,1.1875 -0.58594,0.78125 -0.875,1.8711 -0.875,3.2656 V -1e-4 H 2.3594 v -21.281 H 7.25 v 8.2031 c 0.73828,-0.88281 1.5195,-1.5391 2.3438,-1.9688 0.83203,-0.42578 1.75,-0.64062 2.75,-0.64062 1.7695,0 3.1133,0.54688 4.0312,1.6406 0.91406,1.0859 1.375,2.6562 1.375,4.7188 z"
         id="path1282" />
    </symbol>
    <symbol
       id="o-9"
       overflow="visible">
      <path
         d="m 2.5781,-20.406 h 5.875 l 7.4219,14 v -14 h 4.9844 V 0 h -5.875 L 7.5625,-14 V 0 H 2.5781 Z"
         id="path1285" />
    </symbol>
    <symbol
       id="n-9"
       overflow="visible">
      <path
         d="m 2.1875,-5.9688 v -9.3438 h 4.9219 v 1.5312 c 0,0.83594 -0.00781,1.875 -0.015625,3.125 -0.011719,1.25 -0.015625,2.0859 -0.015625,2.5 0,1.2422 0.03125,2.1328 0.09375,2.6719 0.070313,0.54297 0.17969,0.93359 0.32812,1.1719 0.20703,0.32422 0.47266,0.57422 0.79688,0.75 0.32031,0.16797 0.69141,0.25 1.1094,0.25 1.0195,0 1.8203,-0.39062 2.4062,-1.1719 0.58203,-0.78125 0.875,-1.8672 0.875,-3.2656 v -7.5625 h 4.8906 V -6e-4 H 12.6875 V -2.2194 C 11.94531,-1.32096 11.1641,-0.6608 10.3437,-0.235 9.51948,0.17906 8.6093,0.39 7.6093,0.39 5.8476,0.39 4.5038,-0.14906 3.5781,-1.235 2.64841,-2.317 2.1875,-3.8952 2.1875,-5.9694 Z"
         id="path1288" />
    </symbol>
    <symbol
       id="m-7"
       overflow="visible">
      <path
         d="M 2.3594,-15.312 H 7.25 v 15.031 c 0,2.0508 -0.49609,3.6172 -1.4844,4.7031 -0.98047,1.082 -2.4062,1.625 -4.2812,1.625 H -0.9375 V 2.8283 h 0.85938 c 0.92578,0 1.5625,-0.21094 1.9062,-0.625 0.35156,-0.41797 0.53125,-1.2461 0.53125,-2.4844 z m 0,-5.9688 H 7.25 v 4 H 2.3594 Z"
         id="path1291" />
    </symbol>
    <marker
       style="overflow:visible"
       id="Arrow2Lstart-1"
       refX="0"
       refY="0"
       orient="auto"
       inkscape:stockid="Arrow2Lstart"
       inkscape:isstock="true">
      <path
         transform="matrix(1.1,0,0,1.1,1.1,0)"
         d="M 8.7185878,4.0337352 -2.2072895,0.01601326 8.7185884,-4.0017078 c -1.7454984,2.3720609 -1.7354408,5.6174519 -6e-7,8.035443 z"
         style="fill:context-stroke;fill-rule:evenodd;stroke-width:0.625;stroke-linejoin:round"
         id="path2532-3" />
    </marker>
    <marker
       style="overflow:visible"
       id="Arrow2Lend-7"
       refX="0"
       refY="0"
       orient="auto"
       inkscape:stockid="Arrow2Lend"
       inkscape:isstock="true">
      <path
         transform="matrix(-1.1,0,0,-1.1,-1.1,0)"
         d="M 8.7185878,4.0337352 -2.2072895,0.01601326 8.7185884,-4.0017078 c -1.7454984,2.3720609 -1.7354408,5.6174519 -6e-7,8.035443 z"
         style="fill:context-stroke;fill-rule:evenodd;stroke-width:0.625;stroke-linejoin:round"
         id="path2535-8" />
    </marker>
  </defs>
  <g
     inkscape:label="Layer 1"
     inkscape:groupmode="layer"
     id="layer1"
     transform="translate(-11.625358,-5.3803178)">
    <g
       id="g1003"
       transform="matrix(0.0670262,0,0,0.0670262,83.946954,8.1447107)">
      <g
         id="g971"
         style="fill:#52adc8;fill-opacity:1"
         clip-path="url(#clipPath1985)"
         transform="matrix(1.3048426,0,0,1.3048426,-89.603068,-46.994586)">
        <path
           d="m 414.25,80.914 c -2.7734,0.0039 -5.3359,1.5 -6.6992,3.918 l -93.387,3.4805 c -1.457,-1.6406 -3.5469,-2.582 -5.7422,-2.5859 -3.1602,0 -6,1.9375 -7.1562,4.8789 l -121.84,56.188 v -0.004 c -0.93359,-0.38672 -1.9375,-0.58594 -2.9492,-0.58984 -4.1172,0.008 -7.5,3.25 -7.6797,7.3633 l -34.652,37.094 -6.9375,6.5664 c -0.51953,-0.10938 -1.0508,-0.16797 -1.5859,-0.16797 -2.0391,0 -3.9961,0.8125 -5.4414,2.2539 -1.4414,1.4453 -2.2539,3.4023 -2.2539,5.4453 0.004,2.0898 0.85547,4.0898 2.3672,5.5391 l -18.48,66.164 c -2.3594,1.375 -3.8125,3.9023 -3.8164,6.6367 0.0039,3.7031 2.6406,6.8789 6.2812,7.5586 l 27.727,67.332 c -1.1055,1.3672 -1.707,3.0703 -1.707,4.8242 0,2.043 0.80859,4 2.2539,5.4414 1.4414,1.4453 3.4023,2.2578 5.4414,2.2578 2.3906,-0.004 4.6484,-1.1211 6.1016,-3.0234 l 65.309,14.895 h -0.004 c 0.51172,3.8242 3.7695,6.6758 7.625,6.6797 2.4336,0 4.7227,-1.1562 6.1719,-3.1133 l 47.355,13.152 c 1.2734,2.6836 3.9766,4.3906 6.9453,4.3945 4.25,0 7.6992,-3.4453 7.6992,-7.6953 -0.004,-0.26172 -0.0234,-0.51953 -0.0508,-0.78125 l 21.137,-18.492 h -0.004 c 1.0898,0.55859 2.293,0.85156 3.5156,0.85547 2.4961,-0.004 4.8398,-1.2148 6.2812,-3.2539 l 25.484,8.6484 v -0.004 c 0.9375,3.3164 3.9609,5.6016 7.4062,5.6016 0.55469,0 1.1055,-0.0625 1.6445,-0.18359 l 49.883,51.625 c -0.0781,0.44141 -0.12109,0.89062 -0.125,1.3398 0,4.25 3.4453,7.6953 7.6953,7.6953 0.53516,0 1.0664,-0.0586 1.5859,-0.17188 l 23.949,20.824 c -0.15625,0.61719 -0.23828,1.25 -0.24219,1.8906 0,4.25 3.4453,7.6953 7.6953,7.6953 4.082,-0.004 7.4531,-3.1992 7.6758,-7.2734 l 21.918,-4.7266 v -0.004 c 1.4531,1.9297 3.7266,3.0664 6.1406,3.0703 2.043,0 4,-0.8125 5.4453,-2.2539 1.4414,-1.4453 2.2539,-3.4023 2.2539,-5.4453 0,-4.25 -3.4492,-7.6953 -7.6992,-7.6953 -0.95312,0 -1.9023,0.17969 -2.793,0.52734 l -13.469,-28.441 c 0.83203,-1.2578 1.2812,-2.7344 1.2812,-4.2461 -0.004,-0.55859 -0.0664,-1.1133 -0.19141,-1.6562 l 8.6758,-13.016 0.004,-0.004 c 0.76562,0.25 1.5625,0.375 2.3672,0.375 2.5586,0 4.9453,-1.2695 6.375,-3.3867 l 27.754,2.0703 h 0.004 c 1.1875,2.875 3.9922,4.75 7.1016,4.7539 4.25,0 7.6953,-3.4453 7.6953,-7.6953 0,-0.22656 -0.0117,-0.45703 -0.0352,-0.68359 l 15.578,-24.711 h 0.004 c 1.75,-0.28906 3.3438,-1.1758 4.5195,-2.5078 h 14.652 -0.004 c 1.2109,2.832 3.9922,4.6719 7.0703,4.6758 4.25,0 7.6953,-3.4492 7.6953,-7.6992 0,-2.1797 -0.92969,-4.2617 -2.5547,-5.7188 l 26.648,-40.246 c 3.8867,-0.4375 6.8281,-3.7227 6.832,-7.6367 -0.004,-3.5195 -2.3945,-6.5898 -5.8086,-7.4531 l -7.6289,-49.824 h 0.004 c 2.3594,-1.375 3.8086,-3.9023 3.8125,-6.6367 0,-4.25 -3.4453,-7.6953 -7.6953,-7.6953 -0.28906,0.004 -0.57812,0.0234 -0.86719,0.0625 l -51.031,-89.305 c 0.76953,-1.2227 1.1758,-2.6367 1.1797,-4.0781 0,-4.2539 -3.4453,-7.6992 -7.6953,-7.6992 -1.375,0.004 -2.7188,0.375 -3.9023,1.0742 l -100.61,-60.987997 c -0.76953,-3.5312 -3.8945,-6.0469 -7.5078,-6.0547 z m -7.4258,9.7227 h 0.004 c 0.82422,3.0156 3.3906,5.2305 6.4922,5.6094 l 11.598,51.129 -108.88,-52.918 v -0.0039 c 0.0195,-0.14453 0.0391,-0.29297 0.0508,-0.4375 l 90.738,-3.3789 z m 13.746,2.3633 93.785,56.855 -76.066,0.54688 v 0.004 c -1.3125,-2.582 -3.9609,-4.207 -6.8555,-4.207 -0.28516,0.004 -0.57031,0.0234 -0.85156,0.0586 l -11.684,-51.516001 0.004,-0.0039 c 0.64453,-0.48828 1.207,-1.0742 1.6719,-1.7383 z m -119.04,3.8398 c 0.43359,0.86719 1.0234,1.6445 1.7422,2.293 l -39.934,61.867 c -0.75391,-0.24219 -1.543,-0.36719 -2.332,-0.37109 -2.875,0.004 -5.5078,1.6094 -6.8281,4.1602 l -70.172,-12.453 c -0.0781,-0.39063 -0.1875,-0.77734 -0.32812,-1.1523 z m 11.855,2.7422 101.71,49.438 -81.625,8.9609 z m -5.2109,2.5977 19.414,56.445 -59.578,6.5391 c -0.0625,-0.14453 -0.13281,-0.28906 -0.20703,-0.43359 z m 114.37,51.832 -73.465,44.32 h 0.004 c -0.63672,-0.41797 -1.332,-0.74219 -2.0625,-0.95703 l -11.625,-33.801 87.152,-9.5625 z m 96.102,1.5898 h 0.004 c 0.19141,1.4609 0.80469,2.832 1.7578,3.957 l -15.52,40.645 -66.121,-43.98 c 0.004,-0.0195 0.0117,-0.0352 0.0156,-0.0508 l 79.863,-0.57422 z m -335.68,2.418 70.68,12.543 c 0.23828,0.78516 0.60156,1.5273 1.0742,2.1953 l -56.949,58.691 h 0.004 c -0.22656,-0.0273 -0.45312,-0.043 -0.67969,-0.0508 -0.48828,0.004 -0.97266,0.0508 -1.4492,0.14844 -0.42188,-2.1992 -0.82031,-4.2852 -1.3984,-7.1953 -1.6758,-8.4492 -3.9102,-19.449 -6.1445,-30.363 -2.918,-14.254 -5.3242,-25.891 -7,-33.961 0.73828,-0.55859 1.3672,-1.2422 1.8633,-2.0234 z m 241.09,1.8242 -34.297,104.1 -0.004,-0.004 c -0.75781,0.1875 -1.4805,0.48438 -2.1484,0.88672 l -37.238,-54.727 c 1.3906,-1.4336 2.168,-3.3477 2.1719,-5.3477 -0.004,-0.55469 -0.0664,-1.1094 -0.1875,-1.6523 l 71.703,-43.258 z m 10.996,0.83984 67.723,45.051 -20.305,53.18 c -0.0586,-0.004 -0.12109,-0.004 -0.18359,0 -0.95312,0 -1.8945,0.17578 -2.7812,0.51953 l -44.578,-98.668 c 0.043,-0.0234 0.082,-0.0469 0.125,-0.0703 z m -261.28,0.41016 -0.004,-0.004 c 0.56641,0.21484 1.1523,0.35938 1.75,0.43359 1.6875,8.1328 4.0664,19.641 6.9297,33.633 2.2344,10.906 4.4648,21.898 6.1406,30.328 0.47656,2.4023 0.77734,3.9961 1.1484,5.918 l -56.531,-27.98 v 0.004 c -0.14844,-0.83984 -0.4375,-1.6523 -0.85156,-2.3945 l 5.8906,-6.3047 35.527,-33.637 z m 354.31,0.96484 49.387,86.426 -67.652,-45 15.746,-41.238 c 0.23438,0.0273 0.47266,0.0469 0.70703,0.0508 0.60938,0 1.2188,-0.0781 1.8086,-0.22266 z m -98.77,0.28125 45.785,101.33 -76.297,5.0859 h -0.004 c -0.60547,-1.6445 -1.7539,-3.0312 -3.2539,-3.9336 l 33.766,-102.48 z m -99.797,1.8789 11.625,33.797 c -0.85547,0.46875 -1.6133,1.0938 -2.2344,1.8477 l -68.426,-29.164 z m -64.266,10.523 71.691,30.555 -40.145,22.359 0.004,0.004 c -1.375,-1.125 -3.0938,-1.7422 -4.8672,-1.7422 -0.18359,-0.008 -0.36719,-0.008 -0.54688,0 l -26.152,-51.18 v -0.004 h 0.0156 z m -5.7812,1.4141 26.738,52.324 -0.004,0.004 c -1.2656,1.4102 -1.9648,3.2344 -1.9688,5.1289 0,1.7109 0.57422,3.3711 1.6211,4.7227 l -37.457,59.762 h 0.004 c -0.15234,-0.008 -0.30078,-0.008 -0.45312,0 -1.0156,0 -2.0195,0.20312 -2.957,0.59766 l -42.109,-54.496 c 1.2305,-1.4023 1.9062,-3.2031 1.9102,-5.0664 0,-1.7617 -0.60547,-3.4688 -1.7148,-4.8359 l 56.387,-58.113 z m 248.24,32.852 68.809,45.77 -88.445,5.668 19.641,-51.441 z m -375.82,0.20313 55.293,27.367 -76.723,40.477 h 0.004 c -0.73438,-0.57813 -1.5625,-1.0234 -2.4531,-1.3047 l 17.68,-63.305 c 2.4648,-0.0234 4.7695,-1.2266 6.1992,-3.2344 z m 207.75,1.1914 c 1.418,1.3125 3.2773,2.0391 5.207,2.043 h 0.13672 l 39.059,57.406 c -0.10938,0.51563 -0.16406,1.0391 -0.16406,1.5625 0.004,0.62109 0.082,1.2422 0.23438,1.8477 l -26.242,39.938 h -0.004 c -0.63672,0.004 -1.2734,0.0859 -1.8945,0.25 l -57.543,-75.73 c 0.78125,-1.2266 1.1953,-2.6484 1.1992,-4.1016 -0.004,-0.29688 -0.0234,-0.59375 -0.0625,-0.88672 l 40.074,-22.32 z m -45.898,30.68 57.602,75.801 -0.004,0.004 c -0.0508,0.0859 -0.10547,0.17188 -0.15625,0.25781 l -95.809,-13.387 c -0.32031,-1.1758 -0.91406,-2.2578 -1.7344,-3.1562 l 37.219,-59.375 c 0.35547,0.0547 0.71484,0.082 1.0742,0.0859 0.60938,-0.004 1.2148,-0.0781 1.8086,-0.22656 z m -104.15,0.75 -28.066,61.293 -0.004,0.004 c -1.2578,0.32031 -2.4141,0.95312 -3.3594,1.8398 l -44.777,-22.121 c -0.0117,-0.25781 -0.0352,-0.51953 -0.0703,-0.77344 z m 3.8789,5.3906 14.164,95.027 -37.32,-28.27 v 0.004 c 0.52734,-1.0586 0.80078,-2.2227 0.80469,-3.4062 -0.004,-2.668 -1.3906,-5.1445 -3.6641,-6.543 z m 6.1641,2.1914 41.223,53.348 0.004,0.004 c -0.40234,0.94922 -0.60938,1.9727 -0.60938,3.0039 0.004,3.7969 2.7734,7.0195 6.5234,7.5977 l 26.555,75.953 h 0.004 c -0.61719,0.39844 -1.1758,0.88281 -1.6523,1.4375 l -57.465,-43.523 -14.578,-97.816 z m 378.71,11.031 -16.773,42.43 -71.613,-35.809 v 0.004 c 0.0117,-0.15625 0.0195,-0.31641 0.0234,-0.47266 0,-0.16016 -0.008,-0.32031 -0.0156,-0.48047 l 88.383,-5.6641 z m 4.6914,3.8359 7.4297,48.562 0.004,0.004 c -1.2422,0.71094 -2.2578,1.7539 -2.9414,3.0078 l -20.773,-10.387 16.281,-41.184 z m -108.8,5.2305 -10.23,65.367 -65.457,-60.242 0.004,0.004 c 0.0117,-0.0274 0.0273,-0.0508 0.0391,-0.0781 l 75.648,-5.043 z m 5.1836,4.2227 v 0.004 c 0.91016,0.36719 1.8828,0.55469 2.8672,0.55859 0.75391,-0.004 1.5039,-0.11719 2.2266,-0.33594 l 41.93,55.418 -54.57,8.707 c -0.66016,-0.65234 -1.4336,-1.1758 -2.2812,-1.5547 l 9.8281,-62.793 z m 12.895,0.96484 67.129,33.562 -6.6875,16.91 -19.859,3.168 -40.586,-53.645 z m -97.988,3.8945 65.832,60.59 h -0.004 c -0.89062,1.2852 -1.3711,2.8164 -1.3711,4.3828 0.004,0.0781 0.008,0.15625 0.0117,0.23438 l -52.477,31.82 c -0.92969,-0.82812 -2.0508,-1.4219 -3.2617,-1.7227 l -10.414,-94.879 c 0.57812,-0.0781 1.1406,-0.22266 1.6875,-0.42969 z m -7.4375,0.94922 10.145,92.414 -32.672,-46.898 c 0.80469,-1.2422 1.2344,-2.6914 1.2383,-4.1719 -0.004,-2.0547 -0.82812,-4.0234 -2.2891,-5.4648 z m -275.53,8.7461 44.383,21.922 c -0.0117,0.12109 -0.0195,0.24609 -0.0234,0.36719 0.004,1.8359 0.66406,3.6094 1.8633,5.0039 l -20.035,39.543 h -0.004 c -0.15234,0.0156 -0.30469,0.0312 -0.45703,0.0547 l -27.066,-65.73 0.004,0.004 c 0.48828,-0.33203 0.93359,-0.72266 1.332,-1.1562 z m 143.32,21.199 94.906,13.262 -37.113,39.727 c -0.85938,-0.32422 -1.7656,-0.49219 -2.6836,-0.49609 -1.8711,0.004 -3.6758,0.69141 -5.0781,1.9297 l -50.043,-54.402 h -0.004 0.0156 z m 309.94,1.3711 18.84,9.4219 -24.082,3.8438 5.2422,-13.262 z m -310.19,6.918 47.668,51.824 c 0,0.0234 -0.004,0.0508 -0.004,0.0781 0.004,0.83594 0.14453,1.6719 0.41797,2.4648 l -20.188,17.664 h -0.004 c -0.94531,-0.76562 -2.0586,-1.293 -3.2461,-1.5469 l -24.645,-70.488 z m -88.559,0.0898 42.977,32.551 3.6836,24.707 v -0.004 c -0.64844,0.46484 -1.2188,1.0273 -1.6914,1.668 l -65.215,-14.871 v -0.004 c -0.22266,-1.8945 -1.1406,-3.6367 -2.5703,-4.8945 l 19.648,-38.781 -0.004,0.004 c 0.23828,0.0273 0.47656,0.0469 0.71484,0.0547 0.83594,-0.004 1.6641,-0.14452 2.457,-0.41406 z m 423.27,7.3516 c 0.0781,0.0742 0.15625,0.14453 0.23828,0.21875 l -26.492,40.004 c -0.57812,0.0352 -1.1445,0.13672 -1.6992,0.30078 l -11.996,-15.855 7.7188,-19.527 z m -236.45,2.6641 -7.5156,46.105 v -0.004 c -1.2227,0.69141 -2.2344,1.7031 -2.9219,2.9258 l -24.863,-8.4375 c -0.11719,-0.72656 -0.33984,-1.4375 -0.66016,-2.1016 l 35.961,-38.492 z m 6.9414,0.5 34.258,49.176 -37.438,1.3867 -0.004,-0.004 c -0.625,-2.6992 -2.6523,-4.8555 -5.3125,-5.6445 l 7.2891,-44.73 h 0.004 c 0.40625,-0.0312 0.80859,-0.0937 1.2031,-0.18359 z m 190.65,3.0391 -5.1719,13.078 -8.2734,-10.934 13.441,-2.1445 z m -19.902,3.1758 12.246,16.188 -5.0508,12.773 0.004,-0.004 c -0.55859,-0.12891 -1.1289,-0.19531 -1.6992,-0.19531 -2.25,0 -4.3828,0.98438 -5.8438,2.6953 l -51.137,-23.246 51.48,-8.2148 z m -54.82,13.039 52.641,23.926 v -0.004 c 0.14844,2.2227 1.2539,4.2734 3.0312,5.6211 l -12.949,20.543 c -1.2891,-0.89844 -2.8242,-1.3789 -4.3945,-1.3789 -0.40234,0.004 -0.80859,0.0351 -1.207,0.10156 l -37.117,-48.812 z m -14.406,1.4844 v -0.004 c 0.90234,0.86328 1.9961,1.4961 3.1953,1.8398 l 3.9375,43.324 h -0.004 c -2.0781,1.4336 -3.3203,3.7969 -3.3242,6.3242 0.004,1.2461 0.30859,2.4688 0.88672,3.5703 l -7.8555,11.785 c -1.1797,-0.69141 -2.5195,-1.0586 -3.8867,-1.0625 -1.5469,0.004 -3.0586,0.47266 -4.3359,1.3477 l -41.348,-32.273 c 0.30469,-0.83594 0.46094,-1.7188 0.46484,-2.6094 0,-0.17969 -0.008,-0.35938 -0.0195,-0.53906 l 52.289,-31.707 z m 9.1367,1.1211 37.426,49.219 v -0.004 c -0.39453,0.53516 -0.72266,1.1172 -0.96875,1.7383 l -26.523,-1.9805 v -0.004 c -0.58594,-3.1641 -3.082,-5.6328 -6.2539,-6.1836 l -3.8789,-42.676 -0.004,0.004 c 0.0703,-0.0391 0.13672,-0.0781 0.20312,-0.11719 z m -254.87,5.1562 46.703,35.371 -37.488,-10.41 v -0.004 c -0.44922,-3.3945 -3.0898,-6.082 -6.4727,-6.5938 l -2.7383,-18.363 z m 331.28,0.77344 9.9648,13.168 h 0.004 c -0.18359,0.33203 -0.34375,0.67578 -0.48047,1.0273 h -12.648 c -0.10547,-1.1914 -0.48828,-2.3438 -1.1211,-3.3633 l 4.2852,-10.836 z m -152.95,27.168 0.004,-0.004 c 0.79688,2.9844 3.2969,5.207 6.3555,5.6406 l 2.9492,45.184 -47.645,-49.305 c 0.0234,-0.0352 0.043,-0.0703 0.0664,-0.10547 l 38.273,-1.418 z m 12.164,6.0078 40.645,31.723 0.004,-0.004 c -0.10156,0.50391 -0.15234,1.0156 -0.15234,1.5312 0,0.18359 0.004,0.36719 0.0195,0.54688 l -32.641,12.871 h -0.004 c -1.2852,-1.4375 -3.0664,-2.3398 -4.9844,-2.5273 l -2.8789,-44.145 z m 43.074,38.996 0.004,-0.004 c 0.28516,0.25391 0.58594,0.48438 0.90625,0.69531 l -5.2734,14.062 v -0.004 c -2.2852,0.16797 -4.3789,1.3438 -5.7109,3.207 l -23.219,-4.2227 c 0.0234,-0.20703 0.0391,-0.41797 0.0469,-0.625 l 33.25,-13.109 z m 6.6914,1.7812 12.035,25.406 -14.895,-5.5039 0.004,-0.004 c -0.19141,-2.0039 -1.1641,-3.8516 -2.7031,-5.1445 l 5.5312,-14.75 h 0.0312 z m -37.57,18.266 19.453,3.5352 0.004,-0.004 c 0.30469,2 1.3867,3.8008 3.0039,5.0078 l -0.89062,6.8867 h 0.004 c -0.94141,0.17188 -1.8398,0.51562 -2.6562,1.0156 l -18.914,-16.445 z m 33.066,7.1836 16.754,6.1914 -21.109,4.5547 0.004,-0.004 c -0.43359,-0.49609 -0.92969,-0.9375 -1.4727,-1.3086 l 0.85156,-6.6172 c 1.9609,-0.26562 3.7422,-1.2773 4.9766,-2.8203 z"
           id="path889"
           style="fill:#52adc8;fill-opacity:1" />
        <use
           x="70"
           y="644"
           xlink:href="#u"
           id="use891"
           style="fill:#52adc8;fill-opacity:1"
           width="100%"
           height="100%" />
        <use
           x="90.550781"
           y="644"
           xlink:href="#c"
           id="use893"
           style="fill:#52adc8;fill-opacity:1"
           width="100%"
           height="100%" />
        <use
           x="104.35938"
           y="644"
           xlink:href="#a"
           id="use895"
           style="fill:#52adc8;fill-opacity:1"
           width="100%"
           height="100%" />
        <use
           x="123.34766"
           y="644"
           xlink:href="#f"
           id="use897"
           style="fill:#52adc8;fill-opacity:1"
           width="100%"
           height="100%" />
        <use
           x="142.24219"
           y="644"
           xlink:href="#b"
           id="use899"
           style="fill:#52adc8;fill-opacity:1"
           width="100%"
           height="100%" />
        <use
           x="155.62891"
           y="644"
           xlink:href="#a"
           id="use901"
           style="fill:#52adc8;fill-opacity:1"
           width="100%"
           height="100%" />
        <use
           x="174.61719"
           y="644"
           xlink:href="#l"
           id="use903"
           style="fill:#52adc8;fill-opacity:1"
           width="100%"
           height="100%" />
        <use
           x="204.41016"
           y="644"
           xlink:href="#k"
           id="use905"
           style="fill:#52adc8;fill-opacity:1"
           width="100%"
           height="100%" />
        <use
           x="224.45312"
           y="644"
           xlink:href="#e"
           id="use907"
           style="fill:#52adc8;fill-opacity:1"
           width="100%"
           height="100%" />
        <use
           x="252.45312"
           y="644"
           xlink:href="#j"
           id="use909"
           style="fill:#52adc8;fill-opacity:1"
           width="100%"
           height="100%" />
        <use
           x="272.61719"
           y="644"
           xlink:href="#a"
           id="use911"
           style="fill:#52adc8;fill-opacity:1"
           width="100%"
           height="100%" />
        <use
           x="291.60938"
           y="644"
           xlink:href="#c"
           id="use913"
           style="fill:#52adc8;fill-opacity:1"
           width="100%"
           height="100%" />
        <use
           x="305.41406"
           y="644"
           xlink:href="#t"
           id="use915"
           style="fill:#52adc8;fill-opacity:1"
           width="100%"
           height="100%" />
        <use
           x="325.46094"
           y="644"
           xlink:href="#a"
           id="use917"
           style="fill:#52adc8;fill-opacity:1"
           width="100%"
           height="100%" />
        <use
           x="344.44922"
           y="644"
           xlink:href="#e"
           id="use919"
           style="fill:#52adc8;fill-opacity:1"
           width="100%"
           height="100%" />
        <use
           x="372.44922"
           y="644"
           xlink:href="#i"
           id="use921"
           style="fill:#52adc8;fill-opacity:1"
           width="100%"
           height="100%" />
        <use
           x="392.96875"
           y="644"
           xlink:href="#f"
           id="use923"
           style="fill:#52adc8;fill-opacity:1"
           width="100%"
           height="100%" />
        <use
           x="411.86719"
           y="644"
           xlink:href="#b"
           id="use925"
           style="fill:#52adc8;fill-opacity:1"
           width="100%"
           height="100%" />
        <use
           x="425.25"
           y="644"
           xlink:href="#h"
           id="use927"
           style="fill:#52adc8;fill-opacity:1"
           width="100%"
           height="100%" />
        <use
           x="445.18359"
           y="644"
           xlink:href="#b"
           id="use929"
           style="fill:#52adc8;fill-opacity:1"
           width="100%"
           height="100%" />
        <use
           x="458.57031"
           y="644"
           xlink:href="#s"
           id="use931"
           style="fill:#52adc8;fill-opacity:1"
           width="100%"
           height="100%" />
        <use
           x="468.16406"
           y="644"
           xlink:href="#g"
           id="use933"
           style="fill:#52adc8;fill-opacity:1"
           width="100%"
           height="100%" />
        <use
           x="70"
           y="672"
           xlink:href="#r"
           id="use935"
           style="fill:#52adc8;fill-opacity:1"
           width="100%"
           height="100%" />
        <use
           x="82.183594"
           y="672"
           xlink:href="#c"
           id="use937"
           style="fill:#52adc8;fill-opacity:1"
           width="100%"
           height="100%" />
        <use
           x="95.992188"
           y="672"
           xlink:href="#d"
           id="use939"
           style="fill:#52adc8;fill-opacity:1"
           width="100%"
           height="100%" />
        <use
           x="115.22656"
           y="672"
           xlink:href="#q"
           id="use941"
           style="fill:#52adc8;fill-opacity:1"
           width="100%"
           height="100%" />
        <use
           x="154.15234"
           y="672"
           xlink:href="#b"
           id="use943"
           style="fill:#52adc8;fill-opacity:1"
           width="100%"
           height="100%" />
        <use
           x="167.53516"
           y="672"
           xlink:href="#p"
           id="use945"
           style="fill:#52adc8;fill-opacity:1"
           width="100%"
           height="100%" />
        <use
           x="187.46875"
           y="672"
           xlink:href="#a"
           id="use947"
           style="fill:#52adc8;fill-opacity:1"
           width="100%"
           height="100%" />
        <use
           x="216.20703"
           y="672"
           xlink:href="#o"
           id="use949"
           style="fill:#52adc8;fill-opacity:1"
           width="100%"
           height="100%" />
        <use
           x="239.64062"
           y="672"
           xlink:href="#d"
           id="use951"
           style="fill:#52adc8;fill-opacity:1"
           width="100%"
           height="100%" />
        <use
           x="258.87891"
           y="672"
           xlink:href="#h"
           id="use953"
           style="fill:#52adc8;fill-opacity:1"
           width="100%"
           height="100%" />
        <use
           x="278.8125"
           y="672"
           xlink:href="#g"
           id="use955"
           style="fill:#52adc8;fill-opacity:1"
           width="100%"
           height="100%" />
        <use
           x="308.49219"
           y="672"
           xlink:href="#i"
           id="use957"
           style="fill:#52adc8;fill-opacity:1"
           width="100%"
           height="100%" />
        <use
           x="329.01562"
           y="672"
           xlink:href="#c"
           id="use959"
           style="fill:#52adc8;fill-opacity:1"
           width="100%"
           height="100%" />
        <use
           x="342.82031"
           y="672"
           xlink:href="#d"
           id="use961"
           style="fill:#52adc8;fill-opacity:1"
           width="100%"
           height="100%" />
        <use
           x="362.05859"
           y="672"
           xlink:href="#n"
           id="use963"
           style="fill:#52adc8;fill-opacity:1"
           width="100%"
           height="100%" />
        <use
           x="371.65625"
           y="672"
           xlink:href="#a"
           id="use965"
           style="fill:#52adc8;fill-opacity:1"
           width="100%"
           height="100%" />
        <use
           x="390.64844"
           y="672"
           xlink:href="#m"
           id="use967"
           style="fill:#52adc8;fill-opacity:1"
           width="100%"
           height="100%" />
        <use
           x="407.24219"
           y="672"
           xlink:href="#b"
           id="use969"
           style="fill:#52adc8;fill-opacity:1"
           width="100%"
           height="100%" />
      </g>
      <rect
         style="opacity:0;fill:#52adc8;fill-opacity:1;stroke:#aa0000;stroke-width:1.93323"
         id="rect1753"
         width="563.79584"
         height="430.94101"
         x="64.752792"
         y="74.800636" />
      <rect
         style="opacity:0;fill:#52adc8;fill-opacity:1;stroke:#aa0000;stroke-width:1.93323"
         id="rect1857"
         width="597.2887"
         height="461.08453"
         x="31.259968"
         y="44.657097" />
    </g>
    <g
       id="g1072"
       style="opacity:1;mix-blend-mode:normal"
       figma:type="group"
       transform="matrix(0.86228968,0,0,0.86228968,-1252.0575,-2107.201)">
      <g
         id="Group"
         style="mix-blend-mode:normal"
         figma:type="group">
        <g
           id="g-3"
           style="mix-blend-mode:normal"
           figma:type="group">
          <g
             id="path"
             style="mix-blend-mode:normal"
             figma:type="group">
            <g
               id="path9 fill"
               style="mix-blend-mode:normal"
               figma:type="vector">
              <use
                 xlink:href="#path0_fill"
                 transform="translate(1640.54,2474.36)"
                 fill="#4e4e4e"
                 style="mix-blend-mode:normal"
                 id="use1009"
                 x="0"
                 y="0"
                 width="100%"
                 height="100%" />
            </g>
          </g>
          <g
             id="g1016"
             style="mix-blend-mode:normal"
             figma:type="group">
            <g
               id="path10 fill"
               style="mix-blend-mode:normal"
               figma:type="vector">
              <use
                 xlink:href="#path1_fill"
                 transform="translate(1645.68,2474.37)"
                 fill="#4e4e4e"
                 style="mix-blend-mode:normal"
                 id="use1013"
                 x="0"
                 y="0"
                 width="100%"
                 height="100%" />
            </g>
          </g>
          <g
             id="g1021"
             style="mix-blend-mode:normal"
             figma:type="group">
            <g
               id="path11 fill"
               style="mix-blend-mode:normal"
               figma:type="vector">
              <use
                 xlink:href="#path2_fill"
                 transform="translate(1653.39,2474.26)"
                 fill="#4e4e4e"
                 style="mix-blend-mode:normal"
                 id="use1018"
                 x="0"
                 y="0"
                 width="100%"
                 height="100%" />
            </g>
          </g>
          <g
             id="g1026"
             style="mix-blend-mode:normal"
             figma:type="group">
            <g
               id="path12 fill"
               style="mix-blend-mode:normal"
               figma:type="vector">
              <use
                 xlink:href="#path3_fill"
                 transform="translate(1660.43,2474.39)"
                 fill="#4e4e4e"
                 style="mix-blend-mode:normal"
                 id="use1023"
                 x="0"
                 y="0"
                 width="100%"
                 height="100%" />
            </g>
          </g>
          <g
             id="g1031"
             style="mix-blend-mode:normal"
             figma:type="group">
            <g
               id="path13 fill"
               style="mix-blend-mode:normal"
               figma:type="vector">
              <use
                 xlink:href="#path4_fill"
                 transform="translate(1667.55,2472.54)"
                 fill="#4e4e4e"
                 style="mix-blend-mode:normal"
                 id="use1028"
                 x="0"
                 y="0"
                 width="100%"
                 height="100%" />
            </g>
          </g>
          <g
             id="g1036"
             style="mix-blend-mode:normal"
             figma:type="group">
            <g
               id="path14 fill"
               style="mix-blend-mode:normal"
               figma:type="vector">
              <use
                 xlink:href="#path5_fill"
                 transform="translate(1672.47,2474.29)"
                 fill="#4e4e4e"
                 style="mix-blend-mode:normal"
                 id="use1033"
                 x="0"
                 y="0"
                 width="100%"
                 height="100%" />
            </g>
          </g>
          <g
             id="g1041"
             style="mix-blend-mode:normal"
             figma:type="group">
            <g
               id="path15 fill"
               style="mix-blend-mode:normal"
               figma:type="vector">
              <use
                 xlink:href="#path6_fill"
                 transform="translate(1679.98,2474.24)"
                 fill="#4e4e4e"
                 style="mix-blend-mode:normal"
                 id="use1038"
                 x="0"
                 y="0"
                 width="100%"
                 height="100%" />
            </g>
          </g>
        </g>
      </g>
      <g
         id="g1070"
         style="mix-blend-mode:normal"
         figma:type="group">
        <g
           id="g1048"
           style="mix-blend-mode:normal"
           figma:type="group">
          <g
             id="path16 fill"
             style="mix-blend-mode:normal"
             figma:type="vector">
            <use
               xlink:href="#path7_fill"
               transform="translate(1673.48,2453.69)"
               fill="#767677"
               style="mix-blend-mode:normal"
               id="use1045"
               x="0"
               y="0"
               width="100%"
               height="100%" />
          </g>
        </g>
        <g
           id="g1053"
           style="mix-blend-mode:normal"
           figma:type="group">
          <g
             id="path17 fill"
             style="mix-blend-mode:normal"
             figma:type="vector">
            <use
               xlink:href="#path8_fill"
               transform="translate(1643.21,2484.27)"
               fill="#f37726"
               style="mix-blend-mode:normal"
               id="use1050"
               x="0"
               y="0"
               width="100%"
               height="100%" />
          </g>
        </g>
        <g
           id="g1058"
           style="mix-blend-mode:normal"
           figma:type="group">
          <g
             id="path18 fill"
             style="mix-blend-mode:normal"
             figma:type="vector">
            <use
               xlink:href="#path9_fill"
               transform="translate(1643.21,2457.88)"
               fill="#f37726"
               style="mix-blend-mode:normal"
               id="use1055"
               x="0"
               y="0"
               width="100%"
               height="100%" />
          </g>
        </g>
        <g
           id="g1063"
           style="mix-blend-mode:normal"
           figma:type="group">
          <g
             id="path19 fill"
             style="mix-blend-mode:normal"
             figma:type="vector">
            <use
               xlink:href="#path10_fill"
               transform="translate(1643.28,2496.09)"
               fill="#9e9e9e"
               style="mix-blend-mode:normal"
               id="use1060"
               x="0"
               y="0"
               width="100%"
               height="100%" />
          </g>
        </g>
        <g
           id="g1068"
           style="mix-blend-mode:normal"
           figma:type="group">
          <g
             id="path20 fill"
             style="mix-blend-mode:normal"
             figma:type="vector">
            <use
               xlink:href="#path11_fill"
               transform="translate(1641.87,2458.43)"
               fill="#616262"
               style="mix-blend-mode:normal"
               id="use1065"
               x="0"
               y="0"
               width="100%"
               height="100%" />
          </g>
        </g>
      </g>
    </g>
    <g
       id="g1386"
       transform="matrix(0.35277778,0,0,0.35277778,-91.855128,71.197692)" />
    <path
       style="opacity:0.15;fill:none;stroke:#000000;stroke-width:0.560253;stroke-linecap:butt;stroke-linejoin:miter;stroke-miterlimit:4;stroke-dasharray:none;stroke-opacity:1;marker-start:url(#Arrow2Lstart);marker-end:url(#Arrow2Lend)"
       d="M 60.674099,30.14972 H 80.412193"
       id="path2512" />
    <path
       style="opacity:1;fill:none;stroke:#000000;stroke-width:0.560253;stroke-linecap:butt;stroke-linejoin:miter;stroke-miterlimit:4;stroke-dasharray:none;stroke-opacity:1;marker-start:url(#Arrow2Lstart-1);marker-end:url(#Arrow2Lend-7)"
       d="m 134.28851,30.14972 h 19.7381"
       id="path2512-8" />
    <g
       style="opacity:0.3;fill:currentColor"
       id="g4217"
       transform="matrix(2.5970441,0,0,2.5970441,15.728587,9.3733657)">
      <path
         d="M 13.5,3 A 0.5,0.5 0 0 1 14,3.5 V 11 H 2 V 3.5 A 0.5,0.5 0 0 1 2.5,3 Z M 2.5,2 A 1.5,1.5 0 0 0 1,3.5 V 12 H 15 V 3.5 A 1.5,1.5 0 0 0 13.5,2 Z M 0,12.5 H 16 A 1.5,1.5 0 0 1 14.5,14 H 1.5 A 1.5,1.5 0 0 1 0,12.5 Z"
         id="path4208"
         style="opacity:0.15" />
    </g>
    <rect
       style="opacity:0.5;fill:#000000;fill-opacity:0;stroke:#000000;stroke-width:1.0668;stroke-miterlimit:4;stroke-dasharray:none;stroke-opacity:1"
       id="rect6903"
       width="119.43684"
       height="46.261009"
       x="83.021378"
       y="7.0192137"
       ry="0.89695412" />
  </g>
</svg>
